{"_v":2,"glyphs":{"0":{"ha":370,"x_min":68,"x_max":372,"o":"m 372 215 l 372 215 q 372 115 328 53 q 284 -9 220 -9 l 220 -9 q 156 -9 112 53 q 68 115 68 215 l 68 215 q 68 300 108 365 l 108 365 q 152 436 220 436 l 220 436 q 288 436 332 365 l 332 365 q 372 300 372 215 z m 146 213 l 146 213 q 146 31 220 31 l 220 31 q 294 31 294 213 l 294 213 q 294 396 220 396 l 220 396 q 146 396 146 213 z"},"1":{"ha":370,"x_min":107,"x_max":276,"o":"m 276 0 l 198 0 l 198 353 q 170 333 107 299 l 107 299 l 107 352 q 188 388 223 421 l 223 421 l 276 421 l 276 0 z"},"2":{"ha":370,"x_min":75,"x_max":359,"o":"m 134 306 l 86 306 q 86 362 122 399 q 157 436 215 436 l 215 436 q 281 436 319 400 l 319 400 q 354 366 354 310 l 354 310 q 354 273 323 229 l 323 229 q 277 164 143 46 l 143 46 l 359 46 l 359 0 l 75 0 l 75 37 q 276 222 276 308 l 276 308 q 276 390 204 390 l 204 390 q 173 390 154 364 q 134 337 134 306 l 134 306 z"},"3":{"ha":370,"x_min":71,"x_max":356,"o":"m 262 224 l 262 224 l 264 220 q 356 203 356 108 l 356 108 q 356 57 318 24 q 280 -9 215 -9 l 215 -9 q 153 -9 112 27 q 71 62 71 113 l 71 113 l 126 113 q 126 81 149 56 q 171 31 204 31 l 204 31 q 236 31 257 56 q 278 80 278 113 l 278 113 q 278 154 257 179 q 235 203 197 203 l 197 203 l 165 203 l 165 243 l 200 243 q 231 243 253 263 q 274 282 274 315 l 274 315 q 274 396 202 396 l 202 396 q 174 396 153 375 q 132 353 128 319 l 128 319 l 80 319 q 83 377 126 409 l 126 409 q 162 436 207 436 l 207 436 q 263 436 305 402 q 346 368 346 319 l 346 319 q 346 241 262 224 z"},"4":{"ha":370,"x_min":58,"x_max":375,"o":"m 310 421 l 310 137 l 375 137 l 375 91 l 310 91 l 310 0 l 232 0 l 232 91 l 58 91 l 58 134 l 253 421 l 310 421 z m 102 137 l 232 137 l 231 331 l 102 137 z"},"5":{"ha":370,"x_min":80,"x_max":360,"o":"m 106 421 l 338 421 l 338 375 l 166 375 l 152 264 q 191 282 226 282 l 226 282 q 360 282 360 146 l 360 146 q 360 75 323 34 l 323 34 q 283 -9 210 -9 l 210 -9 q 148 -9 112 25 l 112 25 q 80 55 80 100 l 80 100 l 135 100 q 135 69 157 50 q 178 31 210 31 l 210 31 q 240 31 261 58 q 282 85 282 134 l 282 134 q 282 184 261 213 q 239 242 203 242 l 203 242 q 175 242 152 227 q 129 212 125 190 l 125 190 l 88 190 l 106 421 z"},"6":{"ha":370,"x_min":70,"x_max":368,"o":"m 345 335 l 290 330 q 277 390 228 390 l 228 390 q 142 390 142 236 l 142 236 l 145 236 q 171 275 232 275 l 232 275 q 296 275 332 239 q 368 202 368 133 l 368 133 q 368 66 329 29 q 289 -9 222 -9 l 222 -9 q 151 -9 111 48 q 70 105 70 205 l 70 205 q 70 329 121 390 l 121 390 q 160 436 216 436 l 216 436 q 266 436 301 410 q 335 383 345 335 l 345 335 z m 148 133 l 148 133 q 148 31 222 31 l 222 31 q 296 31 296 133 l 296 133 q 296 183 274 211 l 274 211 q 254 235 222 235 l 222 235 q 190 235 170 211 l 170 211 q 148 183 148 133 z"},"7":{"ha":370,"x_min":84,"x_max":357,"o":"m 84 421 l 357 421 l 357 375 l 193 0 l 107 0 l 286 375 l 84 375 l 84 421 z"},"8":{"ha":370,"x_min":80,"x_max":360,"o":"m 352 317 l 352 317 q 352 283 328 260 q 304 236 271 228 l 271 228 l 273 226 l 275 226 q 360 203 360 118 l 360 118 q 360 65 322 28 q 284 -9 220 -9 l 220 -9 q 156 -9 118 28 q 80 65 80 118 l 80 118 q 80 203 165 226 l 165 226 l 167 226 l 169 228 q 136 236 114 258 l 114 258 q 88 283 88 317 l 88 317 q 88 366 121 399 l 121 399 q 157 436 220 436 l 220 436 q 283 436 319 399 l 319 399 q 352 366 352 317 z m 160 317 l 160 317 q 160 284 178 264 q 196 244 220 244 l 220 244 q 244 244 262 264 q 280 284 280 317 l 280 317 q 280 353 263 375 q 246 396 220 396 l 220 396 q 194 396 177 375 q 160 353 160 317 z m 158 120 l 158 120 q 158 79 176 55 q 193 31 220 31 l 220 31 q 247 31 265 55 q 282 79 282 120 l 282 120 q 282 156 265 180 q 247 204 220 204 l 220 204 q 193 204 176 180 q 158 156 158 120 z"},"9":{"ha":370,"x_min":70,"x_max":368,"o":"m 93 92 l 148 97 q 161 37 210 37 l 210 37 q 291 37 296 191 l 296 191 l 293 191 q 267 152 206 152 l 206 152 q 146 152 108 190 q 70 228 70 294 l 70 294 q 70 357 109 397 q 148 436 216 436 l 216 436 q 368 436 368 222 l 368 222 q 368 98 317 37 l 317 37 q 278 -9 222 -9 l 222 -9 q 172 -9 138 18 q 103 44 93 92 l 93 92 z m 290 294 l 290 294 q 290 396 216 396 l 216 396 q 142 396 142 294 l 142 294 q 142 244 164 216 l 164 216 q 184 192 216 192 l 216 192 q 248 192 268 216 l 268 216 q 290 244 290 294 z"}," ":{"ha":250,"x_min":0,"x_max":0,"o":""},"!":{"ha":222,"x_min":102,"x_max":194,"o":"m 194 31 l 194 31 q 194 12 181 -1 q 167 -15 148 -15 l 148 -15 q 129 -15 116 -1 q 102 12 102 31 l 102 31 q 102 50 116 64 q 129 77 148 77 l 148 77 q 167 77 181 64 q 194 50 194 31 z m 163 104 l 133 123 q 135 177 121 271 q 107 364 108 415 l 108 415 q 110 487 149 487 l 149 487 q 181 487 188 415 l 188 415 q 191 387 178 285 l 178 285 q 163 171 163 104 l 163 104 z"},"\"":{"ha":241,"x_min":107,"x_max":228,"o":"m 128 387 l 107 396 q 192 444 192 493 l 192 493 q 192 512 183 519 l 183 519 q 171 509 154 509 l 154 509 q 137 509 123 522 q 108 534 108 552 l 108 552 q 108 571 123 586 q 137 601 156 601 l 156 601 q 187 601 208 576 q 228 551 228 508 l 228 508 q 228 468 193 431 l 193 431 q 163 398 128 387 l 128 387 z"},"#":{"ha":426,"x_min":86,"x_max":408,"o":"m 86 208 l 408 208 l 408 176 l 86 176 l 86 208 z m 293 298 l 293 298 q 293 279 280 266 q 266 252 247 252 l 247 252 q 228 252 215 266 q 201 279 201 298 l 201 298 q 201 317 215 331 q 228 344 247 344 l 247 344 q 266 344 280 331 q 293 317 293 298 z m 293 86 l 293 86 q 293 67 280 54 q 266 40 247 40 l 247 40 q 228 40 215 54 q 201 67 201 86 l 201 86 q 201 105 215 119 q 228 132 247 132 l 247 132 q 266 132 280 119 q 293 105 293 86 z"},"$":{"ha":426,"x_min":86,"x_max":408,"o":"m 247 169 l 109 31 l 86 54 l 224 192 l 86 330 l 109 353 l 247 214 l 385 352 l 408 329 l 270 192 l 407 54 l 385 31 l 247 169 z"},"%":{"ha":556,"x_min":69,"x_max":559,"o":"m 559 81 l 559 81 q 559 31 528 0 q 496 -31 450 -31 l 450 -31 q 404 -31 373 0 q 341 31 341 81 l 341 81 q 341 123 371 158 q 401 192 450 192 l 450 192 q 499 192 529 158 q 559 123 559 81 z m 287 348 l 287 348 q 287 298 256 267 q 224 236 178 236 l 178 236 q 132 236 101 267 q 69 298 69 348 l 69 348 q 69 390 99 425 q 129 459 178 459 l 178 459 q 227 459 257 425 q 287 390 287 348 z m 145 -31 l 435 459 l 478 459 l 188 -31 l 145 -31 z m 124 347 l 124 347 q 124 256 178 256 l 178 256 q 232 256 232 347 l 232 347 q 232 439 178 439 l 178 439 q 124 439 124 347 z m 396 80 l 396 80 q 396 -11 450 -11 l 450 -11 q 504 -11 504 80 l 504 80 q 504 172 450 172 l 450 172 q 396 172 396 80 z"},"&":{"ha":389,"x_min":69,"x_max":385,"o":"m 225 537 l 229 537 q 263 540 263 478 l 263 478 q 263 458 252 406 q 240 353 240 346 l 240 346 q 254 346 298 358 q 341 370 347 370 l 347 370 q 385 370 385 336 l 385 336 q 385 303 350 303 l 350 303 q 345 303 306 315 q 266 326 240 326 l 240 326 q 240 302 251 263 q 261 224 269 213 l 269 213 q 261 162 248 28 l 248 28 q 235 -109 234 -148 l 234 -148 l 220 -148 q 219 -109 206 28 l 206 28 q 193 162 185 213 l 185 213 q 193 224 204 263 q 214 302 214 326 l 214 326 q 188 326 149 315 q 109 303 104 303 l 104 303 q 69 303 69 336 l 69 336 q 69 370 107 370 l 107 370 q 113 370 157 358 q 200 346 214 346 l 214 346 q 214 353 203 406 q 191 458 191 478 l 191 478 q 191 540 225 537 l 225 537 z"},"'":{"ha":241,"x_min":100,"x_max":221,"o":"m 200 601 l 221 592 q 136 544 136 495 l 136 495 q 136 476 145 469 l 145 469 q 157 479 174 479 l 174 479 q 191 479 206 467 q 220 454 220 436 l 220 436 q 220 417 206 402 q 191 387 172 387 l 172 387 q 141 387 121 412 q 100 437 100 480 l 100 480 q 100 520 135 557 l 135 557 q 165 590 200 601 l 200 601 z"},"(":{"ha":323,"x_min":82,"x_max":318,"o":"m 318 -157 l 295 -157 q 213 -107 150 0 l 150 0 q 82 114 82 222 l 82 222 q 82 330 150 444 l 150 444 q 213 551 295 601 l 295 601 l 318 601 q 227 509 187 415 l 187 415 q 150 329 150 222 l 150 222 q 150 115 187 29 l 187 29 q 227 -65 318 -157 l 318 -157 z"},")":{"ha":323,"x_min":72,"x_max":308,"o":"m 95 -157 l 72 -157 q 163 -65 203 29 l 203 29 q 240 115 240 222 l 240 222 q 240 329 203 415 l 203 415 q 163 509 72 601 l 72 601 l 95 601 q 177 551 241 444 l 241 444 q 308 330 308 222 l 308 222 q 308 114 241 0 l 241 0 q 177 -107 95 -157 l 95 -157 z"},"*":{"ha":370,"x_min":82,"x_max":358,"o":"m 247 493 l 247 493 q 247 461 225 393 l 225 393 l 228 393 q 298 468 332 468 l 332 468 q 358 468 358 446 l 358 446 q 358 420 318 406 l 318 406 q 300 400 235 383 l 235 383 l 235 379 q 355 358 355 317 l 355 317 q 355 309 346 300 q 336 291 328 291 l 328 291 q 305 291 266 333 l 266 333 q 252 348 229 369 l 229 369 l 226 369 q 247 296 247 264 l 247 264 q 247 250 240 238 q 232 226 220 227 l 220 227 q 208 226 200 239 q 192 251 192 264 l 192 264 q 192 292 214 369 l 214 369 l 211 369 q 199 359 174 333 l 174 333 q 135 291 112 291 l 112 291 q 104 291 95 300 q 85 309 85 317 l 85 317 q 85 358 205 379 l 205 379 l 205 383 q 175 391 122 406 l 122 406 q 82 420 82 446 l 82 446 q 82 468 108 468 l 108 468 q 142 468 212 393 l 212 393 l 215 393 q 192 464 192 493 l 192 493 q 192 537 220 537 l 220 537 q 247 537 247 493 z"},"+":{"ha":426,"x_min":86,"x_max":408,"o":"m 231 176 l 86 176 l 86 208 l 231 208 l 231 353 l 263 353 l 263 208 l 408 208 l 408 176 l 263 176 l 263 31 l 231 31 l 231 176 z"},",":{"ha":185,"x_min":64,"x_max":185,"o":"m 85 -137 l 64 -128 q 149 -80 149 -31 l 149 -31 q 149 -12 140 -5 l 140 -5 q 128 -15 111 -15 l 111 -15 q 94 -15 80 -2 q 65 10 65 28 l 65 28 q 65 47 80 62 q 94 77 113 77 l 113 77 q 144 77 165 52 q 185 27 185 -16 l 185 -16 q 185 -56 150 -93 l 150 -93 q 120 -126 85 -137 l 85 -137 z"},"-":{"ha":1,"x_min":0,"x_max":0,"o":""},".":{"ha":185,"x_min":65,"x_max":157,"o":"m 157 31 l 157 31 q 157 12 144 -1 q 130 -15 111 -15 l 111 -15 q 92 -15 79 -1 q 65 12 65 31 l 65 31 q 65 50 79 64 q 92 77 111 77 l 111 77 q 130 77 144 64 q 157 50 157 31 z"},"/":{"ha":370,"x_min":86,"x_max":353,"o":"m 312 563 l 353 563 l 127 -192 l 86 -192 l 312 563 z"},":":{"ha":185,"x_min":65,"x_max":157,"o":"m 157 31 l 157 31 q 157 12 144 -1 q 130 -15 111 -15 l 111 -15 q 92 -15 79 -1 q 65 12 65 31 l 65 31 q 65 50 79 64 q 92 77 111 77 l 111 77 q 130 77 144 64 q 157 50 157 31 z m 157 244 l 157 244 q 157 225 144 212 q 130 198 111 198 l 111 198 q 92 198 79 212 q 65 225 65 244 l 65 244 q 65 263 79 277 q 92 290 111 290 l 111 290 q 130 290 144 277 q 157 263 157 244 z"},";":{"ha":185,"x_min":64,"x_max":185,"o":"m 157 244 l 157 244 q 157 225 144 212 q 130 198 111 198 l 111 198 q 92 198 79 212 q 65 225 65 244 l 65 244 q 65 263 79 277 q 92 290 111 290 l 111 290 q 130 290 144 277 q 157 263 157 244 z m 85 -137 l 64 -128 q 149 -80 149 -31 l 149 -31 q 149 -12 140 -5 l 140 -5 q 128 -15 111 -15 l 111 -15 q 94 -15 80 -2 q 65 10 65 28 l 65 28 q 65 47 80 62 q 94 77 113 77 l 113 77 q 144 77 165 52 q 185 27 185 -16 l 185 -16 q 185 -56 150 -93 l 150 -93 q 120 -126 85 -137 l 85 -137 z"},"<":{"ha":400,"x_min":-3,"x_max":321,"o":"m 287 26 l -3 206 l 287 384 l 321 351 l 79 205 l 321 59 l 287 26 z"},"=":{"ha":426,"x_min":86,"x_max":408,"o":"m 86 154 l 408 154 l 408 122 l 86 122 l 86 154 z m 86 262 l 408 262 l 408 230 l 86 230 l 86 262 z"},">":{"ha":400,"x_min":73,"x_max":397,"o":"m 397 204 l 107 26 l 73 59 l 315 205 l 73 351 l 107 384 l 397 204 z"},"?":{"ha":333,"x_min":93,"x_max":325,"o":"m 204 105 l 166 119 q 130 155 130 194 l 130 194 q 130 224 171 259 l 171 259 q 209 288 248 318 l 248 318 q 289 354 289 388 l 289 388 q 289 455 210 455 l 210 455 q 187 455 170 443 l 170 443 q 150 430 148 407 l 148 407 q 191 407 191 367 l 191 367 q 191 350 178 338 q 164 325 148 325 l 148 325 q 125 325 109 341 q 93 357 93 383 l 93 383 q 93 430 124 459 q 154 487 202 487 l 202 487 q 256 487 289 458 l 289 458 q 325 426 325 369 l 325 369 q 325 325 287 281 l 287 281 q 269 261 216 217 l 216 217 q 178 185 178 171 l 178 171 q 178 136 207 110 l 207 110 l 204 105 z m 243 31 l 243 31 q 243 12 230 -1 q 216 -15 197 -15 l 197 -15 q 178 -15 165 -1 q 151 12 151 31 l 151 31 q 151 50 165 64 q 178 77 197 77 l 197 77 q 216 77 230 64 q 243 50 243 31 z"},"@":{"ha":704,"x_min":84,"x_max":698,"o":"m 317 32 l 317 244 q 317 325 369 373 q 420 421 508 421 l 508 421 q 594 421 646 367 q 698 312 698 221 l 698 221 l 698 0 l 84 0 l 84 414 l 162 414 l 162 32 l 317 32 z m 668 32 l 668 182 q 668 369 526 369 l 526 369 q 395 369 395 225 l 395 225 l 395 32 l 668 32 z"},"A":{"ha":1004,"x_min":70,"x_max":1000,"o":"m 540 239 l 540 239 l 593 239 q 611 326 663 375 l 663 375 q 712 421 780 421 l 780 421 q 874 421 939 352 l 939 352 q 1000 287 1000 204 l 1000 204 q 1000 83 883 -15 l 883 -15 l 837 6 q 922 80 922 188 l 922 188 q 922 266 873 319 l 873 319 q 826 369 764 369 l 764 369 q 717 369 677 332 q 636 294 624 239 l 624 239 l 675 239 q 811 239 811 112 l 811 112 q 811 56 781 24 q 750 -9 702 -9 l 702 -9 q 657 -9 621 41 q 585 90 585 167 l 585 167 q 585 171 587 207 l 587 207 l 543 207 q 545 101 497 42 l 497 42 q 457 -9 399 -9 l 399 -9 q 323 -9 285 66 l 285 66 q 256 -9 193 -9 l 193 -9 q 149 -9 113 22 l 113 22 q 70 60 70 126 l 70 126 q 70 179 103 209 q 136 239 198 239 l 198 239 l 262 239 q 262 313 296 365 l 296 365 q 333 421 394 421 l 394 421 q 455 421 495 370 l 495 370 q 532 321 540 239 z m 475 207 l 292 207 q 286 123 315 77 l 315 77 q 339 37 379 37 l 379 37 q 426 37 453 85 q 479 132 475 207 l 475 207 z m 292 239 l 475 239 q 472 293 447 331 q 421 369 381 369 l 381 369 q 345 369 320 337 l 320 337 q 292 302 292 239 l 292 239 z m 262 207 l 230 207 q 138 207 138 131 l 138 131 q 138 95 157 66 q 175 37 203 37 l 203 37 q 231 37 247 62 q 262 87 262 127 l 262 127 l 262 207 z m 677 207 l 677 207 l 619 207 q 615 187 615 160 l 615 160 q 615 115 635 79 q 654 43 682 43 l 682 43 q 713 43 732 69 l 732 69 q 749 92 749 118 l 749 118 q 749 157 729 182 q 709 207 677 207 z"},"B":{"ha":1092,"x_min":72,"x_max":1088,"o":"m 72 164 l 72 164 q 72 278 138 345 l 138 345 q 212 421 354 421 l 354 421 q 435 421 493 396 l 493 396 q 539 421 621 421 l 621 421 q 655 421 698 401 l 698 401 q 746 379 764 348 l 764 348 q 809 421 910 421 l 910 421 q 972 421 1019 386 l 1019 386 q 1063 353 1063 313 l 1063 313 q 1063 245 1002 213 l 1002 213 q 1040 204 1064 178 q 1088 152 1088 120 l 1088 120 q 1088 70 1044 32 l 1044 32 q 997 -9 926 -9 l 926 -9 q 869 -9 849 0 l 849 0 l 837 54 q 878 31 907 31 l 907 31 q 947 31 979 55 q 1010 79 1010 113 l 1010 113 q 1010 193 910 193 l 910 193 l 852 193 l 852 225 q 912 225 949 244 q 985 263 985 299 l 985 299 q 985 329 959 352 q 933 375 893 375 l 893 375 q 851 375 820 358 l 820 358 q 782 337 782 301 l 782 301 l 782 0 l 704 0 l 704 256 q 704 306 664 342 l 664 342 q 628 375 586 375 l 586 375 q 579 375 569 375 l 569 375 q 559 374 556 374 l 556 374 l 556 372 q 618 343 618 281 l 618 281 q 618 227 561 194 l 561 194 q 633 172 633 109 l 633 109 q 633 68 603 33 l 603 33 q 567 -9 510 -9 l 510 -9 q 446 -9 404 45 q 362 98 362 176 l 362 176 q 362 294 450 364 l 450 364 q 395 381 343 381 l 343 381 q 237 381 172 322 l 172 322 q 111 268 102 181 l 102 181 l 105 178 q 128 215 146 229 l 146 229 q 168 246 204 246 l 204 246 q 250 246 283 204 q 315 162 315 112 l 315 112 q 315 56 285 24 q 254 -9 206 -9 l 206 -9 q 140 -9 104 46 l 104 46 q 72 93 72 164 z m 392 176 l 392 176 q 392 123 420 83 q 447 43 488 43 l 488 43 q 515 43 535 62 q 555 81 555 106 l 555 106 q 555 132 533 151 q 510 169 477 169 l 477 169 l 453 169 l 453 201 l 476 201 q 504 201 527 223 q 550 244 550 270 l 550 270 q 550 292 531 317 q 511 341 483 352 l 483 352 q 446 333 421 288 l 421 288 q 392 237 392 176 z m 118 124 l 118 124 q 118 95 139 69 q 159 43 186 43 l 186 43 q 217 43 236 69 l 236 69 q 253 92 253 118 l 253 118 q 253 151 235 176 q 217 200 188 200 l 188 200 q 157 200 138 179 q 118 157 118 124 z"},"C":{"ha":737,"x_min":72,"x_max":733,"o":"m 289 346 l 289 346 q 325 421 398 421 l 398 421 q 459 421 499 370 l 499 370 q 536 321 544 239 l 544 239 l 606 239 q 659 239 694 209 l 694 209 q 733 175 733 111 l 733 111 q 733 63 701 27 q 669 -9 624 -9 l 624 -9 q 589 -9 565 8 l 565 8 l 560 53 q 581 38 597 38 l 597 38 q 623 38 644 60 q 665 81 665 122 l 665 122 q 665 207 584 207 l 584 207 l 547 207 q 549 101 501 42 l 501 42 q 461 -9 403 -9 l 403 -9 q 327 -9 289 66 l 289 66 q 260 -9 197 -9 l 197 -9 q 153 -9 117 22 l 117 22 q 74 60 74 126 l 74 126 q 74 201 136 228 l 136 228 q 72 251 72 311 l 72 311 q 72 352 109 387 q 146 421 196 421 l 196 421 q 262 421 289 346 z m 232 239 l 266 239 l 266 276 q 266 369 207 369 l 207 369 q 182 369 161 351 q 140 332 140 308 l 140 308 q 140 281 167 260 q 194 239 232 239 l 232 239 z m 296 239 l 479 239 q 476 293 451 331 q 425 369 385 369 l 385 369 q 349 369 324 337 l 324 337 q 296 302 296 239 l 296 239 z m 479 207 l 296 207 q 290 123 319 77 l 319 77 q 343 37 383 37 l 383 37 q 430 37 457 85 q 483 132 479 207 l 479 207 z m 266 207 l 234 207 q 142 207 142 131 l 142 131 q 142 95 161 66 q 179 37 207 37 l 207 37 q 235 37 251 62 q 266 87 266 127 l 266 127 l 266 207 z"},"D":{"ha":554,"x_min":93,"x_max":529,"o":"m 93 203 l 93 203 q 93 294 157 358 q 220 421 311 421 l 311 421 q 402 421 466 358 q 529 294 529 203 l 529 203 q 529 112 466 49 q 402 -15 311 -15 l 311 -15 q 220 -15 157 49 q 93 112 93 203 z"},"E":{"ha":1526,"x_min":72,"x_max":1522,"o":"m 311 421 l 311 421 q 411 421 454 348 l 454 348 q 470 379 506 400 q 542 421 580 421 l 580 421 q 641 421 685 393 l 685 393 q 740 421 801 421 l 801 421 q 899 421 950 336 l 950 336 q 964 370 1004 396 q 1043 421 1086 421 l 1086 421 q 1148 421 1185 393 l 1185 393 q 1233 421 1294 421 l 1294 421 q 1396 421 1461 349 l 1461 349 q 1522 283 1522 193 l 1522 193 q 1522 143 1492 89 q 1461 35 1407 -9 l 1407 -9 l 1361 7 q 1444 90 1444 181 l 1444 181 q 1444 265 1386 325 l 1386 325 q 1331 381 1265 381 l 1265 381 q 1232 381 1216 371 l 1216 371 q 1319 284 1319 169 l 1319 169 q 1319 100 1282 48 l 1282 48 q 1241 -9 1176 -9 l 1176 -9 q 1124 -9 1084 42 q 1044 92 1044 164 l 1044 164 q 1044 218 1073 274 l 1073 274 q 1101 326 1142 358 l 1142 358 q 1124 369 1086 369 l 1086 369 q 1035 369 1004 344 l 1004 344 q 969 316 969 260 l 969 260 l 969 0 l 891 0 l 891 249 q 891 304 858 340 q 824 375 772 375 l 772 375 q 733 375 718 368 l 718 368 q 819 285 819 169 l 819 169 q 819 97 780 44 q 740 -9 682 -9 l 682 -9 q 626 -9 587 48 l 587 48 q 551 100 551 161 l 551 161 q 551 276 642 358 l 642 358 q 620 369 580 369 l 580 369 q 539 369 507 346 l 507 346 q 472 320 472 282 l 472 282 l 472 0 l 394 0 l 394 282 q 394 317 361 343 q 328 369 278 369 l 278 369 q 202 369 157 318 q 111 266 102 181 l 102 181 l 105 178 q 128 215 146 229 l 146 229 q 168 246 204 246 l 204 246 q 250 246 283 204 q 315 162 315 112 l 315 112 q 315 56 285 24 q 254 -9 206 -9 l 206 -9 q 140 -9 104 46 l 104 46 q 72 93 72 164 l 72 164 q 72 273 136 345 l 136 345 q 203 421 311 421 z m 1074 163 l 1074 163 q 1074 112 1105 78 l 1105 78 q 1131 49 1163 49 l 1163 49 q 1201 49 1226 85 q 1251 120 1251 170 l 1251 170 q 1251 272 1169 343 l 1169 343 q 1074 267 1074 163 z m 118 124 l 118 124 q 118 95 139 69 q 159 43 186 43 l 186 43 q 217 43 236 69 l 236 69 q 253 92 253 118 l 253 118 q 253 151 235 176 q 217 200 188 200 l 188 200 q 157 200 138 179 q 118 157 118 124 z m 581 163 l 581 163 q 581 118 607 84 q 633 49 663 49 l 663 49 q 698 49 725 84 q 751 119 751 170 l 751 170 q 751 284 669 343 l 669 343 q 626 315 602 260 l 602 260 q 581 212 581 163 z"},"F":{"ha":1157,"x_min":72,"x_max":1151,"o":"m 472 0 l 394 0 l 394 282 q 394 317 361 343 q 328 369 278 369 l 278 369 q 202 369 157 318 q 111 266 102 181 l 102 181 l 105 178 q 128 215 146 229 l 146 229 q 168 246 204 246 l 204 246 q 250 246 283 204 q 315 162 315 112 l 315 112 q 315 56 285 24 q 254 -9 206 -9 l 206 -9 q 140 -9 104 46 l 104 46 q 72 93 72 164 l 72 164 q 72 273 136 345 l 136 345 q 203 421 311 421 l 311 421 q 408 421 454 348 l 454 348 q 464 374 491 396 l 491 396 q 522 421 558 421 l 558 421 q 611 421 648 393 l 648 393 q 686 421 736 421 l 736 421 q 810 421 860 364 q 910 307 910 227 l 910 227 q 910 119 825 32 l 825 32 l 1073 32 l 1065 414 l 1143 414 l 1151 0 l 519 0 l 519 32 l 752 32 q 789 62 814 112 q 838 161 838 208 l 838 208 q 838 280 806 328 q 773 375 722 375 l 722 375 q 692 375 681 370 l 681 370 q 754 297 754 201 l 754 201 q 754 143 716 102 q 678 60 629 60 l 629 60 q 584 60 554 96 q 523 132 523 188 l 523 188 q 523 280 608 359 l 608 359 q 580 375 555 375 l 555 375 q 524 375 502 358 l 502 358 q 472 335 472 290 l 472 290 l 472 0 z m 118 124 l 118 124 q 118 95 139 69 q 159 43 186 43 l 186 43 q 217 43 236 69 l 236 69 q 253 92 253 118 l 253 118 q 253 151 235 176 q 217 200 188 200 l 188 200 q 157 200 138 179 q 118 157 118 124 z m 692 215 l 692 215 q 692 295 632 343 l 632 343 q 605 331 580 291 l 580 291 q 553 248 553 211 l 553 211 q 553 173 574 146 q 594 118 620 118 l 620 118 q 652 118 672 146 q 692 173 692 215 z"},"G":{"ha":458,"x_min":72,"x_max":452,"o":"m 74 32 l 282 32 q 321 32 353 59 q 384 85 384 125 l 384 125 q 384 153 365 164 q 345 174 287 174 l 287 174 q 272 174 243 172 q 213 169 194 169 l 194 169 q 140 169 106 198 q 72 227 72 273 l 72 273 q 72 335 125 378 q 177 421 261 421 l 261 421 q 311 421 366 401 l 366 401 q 417 381 446 354 l 446 354 l 421 329 q 363 381 270 381 l 270 381 q 210 381 172 352 q 134 322 134 285 l 134 285 q 134 265 154 253 q 173 241 201 241 l 201 241 q 219 241 252 243 q 284 245 296 245 l 296 245 q 452 245 452 137 l 452 137 q 452 39 370 3 l 370 3 l 370 1 q 403 -7 422 -31 q 441 -55 441 -83 l 441 -83 q 441 -126 397 -154 q 352 -182 283 -182 l 283 -182 q 201 -182 72 -139 l 72 -139 l 72 -87 q 193 -130 250 -130 l 250 -130 q 296 -130 330 -109 q 363 -89 363 -53 l 363 -53 q 363 0 279 0 l 279 0 l 74 0 l 74 32 z"},"H":{"ha":1038,"x_min":72,"x_max":1034,"o":"m 649 -110 l 649 -294 l 581 -294 l 581 -117 q 581 -94 558 -75 q 535 -56 508 -56 l 508 -56 q 467 -56 434 -87 q 400 -119 398 -158 l 398 -158 l 401 -160 q 420 -131 456 -131 l 456 -131 q 491 -131 513 -158 q 534 -185 534 -221 l 534 -221 q 534 -304 461 -304 l 461 -304 q 421 -304 395 -268 q 368 -232 368 -179 l 368 -179 q 368 -109 413 -62 q 458 -16 519 -16 l 519 -16 q 587 -16 632 -65 l 632 -65 q 672 -16 733 -16 l 733 -16 q 794 -16 823 -63 l 823 -63 q 852 -16 907 -16 l 907 -16 q 956 -16 995 -54 q 1034 -92 1034 -152 l 1034 -152 q 1034 -236 946 -302 l 946 -302 l 917 -288 q 986 -225 986 -159 l 986 -159 q 986 -109 961 -81 q 935 -53 897 -53 l 897 -53 q 840 -53 840 -101 l 840 -101 l 840 -294 l 772 -294 l 772 -111 q 772 -86 756 -70 q 739 -54 714 -54 l 714 -54 q 649 -54 649 -110 l 649 -110 z m 666 0 l 666 259 q 666 309 633 341 l 633 341 q 602 370 559 370 l 559 370 q 521 370 497 350 q 472 330 472 302 l 472 302 l 472 0 l 394 0 l 394 282 q 394 317 361 343 q 328 369 278 369 l 278 369 q 202 369 157 318 q 111 266 102 181 l 102 181 l 105 178 q 128 215 146 229 l 146 229 q 168 246 204 246 l 204 246 q 250 246 283 204 q 315 162 315 112 l 315 112 q 315 56 285 24 q 254 -9 206 -9 l 206 -9 q 140 -9 104 46 l 104 46 q 72 93 72 164 l 72 164 q 72 273 136 345 l 136 345 q 203 421 311 421 l 311 421 q 412 421 455 348 l 455 348 q 500 421 582 421 l 582 421 q 696 421 726 353 l 726 353 q 743 384 778 403 q 812 421 852 421 l 852 421 q 926 421 979 359 q 1032 297 1032 207 l 1032 207 q 1032 95 897 -9 l 897 -9 l 856 10 q 954 111 954 205 l 954 205 q 954 287 910 335 l 910 335 q 873 375 832 375 l 832 375 q 797 375 772 355 l 772 355 q 744 333 744 299 l 744 299 l 744 0 l 666 0 z m 492 -219 l 492 -219 q 492 -198 479 -182 q 466 -167 447 -167 l 447 -167 q 406 -167 406 -215 l 406 -215 q 406 -264 453 -264 l 453 -264 q 492 -264 492 -219 z m 118 124 l 118 124 q 118 95 139 69 q 159 43 186 43 l 186 43 q 217 43 236 69 l 236 69 q 253 92 253 118 l 253 118 q 253 151 235 176 q 217 200 188 200 l 188 200 q 157 200 138 179 q 118 157 118 124 z"},"I":{"ha":1096,"x_min":72,"x_max":1092,"o":"m 744 0 l 666 0 l 666 259 q 666 308 633 340 l 633 340 q 602 369 559 369 l 559 369 q 521 369 497 349 q 472 329 472 301 l 472 301 l 472 0 l 394 0 l 394 282 q 394 317 361 343 q 328 369 278 369 l 278 369 q 202 369 157 318 q 111 266 102 181 l 102 181 l 105 178 q 128 215 146 229 l 146 229 q 168 246 204 246 l 204 246 q 250 246 283 204 q 315 162 315 112 l 315 112 q 315 56 285 24 q 254 -9 206 -9 l 206 -9 q 140 -9 104 46 l 104 46 q 72 93 72 164 l 72 164 q 72 273 136 345 l 136 345 q 203 421 311 421 l 311 421 q 412 421 455 348 l 455 348 q 500 421 582 421 l 582 421 q 634 421 676 392 l 676 392 q 712 368 728 336 l 728 336 q 788 421 910 421 l 910 421 q 983 421 1035 383 q 1087 345 1087 292 l 1087 292 q 1087 264 1066 243 q 1045 221 1013 221 l 1013 221 q 991 221 967 228 q 942 234 930 234 l 930 234 q 907 234 889 221 q 871 208 871 190 l 871 190 q 871 154 942 154 l 942 154 q 957 155 1002 157 l 1002 157 q 1038 158 1063 141 l 1063 141 q 1092 120 1092 82 l 1092 82 q 1092 40 1056 13 q 1020 -15 955 -15 l 955 -15 q 869 -15 798 1 l 798 1 l 789 50 q 854 31 922 31 l 922 31 q 1014 31 1014 79 l 1014 79 q 1014 117 934 117 l 934 117 q 793 117 793 188 l 793 188 q 793 224 817 247 q 840 270 879 270 l 879 270 q 898 270 930 266 q 962 262 972 262 l 972 262 q 987 262 998 275 q 1009 287 1009 301 l 1009 301 q 1009 331 978 353 q 946 375 899 375 l 899 375 q 818 375 775 339 l 775 339 q 744 313 744 287 l 744 287 l 744 0 z m 118 124 l 118 124 q 118 95 139 69 q 159 43 186 43 l 186 43 q 217 43 236 69 l 236 69 q 253 92 253 118 l 253 118 q 253 151 235 176 q 217 200 188 200 l 188 200 q 157 200 138 179 q 118 157 118 124 z"},"J":{"ha":1231,"x_min":72,"x_max":1227,"o":"m 667 0 l 589 0 l 589 249 q 589 304 556 340 q 522 375 470 375 l 470 375 q 431 375 416 368 l 416 368 q 517 285 517 169 l 517 169 q 517 100 480 48 l 480 48 q 439 -9 374 -9 l 374 -9 q 322 -9 282 42 q 242 92 242 164 l 242 164 q 242 218 271 274 l 271 274 q 299 326 340 358 l 340 358 q 319 369 275 369 l 275 369 q 215 369 166 318 l 166 318 q 114 266 114 198 l 114 198 q 114 74 203 7 l 203 7 l 172 -9 q 72 72 72 211 l 72 211 q 72 297 130 359 q 187 421 275 421 l 275 421 q 334 421 383 393 l 383 393 q 438 421 499 421 l 499 421 q 597 421 648 336 l 648 336 q 662 370 702 396 q 741 421 784 421 l 784 421 q 846 421 883 393 l 883 393 q 938 421 999 421 l 999 421 q 1102 421 1168 345 l 1168 345 q 1227 277 1227 193 l 1227 193 q 1227 143 1197 89 q 1166 35 1112 -9 l 1112 -9 l 1066 7 q 1149 90 1149 181 l 1149 181 q 1149 265 1095 323 q 1040 381 970 381 l 970 381 q 927 381 914 371 l 914 371 q 1017 284 1017 169 l 1017 169 q 1017 100 980 48 l 980 48 q 939 -9 874 -9 l 874 -9 q 822 -9 782 42 q 742 92 742 164 l 742 164 q 742 218 771 274 l 771 274 q 799 326 840 358 l 840 358 q 822 369 784 369 l 784 369 q 733 369 702 344 l 702 344 q 667 316 667 260 l 667 260 l 667 0 z m 772 163 l 772 163 q 772 112 803 78 l 803 78 q 829 49 861 49 l 861 49 q 899 49 924 85 q 949 120 949 170 l 949 170 q 949 272 867 343 l 867 343 q 772 267 772 163 z m 272 163 l 272 163 q 272 112 303 78 l 303 78 q 329 49 361 49 l 361 49 q 399 49 424 85 q 449 120 449 170 l 449 170 q 449 272 367 343 l 367 343 q 272 267 272 163 z"},"K":{"ha":969,"x_min":72,"x_max":965,"o":"m 253 363 l 253 363 q 201 363 160 319 l 160 319 q 114 271 114 198 l 114 198 q 114 94 224 15 l 224 15 l 198 -9 q 143 35 109 91 l 109 91 q 72 152 72 207 l 72 207 q 72 307 135 368 l 135 368 q 188 421 254 421 l 254 421 q 350 421 388 348 l 388 348 q 408 381 443 401 q 478 421 515 421 l 515 421 q 615 421 659 353 l 659 353 q 676 384 711 403 q 745 421 785 421 l 785 421 q 859 421 912 359 q 965 297 965 207 l 965 207 q 965 95 830 -9 l 830 -9 l 789 10 q 887 111 887 205 l 887 205 q 887 287 843 335 l 843 335 q 806 375 765 375 l 765 375 q 730 375 705 355 l 705 355 q 677 333 677 299 l 677 299 l 677 0 l 599 0 l 599 259 q 599 309 567 339 q 535 369 492 369 l 492 369 q 459 369 434 353 l 434 353 q 405 334 405 299 l 405 299 l 405 0 l 327 0 l 327 259 q 327 308 304 337 l 304 337 q 283 363 253 363 z"},"L":{"ha":980,"x_min":72,"x_max":976,"o":"m 405 299 l 405 299 l 405 0 l 327 0 l 327 259 q 327 308 304 337 l 304 337 q 283 363 253 363 l 253 363 q 201 363 160 319 l 160 319 q 114 271 114 198 l 114 198 q 114 94 224 15 l 224 15 l 198 -9 q 143 35 109 91 l 109 91 q 72 152 72 207 l 72 207 q 72 307 135 368 l 135 368 q 188 421 254 421 l 254 421 q 349 421 387 353 l 387 353 q 434 421 524 421 l 524 421 q 556 421 626 393 l 626 393 q 681 421 742 421 l 742 421 q 842 421 909 355 q 976 289 976 193 l 976 193 q 976 143 946 89 q 915 35 861 -9 l 861 -9 l 815 7 q 898 90 898 181 l 898 181 q 898 264 843 323 q 788 381 713 381 l 713 381 q 676 381 657 371 l 657 371 q 760 284 760 169 l 760 169 q 760 100 723 48 l 723 48 q 682 -9 617 -9 l 617 -9 q 565 -9 525 42 q 485 92 485 164 l 485 164 q 485 218 514 274 l 514 274 q 542 326 583 358 l 583 358 q 558 375 511 375 l 511 375 q 466 375 436 354 q 405 332 405 299 z m 515 163 l 515 163 q 515 112 546 78 l 546 78 q 572 49 604 49 l 604 49 q 642 49 667 85 q 692 120 692 170 l 692 170 q 692 272 610 343 l 610 343 q 515 267 515 163 z"},"M":{"ha":692,"x_min":72,"x_max":688,"o":"m 361 32 l 608 32 l 600 414 l 678 414 l 688 -293 l 298 -293 l 298 -281 q 353 -244 353 -191 l 353 -191 q 353 -161 332 -138 q 310 -116 275 -116 l 275 -116 q 240 -116 217 -139 q 193 -163 193 -196 l 193 -196 q 193 -234 230 -275 l 230 -275 l 211 -293 q 163 -237 163 -182 l 163 -182 q 163 -137 197 -103 q 230 -70 289 -70 l 289 -70 q 342 -70 375 -105 q 408 -141 408 -188 l 408 -188 q 408 -232 383 -261 l 383 -261 l 613 -261 l 609 0 l 249 0 l 249 7 q 316 49 316 123 l 316 123 q 316 161 292 190 l 292 190 q 265 221 222 221 l 222 221 q 175 221 145 190 q 114 159 114 116 l 114 116 q 114 62 162 14 l 162 14 l 134 -9 q 72 57 72 134 l 72 134 q 72 192 113 233 l 113 233 q 159 279 237 279 l 237 279 q 307 279 352 232 l 352 232 q 394 188 394 126 l 394 126 q 394 71 361 32 l 361 32 z"},"N":{"ha":859,"x_min":84,"x_max":858,"o":"m 858 0 l 84 0 l 84 132 q 84 227 87 251 l 87 251 q 94 316 127 362 l 127 362 q 169 421 280 421 l 280 421 q 379 421 421 374 l 421 374 q 448 354 468 294 l 468 294 l 470 294 q 478 347 520 381 l 520 381 q 570 421 652 421 l 652 421 q 858 421 858 171 l 858 171 l 858 0 z m 656 285 l 656 285 q 656 322 635 346 q 614 369 585 369 l 585 369 q 486 369 486 198 l 486 198 l 486 32 q 656 155 656 285 z m 203 32 l 438 32 l 438 173 q 438 389 286 389 l 286 389 l 286 387 q 352 343 352 270 l 352 270 q 352 215 327 171 l 327 171 q 295 116 203 32 l 203 32 z m 575 32 l 810 32 l 810 173 q 810 389 658 389 l 658 389 l 658 387 q 724 343 724 270 l 724 270 q 724 215 699 171 l 699 171 q 667 116 575 32 l 575 32 z m 114 198 l 114 32 q 284 155 284 285 l 284 285 q 284 322 263 346 q 242 369 213 369 l 213 369 q 114 369 114 198 l 114 198 z"},"O":{"ha":920,"x_min":72,"x_max":914,"o":"m 405 299 l 405 0 l 327 0 l 327 259 q 327 308 304 337 l 304 337 q 283 363 253 363 l 253 363 q 201 363 160 319 l 160 319 q 114 271 114 198 l 114 198 q 114 94 224 15 l 224 15 l 198 -9 q 143 35 109 91 l 109 91 q 72 152 72 207 l 72 207 q 72 307 135 368 l 135 368 q 188 421 254 421 l 254 421 q 349 421 387 353 l 387 353 q 404 384 439 403 q 473 421 513 421 l 513 421 q 587 421 640 359 q 693 297 693 207 l 693 207 q 693 107 605 32 l 605 32 l 836 32 l 828 414 l 906 414 l 914 0 l 524 0 l 524 22 q 571 65 596 122 l 596 122 q 615 167 615 205 l 615 205 q 615 287 571 335 l 571 335 q 534 375 493 375 l 493 375 q 458 375 433 355 l 433 355 q 405 333 405 299 l 405 299 z"},"P":{"ha":651,"x_min":72,"x_max":647,"o":"m 517 -9 l 493 14 q 605 85 605 208 l 605 208 q 605 278 561 324 l 561 324 q 523 363 481 363 l 481 363 q 394 363 394 218 l 394 218 l 394 161 q 394 88 350 40 q 306 -9 248 -9 l 248 -9 q 173 -9 121 56 l 121 56 q 72 116 72 194 l 72 194 q 72 259 111 323 q 149 387 207 421 l 207 421 l 227 397 q 114 316 114 200 l 114 200 q 114 139 151 94 q 188 49 240 49 l 240 49 q 277 49 300 82 l 300 82 q 326 119 326 190 l 326 190 l 326 257 q 326 332 374 378 l 374 378 q 419 421 479 421 l 479 421 q 551 421 599 364 q 647 306 647 221 l 647 221 q 647 154 610 88 q 573 22 517 -9 l 517 -9 z m 293 -14 l 315 -37 q 242 -82 242 -159 l 242 -159 q 242 -198 270 -228 q 297 -258 333 -258 l 333 -258 q 392 -258 392 -159 l 392 -159 q 392 -83 417 -48 q 442 -14 501 -14 l 501 -14 q 557 -14 597 -56 q 637 -98 637 -161 l 637 -161 q 637 -233 559 -308 l 559 -308 l 537 -289 q 601 -228 601 -161 l 601 -161 q 601 -114 573 -82 l 573 -82 q 548 -54 515 -54 l 515 -54 q 447 -54 447 -188 l 447 -188 q 447 -241 415 -272 q 382 -304 341 -304 l 341 -304 q 292 -304 251 -265 l 251 -265 q 206 -222 206 -165 l 206 -165 q 206 -127 227 -87 l 227 -87 q 251 -42 293 -14 l 293 -14 z"},"Q":{"ha":389,"x_min":107,"x_max":376,"o":"m 276 387 l 255 396 q 340 444 340 493 l 340 493 q 340 512 331 519 l 331 519 q 319 509 302 509 l 302 509 q 285 509 271 522 q 256 534 256 552 l 256 552 q 256 571 271 586 q 285 601 304 601 l 304 601 q 335 601 356 576 q 376 551 376 508 l 376 508 q 376 468 341 431 l 341 431 q 311 398 276 387 l 276 387 z m 128 387 l 107 396 q 192 444 192 493 l 192 493 q 192 512 183 519 l 183 519 q 171 509 154 509 l 154 509 q 137 509 123 522 q 108 534 108 552 l 108 552 q 108 571 123 586 q 137 601 156 601 l 156 601 q 187 601 208 576 q 228 551 228 508 l 228 508 q 228 468 193 431 l 193 431 q 163 398 128 387 l 128 387 z"},"R":{"ha":389,"x_min":100,"x_max":369,"o":"m 200 601 l 221 592 q 136 544 136 495 l 136 495 q 136 476 145 469 l 145 469 q 157 479 174 479 l 174 479 q 191 479 206 467 q 220 454 220 436 l 220 436 q 220 417 206 402 q 191 387 172 387 l 172 387 q 141 387 121 412 q 100 437 100 480 l 100 480 q 100 520 135 557 l 135 557 q 165 590 200 601 l 200 601 z m 348 601 l 369 592 q 284 544 284 495 l 284 495 q 284 476 293 469 l 293 469 q 305 479 322 479 l 322 479 q 339 479 354 467 q 368 454 368 436 l 368 436 q 368 417 354 402 q 339 387 320 387 l 320 387 q 289 387 269 412 q 248 437 248 480 l 248 480 q 248 520 283 557 l 283 557 q 313 590 348 601 l 348 601 z"},"S":{"ha":159,"x_min":65,"x_max":157,"o":"m 157 531 l 157 531 q 157 512 144 499 q 130 485 111 485 l 111 485 q 92 485 79 499 q 65 512 65 531 l 65 531 q 65 550 79 564 q 92 577 111 577 l 111 577 q 130 577 144 564 q 157 550 157 531 z"},"T":{"ha":928,"x_min":72,"x_max":924,"o":"m 690 -174 l 690 -128 q 690 -89 667 -66 l 667 -66 q 647 -46 619 -46 l 619 -46 q 562 -46 562 -98 l 562 -98 l 562 -296 l 494 -296 l 494 -120 q 494 -96 479 -76 q 464 -56 438 -56 l 438 -56 q 398 -56 374 -87 q 349 -118 349 -155 l 349 -155 q 349 -232 424 -289 l 424 -289 l 403 -310 q 313 -239 313 -156 l 313 -156 q 313 -96 356 -55 l 356 -55 q 396 -16 447 -16 l 447 -16 q 508 -16 539 -61 l 539 -61 q 569 -14 634 -14 l 634 -14 q 685 -14 716 -47 q 746 -81 745 -141 l 745 -141 q 744 -216 760 -242 l 760 -242 q 773 -262 807 -262 l 807 -262 q 839 -262 864 -232 q 888 -202 888 -162 l 888 -162 q 888 -89 818 -37 l 818 -37 l 834 -19 q 876 -43 900 -85 q 924 -127 924 -168 l 924 -168 q 924 -219 889 -259 l 889 -259 q 851 -302 797 -302 l 797 -302 q 690 -302 690 -174 l 690 -174 z m 405 0 l 327 0 l 327 259 q 327 308 304 337 l 304 337 q 283 363 253 363 l 253 363 q 201 363 160 319 l 160 319 q 114 271 114 198 l 114 198 q 114 94 224 15 l 224 15 l 198 -9 q 143 35 109 91 l 109 91 q 72 152 72 207 l 72 207 q 72 307 135 368 l 135 368 q 188 421 254 421 l 254 421 q 349 421 387 353 l 387 353 q 404 384 439 403 q 473 421 513 421 l 513 421 q 574 421 618 382 l 618 382 q 671 334 671 249 l 671 249 l 671 163 q 671 112 692 81 q 712 49 743 49 l 743 49 q 797 49 840 98 q 882 147 882 211 l 882 211 q 882 259 849 314 q 816 369 768 399 l 768 399 l 793 421 q 855 373 890 310 q 924 247 924 186 l 924 186 q 924 115 874 56 l 874 56 q 818 -9 733 -9 l 733 -9 q 679 -9 643 32 l 643 32 q 603 77 603 154 l 603 154 l 603 240 q 603 375 493 375 l 493 375 q 458 375 433 355 l 433 355 q 405 333 405 299 l 405 299 l 405 0 z"},"U":{"ha":1078,"x_min":72,"x_max":1074,"o":"m 1066 -82 l 1066 -160 l 183 -160 q 82 -160 82 -60 l 82 -60 q 82 32 184 32 l 184 32 l 332 32 q 458 32 458 113 l 458 113 q 458 193 351 193 l 351 193 l 351 225 q 376 225 402 244 l 402 244 q 433 266 433 299 l 433 299 q 433 375 293 375 l 293 375 q 138 375 112 269 l 112 269 l 116 266 q 151 318 205 318 l 205 318 q 251 318 280 282 q 309 245 309 199 l 309 199 q 309 149 276 112 q 242 75 198 75 l 198 75 q 143 75 108 118 q 72 160 72 226 l 72 226 q 72 316 134 369 q 196 421 298 421 l 298 421 q 400 421 459 386 l 459 386 q 511 356 511 313 l 511 313 q 511 245 450 213 l 450 213 q 536 193 536 106 l 536 106 q 536 0 382 0 l 382 0 l 194 0 q 130 0 130 -48 l 130 -48 q 130 -82 174 -82 l 174 -82 l 621 -82 q 620 -75 620 -60 l 620 -60 q 620 32 722 32 l 722 32 l 870 32 q 996 32 996 113 l 996 113 q 996 193 889 193 l 889 193 l 889 225 q 914 225 940 244 l 940 244 q 971 266 971 299 l 971 299 q 971 375 831 375 l 831 375 q 676 375 650 269 l 650 269 l 654 266 q 689 318 743 318 l 743 318 q 789 318 818 282 q 847 245 847 199 l 847 199 q 847 149 814 112 q 780 75 736 75 l 736 75 q 681 75 646 118 q 610 160 610 226 l 610 226 q 610 316 672 369 q 734 421 836 421 l 836 421 q 938 421 997 386 l 997 386 q 1049 356 1049 313 l 1049 313 q 1049 245 988 213 l 988 213 q 1074 193 1074 106 l 1074 106 q 1074 0 920 0 l 920 0 l 732 0 q 668 0 668 -48 l 668 -48 q 668 -82 712 -82 l 712 -82 l 1066 -82 z m 672 203 l 672 203 q 672 166 688 144 q 704 121 730 121 l 730 121 q 752 121 769 144 q 785 167 785 202 l 785 202 q 785 234 768 256 q 751 278 727 278 l 727 278 q 704 278 688 257 q 672 236 672 203 z m 134 203 l 134 203 q 134 166 150 144 q 166 121 192 121 l 192 121 q 214 121 231 144 q 247 167 247 202 l 247 202 q 247 234 230 256 q 213 278 189 278 l 189 278 q 166 278 150 257 q 134 236 134 203 z"},"V":{"ha":502,"x_min":72,"x_max":498,"o":"m 343 348 l 343 348 q 325 363 284 363 l 284 363 q 214 363 164 307 q 114 251 114 182 l 114 182 q 114 77 205 6 l 205 6 l 184 -15 q 127 27 96 95 l 96 95 q 72 148 72 194 l 72 194 q 72 289 133 355 q 193 421 287 421 l 287 421 q 342 421 382 394 l 382 394 q 403 416 403 447 l 403 447 q 403 473 384 495 l 384 495 q 362 521 324 521 l 324 521 q 281 521 245 481 l 245 481 l 222 495 q 240 530 276 555 q 311 579 352 579 l 352 579 q 399 579 425 551 q 451 523 451 475 l 451 475 q 451 429 410 378 l 410 378 q 498 298 498 189 l 498 189 q 498 105 459 48 q 420 -9 360 -9 l 360 -9 q 312 -9 275 35 q 238 78 238 140 l 238 140 q 238 263 343 348 z m 274 156 l 274 156 q 274 114 298 82 q 321 49 348 49 l 348 49 q 380 49 403 85 q 426 120 426 176 l 426 176 q 426 223 408 269 l 408 269 q 391 312 370 328 l 370 328 q 274 250 274 156 z"},"W":{"ha":814,"x_min":72,"x_max":810,"o":"m 374 -9 l 374 -9 q 322 -9 282 42 q 242 92 242 164 l 242 164 q 242 218 271 274 l 271 274 q 299 326 340 358 l 340 358 q 319 369 275 369 l 275 369 q 215 369 166 318 l 166 318 q 114 266 114 198 l 114 198 q 114 74 203 7 l 203 7 l 172 -9 q 72 72 72 211 l 72 211 q 72 297 130 359 q 187 421 275 421 l 275 421 q 334 421 384 392 l 384 392 q 437 421 531 421 l 531 421 q 633 421 692 374 l 692 374 q 720 410 720 447 l 720 447 q 720 473 701 495 l 701 495 q 679 521 641 521 l 641 521 q 598 521 562 481 l 562 481 l 539 495 q 557 530 593 555 q 628 579 669 579 l 669 579 q 716 579 742 551 q 768 523 768 475 l 768 475 q 768 429 715 355 l 715 355 q 755 322 783 266 q 810 209 810 161 l 810 161 q 810 95 772 43 q 733 -9 682 -9 l 682 -9 q 619 -9 585 37 l 585 37 q 556 75 556 124 l 556 124 q 556 237 655 334 l 655 334 q 602 389 515 389 l 515 389 q 446 389 412 372 l 412 372 q 517 285 517 169 l 517 169 q 517 100 480 48 l 480 48 q 439 -9 374 -9 z m 660 49 l 660 49 q 689 47 714 79 q 738 110 738 157 l 738 157 q 738 197 719 245 q 699 292 674 312 l 674 312 q 641 282 617 233 q 592 184 592 144 l 592 144 q 592 102 613 75 q 633 47 660 49 z m 272 163 l 272 163 q 272 112 303 78 l 303 78 q 329 49 361 49 l 361 49 q 399 49 424 85 q 449 120 449 170 l 449 170 q 449 272 367 343 l 367 343 q 272 267 272 163 z"},"X":{"ha":733,"x_min":72,"x_max":729,"o":"m 254 421 l 254 421 q 350 421 387 351 l 387 351 q 433 421 513 421 l 513 421 q 574 421 616 399 l 616 399 q 629 419 629 447 l 629 447 q 629 473 610 495 l 610 495 q 588 521 550 521 l 550 521 q 507 521 471 481 l 471 481 l 448 495 q 466 530 502 555 q 537 579 578 579 l 578 579 q 625 579 651 551 q 677 523 677 475 l 677 475 q 677 431 641 382 l 641 382 q 680 353 705 297 q 729 240 729 183 l 729 183 q 729 100 687 46 q 644 -9 590 -9 l 590 -9 q 544 -9 508 31 q 472 70 472 127 l 472 127 q 472 249 580 350 l 580 350 q 573 360 546 368 q 519 375 493 375 l 493 375 q 457 375 433 357 l 433 357 q 405 336 405 302 l 405 302 l 405 0 l 327 0 l 327 259 q 327 308 304 337 l 304 337 q 283 363 253 363 l 253 363 q 201 363 160 319 l 160 319 q 114 271 114 198 l 114 198 q 114 94 224 15 l 224 15 l 198 -9 q 143 35 109 91 l 109 91 q 72 152 72 207 l 72 207 q 72 307 135 368 l 135 368 q 188 421 254 421 z m 508 146 l 508 146 q 508 104 528 77 q 548 49 577 49 l 577 49 q 611 49 634 86 q 657 122 657 178 l 657 178 q 657 276 605 331 l 605 331 q 566 300 537 246 q 508 191 508 146 z"},"Y":{"ha":1072,"x_min":72,"x_max":1068,"o":"m 315 112 l 315 112 q 315 56 285 24 q 254 -9 206 -9 l 206 -9 q 140 -9 104 46 l 104 46 q 72 93 72 164 l 72 164 q 72 273 136 345 l 136 345 q 203 421 311 421 l 311 421 q 412 421 455 348 l 455 348 q 500 421 582 421 l 582 421 q 696 421 726 351 l 726 351 q 772 421 852 421 l 852 421 q 913 421 955 399 l 955 399 q 968 419 968 447 l 968 447 q 968 473 949 495 l 949 495 q 927 521 889 521 l 889 521 q 846 521 810 481 l 810 481 l 787 495 q 805 530 841 555 q 876 579 917 579 l 917 579 q 964 579 990 551 q 1016 523 1016 475 l 1016 475 q 1016 431 980 382 l 980 382 q 1019 353 1044 297 q 1068 240 1068 183 l 1068 183 q 1068 100 1026 46 q 983 -9 929 -9 l 929 -9 q 883 -9 847 31 q 811 70 811 127 l 811 127 q 811 249 919 350 l 919 350 q 912 360 885 368 q 858 375 832 375 l 832 375 q 796 375 772 357 l 772 357 q 744 336 744 302 l 744 302 l 744 0 l 666 0 l 666 260 q 666 310 634 340 q 602 370 559 370 l 559 370 q 521 370 497 350 q 472 330 472 302 l 472 302 l 472 0 l 394 0 l 394 282 q 394 317 361 343 q 328 369 278 369 l 278 369 q 202 369 157 318 q 111 266 102 181 l 102 181 l 105 178 q 128 215 146 229 l 146 229 q 168 246 204 246 l 204 246 q 250 246 283 204 q 315 162 315 112 z m 118 124 l 118 124 q 118 95 139 69 q 159 43 186 43 l 186 43 q 217 43 236 69 l 236 69 q 253 92 253 118 l 253 118 q 253 151 235 176 q 217 200 188 200 l 188 200 q 157 200 138 179 q 118 157 118 124 z m 944 331 l 944 331 q 905 300 876 246 q 847 191 847 146 l 847 146 q 847 104 867 77 q 887 49 916 49 l 916 49 q 950 49 973 86 q 996 122 996 178 l 996 178 q 996 276 944 331 z"},"Z":{"ha":738,"x_min":72,"x_max":734,"o":"m 479 481 l 456 495 q 474 530 510 555 q 545 579 586 579 l 586 579 q 633 579 659 551 q 685 523 685 475 l 685 475 q 685 433 646 374 l 646 374 q 685 351 710 297 q 734 242 734 189 l 734 189 q 734 105 695 48 q 656 -9 596 -9 l 596 -9 q 548 -9 511 35 q 474 78 474 140 l 474 140 q 474 264 587 354 l 587 354 q 556 381 505 381 l 505 381 q 453 381 424 339 q 394 296 394 221 l 394 221 l 394 161 q 394 88 350 40 q 306 -9 248 -9 l 248 -9 q 173 -9 121 56 l 121 56 q 72 116 72 194 l 72 194 q 72 259 111 323 q 149 387 207 421 l 207 421 l 227 397 q 114 316 114 200 l 114 200 q 114 139 151 94 q 188 49 240 49 l 240 49 q 277 49 300 82 l 300 82 q 326 119 326 190 l 326 190 l 326 257 q 326 333 376 378 l 376 378 q 423 421 493 421 l 493 421 q 567 421 619 389 l 619 389 q 637 415 637 447 l 637 447 q 637 473 618 495 l 618 495 q 596 521 558 521 l 558 521 q 515 521 479 481 l 479 481 z m 510 156 l 510 156 q 510 114 534 82 q 557 49 584 49 l 584 49 q 616 49 639 85 q 662 120 662 176 l 662 176 q 662 283 611 332 l 611 332 q 510 250 510 156 z"},"[":{"ha":323,"x_min":117,"x_max":304,"o":"m 117 595 l 304 595 l 304 563 l 172 563 l 172 -116 l 304 -116 l 304 -148 l 117 -148 l 117 595 z"},"\\":{"ha":824,"x_min":61,"x_max":823,"o":"m 338 59 l 338 59 q 399 59 455 115 l 455 115 q 481 148 508 181 l 508 181 q 454 371 308 371 l 308 371 q 210 371 141 314 l 141 314 q 111 285 81 256 l 81 256 q 78 257 61 282 l 61 282 q 109 346 137 370 l 137 370 q 203 423 294 423 l 294 423 q 411 423 482 346 l 482 346 q 529 294 542 231 l 542 231 q 562 260 595 286 l 595 286 q 639 322 677 322 l 677 322 q 755 322 792 275 l 792 275 q 823 236 823 175 l 823 175 q 823 77 755 33 l 755 33 q 714 8 671 8 l 671 8 q 573 8 526 127 l 526 127 q 505 86 464 51 l 464 51 q 403 0 333 0 l 333 0 q 259 0 209 58 l 209 58 q 156 119 155 222 l 155 222 q 155 222 189 222 l 189 222 q 195 151 244 103 l 244 103 q 288 59 338 59 z m 657 75 l 657 75 q 700 75 729 104 q 758 133 758 170 l 758 170 q 758 218 733 243 q 707 268 667 268 l 667 268 q 617 268 561 181 l 561 181 q 564 137 594 106 q 623 75 657 75 z"},"]":{"ha":323,"x_min":87,"x_max":274,"o":"m 87 595 l 274 595 l 274 -148 l 87 -148 l 87 -116 l 219 -116 l 219 563 l 87 563 l 87 595 z"},"^":{"ha":10,"x_min":-492,"x_max":-400,"o":"m -400 619 l -400 619 q -400 600 -413 587 q -427 573 -446 573 l -446 573 q -465 573 -478 587 q -492 600 -492 619 l -492 619 q -492 638 -478 652 q -465 665 -446 665 l -446 665 q -427 665 -413 652 q -400 638 -400 619 z"},"_":{"ha":352,"x_min":68,"x_max":352,"o":"m 68 232 l 308 232 l 352 186 l 112 186 l 68 232 z"},"`":{"ha":648,"x_min":84,"x_max":642,"o":"m 364 -170 l 364 -170 q 215 -170 143 -125 l 143 -125 q 84 -89 84 -30 l 84 -30 q 84 59 196 80 l 196 80 l 196 82 q 84 118 84 252 l 84 252 q 84 320 122 371 q 159 421 221 421 l 221 421 q 269 421 300 388 q 330 354 330 306 l 330 306 q 330 249 299 217 q 267 184 223 184 l 223 184 q 163 184 128 242 l 128 242 l 126 242 q 126 169 175 134 l 175 134 q 231 95 364 95 l 364 95 q 496 95 551 134 l 551 134 q 600 169 600 242 l 600 242 l 598 242 q 563 184 503 184 l 503 184 q 459 184 429 215 l 429 215 q 396 249 396 306 l 396 306 q 396 354 427 388 q 457 421 505 421 l 505 421 q 567 421 606 369 l 606 369 q 642 320 642 252 l 642 252 q 642 118 530 82 l 530 82 l 530 80 q 642 59 642 -30 l 642 -30 q 642 -89 584 -125 l 584 -125 q 512 -170 364 -170 z m 152 303 l 152 303 q 152 269 169 247 q 186 224 210 224 l 210 224 q 235 224 252 246 q 268 267 268 306 l 268 306 q 268 338 253 360 q 237 381 214 381 l 214 381 q 190 381 171 358 q 152 335 152 303 z m 458 306 l 458 306 q 458 267 475 246 q 491 224 516 224 l 516 224 q 540 224 557 247 q 574 269 574 303 l 574 303 q 574 335 555 358 q 536 381 512 381 l 512 381 q 489 381 474 360 q 458 338 458 306 z m 364 63 l 364 63 q 265 63 211 36 q 156 9 156 -31 l 156 -31 q 156 -72 209 -100 l 209 -100 q 266 -130 364 -130 l 364 -130 q 461 -130 518 -100 l 518 -100 q 570 -72 570 -31 l 570 -31 q 570 9 518 35 l 518 35 q 461 63 364 63 z"},"a":{"ha":730,"x_min":72,"x_max":730,"o":"m 619 -4 l 619 -4 q 667 -15 697 -47 l 697 -47 q 730 -84 730 -139 l 730 -139 q 730 -225 639 -287 l 639 -287 l 617 -258 q 675 -206 675 -158 l 675 -158 q 675 -110 641 -80 l 641 -80 q 612 -53 574 -53 l 574 -53 q 526 -53 496 -80 q 466 -108 466 -148 l 466 -148 q 466 -218 532 -267 l 532 -267 l 518 -289 q 430 -231 430 -150 l 430 -150 q 430 -102 455 -64 l 455 -64 q 489 -12 556 -3 l 556 -3 q 520 10 496 46 q 472 81 472 127 l 472 127 q 472 249 580 350 l 580 350 q 573 360 546 368 q 519 375 493 375 l 493 375 q 457 375 433 357 l 433 357 q 405 336 405 302 l 405 302 l 405 0 l 327 0 l 327 259 q 327 308 304 337 l 304 337 q 283 363 253 363 l 253 363 q 201 363 160 319 l 160 319 q 114 271 114 198 l 114 198 q 114 94 224 15 l 224 15 l 198 -9 q 143 35 109 91 l 109 91 q 72 152 72 207 l 72 207 q 72 307 135 368 l 135 368 q 188 421 254 421 l 254 421 q 350 421 387 351 l 387 351 q 433 421 513 421 l 513 421 q 574 421 616 399 l 616 399 q 629 419 629 447 l 629 447 q 629 473 610 495 l 610 495 q 588 521 550 521 l 550 521 q 507 521 471 481 l 471 481 l 448 495 q 466 530 502 555 q 537 579 578 579 l 578 579 q 625 579 651 551 q 677 523 677 475 l 677 475 q 677 431 641 382 l 641 382 q 680 353 705 297 q 729 240 729 183 l 729 183 q 729 112 696 59 l 696 59 q 665 10 619 -4 z m 508 146 l 508 146 q 508 104 528 77 q 548 49 577 49 l 577 49 q 611 49 634 86 q 657 122 657 178 l 657 178 q 657 276 605 331 l 605 331 q 566 300 537 246 q 508 191 508 146 z"},"b":{"ha":265,"x_min":83,"x_max":259,"o":"m 83 0 l 83 32 l 181 32 l 173 414 l 251 414 l 259 0 l 83 0 z"},"c":{"ha":320,"x_min":-26,"x_max":309,"o":"m 101 414 l 179 414 l 179 269 q 179 166 239 81 l 239 81 q 309 -18 309 -79 l 309 -79 q 309 -142 258 -184 q 207 -226 122 -226 l 122 -226 q 54 -226 14 -198 q -26 -171 -26 -126 l -26 -126 q -26 -100 -9 -80 q 7 -61 34 -61 l 34 -61 q 42 -61 57 -63 q 71 -66 76 -66 l 76 -66 q 98 -66 105 -54 l 105 -54 q 111 -45 111 -19 l 111 -19 l 164 -19 l 166 -39 q 166 -98 92 -98 l 92 -98 q 60 -98 48 -108 q 36 -119 36 -146 l 36 -146 q 36 -166 58 -180 q 80 -194 111 -194 l 111 -194 q 174 -194 209 -158 l 209 -158 q 241 -125 241 -70 l 241 -70 q 241 -34 219 3 l 219 3 q 208 21 172 65 l 172 65 q 101 152 101 322 l 101 322 l 101 414 z"},"d":{"ha":185,"x_min":76,"x_max":296,"o":"m 296 -28 l 285 -109 q 250 -122 218 -122 l 218 -122 q 148 -122 114 -83 l 114 -83 q 76 -38 76 67 l 76 67 q 76 141 96 262 l 96 262 q 113 364 128 414 l 128 414 l 159 414 q 106 222 106 83 l 106 83 q 106 -44 220 -44 l 220 -44 q 257 -44 296 -28 l 296 -28 z"},"e":{"ha":750,"x_min":72,"x_max":747,"o":"m 747 238 l 747 206 l 699 206 q 704 116 668 54 q 632 -9 574 -9 l 574 -9 q 531 -9 499 30 q 467 69 467 118 l 467 118 q 467 247 623 237 l 623 237 q 615 290 576 333 q 537 375 493 375 l 493 375 q 458 375 433 355 l 433 355 q 405 333 405 299 l 405 299 l 405 0 l 327 0 l 327 259 q 327 308 304 337 l 304 337 q 283 363 253 363 l 253 363 q 201 363 160 319 l 160 319 q 114 271 114 198 l 114 198 q 114 94 224 15 l 224 15 l 198 -9 q 143 35 109 91 l 109 91 q 72 152 72 207 l 72 207 q 72 307 135 368 l 135 368 q 188 421 254 421 l 254 421 q 349 421 387 353 l 387 353 q 404 384 439 403 q 473 421 513 421 l 513 421 q 581 421 635 363 l 635 363 q 685 310 696 238 l 696 238 l 747 238 z m 564 49 l 564 49 q 627 49 627 181 l 627 181 l 627 206 q 562 211 533 192 q 503 172 503 124 l 503 124 q 503 92 520 71 q 537 49 564 49 z"},"f":{"ha":1225,"x_min":70,"x_max":1219,"o":"m 540 239 l 540 239 l 602 239 q 655 239 690 209 l 690 209 q 729 175 729 111 l 729 111 q 729 62 696 32 l 696 32 l 876 32 l 876 167 q 817 167 772 209 q 727 251 727 308 l 727 308 q 727 353 762 387 q 797 421 846 421 l 846 421 q 954 421 954 287 l 954 287 l 954 202 q 1016 219 1091 288 q 1165 356 1183 414 l 1183 414 l 1211 414 l 1219 0 l 584 0 l 584 7 q 612 18 635 49 l 635 49 q 661 84 661 122 l 661 122 q 661 207 580 207 l 580 207 l 543 207 q 545 101 497 42 l 497 42 q 457 -9 399 -9 l 399 -9 q 323 -9 285 66 l 285 66 q 256 -9 193 -9 l 193 -9 q 149 -9 113 22 l 113 22 q 70 60 70 126 l 70 126 q 70 179 103 209 q 136 239 198 239 l 198 239 l 262 239 q 262 313 296 365 l 296 365 q 333 421 394 421 l 394 421 q 455 421 495 370 l 495 370 q 532 321 540 239 z m 475 207 l 292 207 q 286 123 315 77 l 315 77 q 339 37 379 37 l 379 37 q 426 37 453 85 q 479 132 475 207 l 475 207 z m 292 239 l 475 239 q 472 293 447 331 q 421 369 381 369 l 381 369 q 345 369 320 337 l 320 337 q 292 302 292 239 l 292 239 z m 262 207 l 230 207 q 138 207 138 131 l 138 131 q 138 95 157 66 q 175 37 203 37 l 203 37 q 231 37 247 62 q 262 87 262 127 l 262 127 l 262 207 z m 954 173 l 954 32 l 1140 32 l 1134 293 q 1102 254 1047 218 q 991 181 954 173 l 954 173 z m 876 199 l 876 311 q 876 369 824 369 l 824 369 q 804 369 790 350 q 775 330 775 301 l 775 301 q 775 264 802 235 l 802 235 q 831 203 876 199 l 876 199 z"},"g":{"ha":454,"x_min":72,"x_max":450,"o":"m 134 0 l 99 -9 q 72 101 72 169 l 72 169 q 72 293 133 360 l 133 360 q 187 421 275 421 l 275 421 q 335 421 380 387 q 425 353 425 313 l 425 313 q 425 245 364 213 l 364 213 q 402 204 426 178 q 450 152 450 120 l 450 120 q 450 29 375 1 l 375 1 l 375 -1 q 450 -16 450 -81 l 450 -81 q 450 -126 404 -155 l 404 -155 q 362 -182 307 -182 l 307 -182 q 255 -182 184 -157 l 184 -157 l 170 -98 q 187 -109 223 -119 q 258 -130 284 -130 l 284 -130 q 317 -130 345 -114 q 372 -98 372 -72 l 372 -72 q 372 -40 347 -20 q 322 0 275 0 l 275 0 l 200 0 l 200 32 l 272 32 q 318 32 345 54 q 372 75 372 113 l 372 113 q 372 193 272 193 l 272 193 l 214 193 l 214 225 q 274 225 311 245 q 347 264 347 301 l 347 301 q 347 331 321 353 q 294 375 252 375 l 252 375 q 184 375 146 318 q 108 261 108 164 l 108 164 q 108 98 134 0 l 134 0 z"},"h":{"ha":408,"x_min":72,"x_max":405,"o":"m 242 363 l 242 363 q 192 363 155 319 l 155 319 q 114 271 114 198 l 114 198 q 114 84 219 13 l 219 13 l 198 -9 q 144 23 110 77 l 110 77 q 72 138 72 207 l 72 207 q 72 301 122 361 q 171 421 247 421 l 247 421 q 310 421 355 391 l 355 391 q 405 358 405 304 l 405 304 l 405 0 l 327 0 l 327 259 q 327 363 242 363 z"},"i":{"ha":851,"x_min":72,"x_max":847,"o":"m 229 214 l 229 246 l 276 246 q 341 246 341 314 l 341 314 q 341 338 320 357 q 299 375 264 375 l 264 375 q 193 375 151 318 q 108 260 108 164 l 108 164 q 108 93 135 0 l 135 0 l 98 -9 q 72 97 72 169 l 72 169 q 72 292 139 360 l 139 360 q 198 421 289 421 l 289 421 q 347 421 385 389 l 385 389 q 419 359 419 323 l 419 323 q 419 256 360 233 l 360 233 l 358 231 q 388 225 411 202 q 433 178 433 148 l 433 148 q 433 121 411 104 q 388 86 358 86 l 358 86 q 315 86 305 81 q 294 76 294 60 l 294 60 q 294 25 382 25 l 382 25 q 439 25 474 50 q 509 74 509 110 l 509 110 l 509 414 l 587 414 l 587 153 q 587 106 609 78 q 631 49 666 49 l 666 49 q 720 49 763 98 q 805 147 805 211 l 805 211 q 805 259 772 314 q 739 369 691 399 l 691 399 l 716 421 q 778 373 813 310 q 847 247 847 186 l 847 186 q 847 115 797 56 l 797 56 q 741 -9 656 -9 l 656 -9 q 557 -9 527 61 l 527 61 q 471 -21 357 -21 l 357 -21 q 216 -21 216 62 l 216 62 q 216 113 277 118 l 277 118 q 355 124 355 163 l 355 163 q 355 181 339 196 l 339 196 q 320 214 290 214 l 290 214 l 229 214 z"},"j":{"ha":1170,"x_min":72,"x_max":1164,"o":"m 1164 0 l 560 0 l 560 12 q 593 33 616 82 q 638 130 638 188 l 638 188 q 638 266 584 325 l 584 325 q 532 381 470 381 l 470 381 q 432 381 414 371 l 414 371 q 517 284 517 169 l 517 169 q 517 100 480 48 l 480 48 q 439 -9 374 -9 l 374 -9 q 322 -9 282 42 q 242 92 242 164 l 242 164 q 242 218 271 274 l 271 274 q 299 326 340 358 l 340 358 q 319 369 275 369 l 275 369 q 215 369 166 318 l 166 318 q 114 266 114 198 l 114 198 q 114 74 203 7 l 203 7 l 172 -9 q 72 72 72 211 l 72 211 q 72 297 130 359 q 187 421 275 421 l 275 421 q 334 421 383 393 l 383 393 q 432 421 499 421 l 499 421 q 592 421 653 353 l 653 353 q 710 290 710 208 l 710 208 q 710 157 697 121 q 684 84 648 32 l 648 32 l 783 32 l 783 244 q 783 325 835 373 q 886 421 974 421 l 974 421 q 1060 421 1112 367 q 1164 312 1164 221 l 1164 221 l 1164 0 z m 1134 32 l 1134 182 q 1134 369 992 369 l 992 369 q 861 369 861 226 l 861 226 l 861 32 l 1134 32 z m 272 163 l 272 163 q 272 112 303 78 l 303 78 q 329 49 361 49 l 361 49 q 399 49 424 85 q 449 120 449 170 l 449 170 q 449 272 367 343 l 367 343 q 272 267 272 163 z"},"k":{"ha":1,"x_min":0,"x_max":0,"o":""},"l":{"ha":648,"x_min":86,"x_max":646,"o":"m 160 0 l 86 0 q 89 33 92 255 l 92 255 q 93 378 90 421 l 90 421 l 245 421 q 306 421 338 390 l 338 390 q 366 363 366 319 l 366 319 q 366 273 332 239 q 297 204 249 204 l 249 204 l 249 202 q 287 180 351 73 l 351 73 q 382 21 410 0 l 410 0 l 324 0 q 217 188 160 193 l 160 193 l 160 0 z m 633 293 l 618 257 l 609 257 q 583 291 543 291 l 543 291 q 487 291 487 238 l 487 238 q 487 216 528 197 l 528 197 q 597 167 605 162 l 605 162 q 646 135 646 91 l 646 91 q 646 52 609 22 q 572 -9 531 -9 l 531 -9 q 492 -9 444 17 l 444 17 l 444 59 l 458 59 q 486 17 530 17 l 530 17 q 556 17 577 34 q 598 51 598 70 l 598 70 q 598 97 557 116 l 557 116 q 482 151 480 152 l 480 152 q 439 180 439 228 l 439 228 q 439 265 470 291 q 500 317 545 317 l 545 317 q 590 317 633 293 l 633 293 z m 160 221 l 211 221 q 294 221 294 310 l 294 310 q 294 341 270 368 q 246 395 211 395 l 211 395 l 160 395 l 160 221 z"},"m":{"ha":1488,"x_min":72,"x_max":1519,"o":"m 904 167 l 904 273 q 904 324 881 352 l 881 352 q 862 375 832 375 l 832 375 q 797 375 772 355 l 772 355 q 744 333 744 299 l 744 299 l 744 0 l 666 0 l 666 259 q 666 309 634 339 q 602 369 559 369 l 559 369 q 522 369 497 350 q 472 330 472 302 l 472 302 l 472 0 l 394 0 l 394 282 q 394 317 361 343 q 328 369 278 369 l 278 369 q 202 369 157 318 q 111 266 102 181 l 102 181 l 105 178 q 128 215 146 229 l 146 229 q 168 246 204 246 l 204 246 q 250 246 283 204 q 315 162 315 112 l 315 112 q 315 56 285 24 q 254 -9 206 -9 l 206 -9 q 140 -9 104 46 l 104 46 q 72 93 72 164 l 72 164 q 72 273 136 345 l 136 345 q 203 421 311 421 l 311 421 q 412 421 455 348 l 455 348 q 500 421 582 421 l 582 421 q 683 421 726 353 l 726 353 q 743 384 778 403 q 812 421 852 421 l 852 421 q 912 421 948 381 q 983 340 983 272 l 983 272 l 983 158 q 983 98 1022 66 l 1022 66 q 1054 39 1098 39 l 1098 39 q 1129 39 1158 60 q 1186 81 1186 112 l 1186 112 l 1186 416 l 1264 416 l 1264 157 q 1264 51 1338 51 l 1338 51 q 1389 51 1431 96 l 1431 96 q 1477 145 1477 218 l 1477 218 q 1477 323 1367 399 l 1367 399 l 1393 423 q 1448 381 1482 325 l 1482 325 q 1519 265 1519 209 l 1519 209 q 1519 107 1469 46 l 1469 46 q 1423 -9 1361 -9 l 1361 -9 q 1311 -9 1266 12 q 1221 32 1204 63 l 1204 63 q 1158 -7 1089 -7 l 1089 -7 q 904 -7 904 167 l 904 167 z m 118 124 l 118 124 q 118 95 139 69 q 159 43 186 43 l 186 43 q 217 43 236 69 l 236 69 q 253 92 253 118 l 253 118 q 253 151 235 176 q 217 200 188 200 l 188 200 q 157 200 138 179 q 118 157 118 124 z"},"n":{"ha":1,"x_min":0,"x_max":0,"o":""},"o":{"ha":950,"x_min":64,"x_max":949,"o":"m 661 0 l 583 0 l 583 299 q 583 333 557 354 q 530 375 495 375 l 495 375 q 385 375 385 240 l 385 240 l 385 154 q 385 77 345 32 l 345 32 q 309 -9 255 -9 l 255 -9 q 170 -9 114 56 l 114 56 q 64 115 64 186 l 64 186 q 64 247 99 310 q 133 373 195 421 l 195 421 l 220 399 q 172 369 139 314 q 106 259 106 211 l 106 211 q 106 147 149 98 q 191 49 245 49 l 245 49 q 276 49 297 81 q 317 112 317 163 l 317 163 l 317 249 q 317 334 370 382 l 370 382 q 414 421 475 421 l 475 421 q 515 421 550 403 q 584 384 601 353 l 601 353 q 639 421 734 421 l 734 421 q 823 421 879 376 l 879 376 q 949 320 949 205 l 949 205 q 949 150 910 90 l 910 90 q 874 36 815 -8 l 815 -8 l 772 11 q 813 50 842 106 q 871 162 871 202 l 871 202 q 871 280 833 331 l 833 331 q 798 378 748 378 l 748 378 q 701 378 678 345 l 678 345 q 661 323 661 297 l 661 297 l 661 0 z"},"p":{"ha":1009,"x_min":72,"x_max":1011,"o":"m 639 342 l 639 342 q 602 375 555 375 l 555 375 q 526 375 503 358 l 503 358 q 472 334 472 290 l 472 290 l 472 0 l 394 0 l 394 282 q 394 317 361 343 q 328 369 278 369 l 278 369 q 202 369 157 318 q 111 266 102 181 l 102 181 l 105 178 q 128 215 146 229 l 146 229 q 168 246 204 246 l 204 246 q 250 246 283 204 q 315 162 315 112 l 315 112 q 315 56 285 24 q 254 -9 206 -9 l 206 -9 q 140 -9 104 46 l 104 46 q 72 93 72 164 l 72 164 q 72 273 136 345 l 136 345 q 203 421 311 421 l 311 421 q 408 421 454 348 l 454 348 q 464 374 491 396 l 491 396 q 522 421 558 421 l 558 421 q 622 421 673 383 l 673 383 q 731 421 805 421 l 805 421 q 1011 421 1011 171 l 1011 171 l 1011 0 l 609 0 l 609 132 q 609 307 639 342 z m 118 124 l 118 124 q 118 95 139 69 q 159 43 186 43 l 186 43 q 217 43 236 69 l 236 69 q 253 92 253 118 l 253 118 q 253 151 235 176 q 217 200 188 200 l 188 200 q 157 200 138 179 q 118 157 118 124 z m 639 198 l 639 32 q 809 155 809 285 l 809 285 q 809 322 788 346 q 767 369 738 369 l 738 369 q 639 369 639 198 l 639 198 z m 728 32 l 963 32 l 963 173 q 963 389 811 389 l 811 389 l 811 387 q 877 343 877 270 l 877 270 q 877 215 852 171 l 852 171 q 820 116 728 32 l 728 32 z"},"q":{"ha":986,"x_min":72,"x_max":987,"o":"m 498 189 l 498 189 q 498 105 459 48 q 420 -9 360 -9 l 360 -9 q 312 -9 275 35 q 238 78 238 140 l 238 140 q 238 199 266 257 q 293 315 338 351 l 338 351 q 323 363 284 363 l 284 363 q 214 363 164 307 q 114 251 114 182 l 114 182 q 114 77 205 6 l 205 6 l 184 -15 q 127 27 96 95 l 96 95 q 72 148 72 194 l 72 194 q 72 289 133 355 q 193 421 287 421 l 287 421 q 341 421 389 392 l 389 392 q 405 401 421 410 l 421 410 q 445 421 477 421 l 477 421 q 529 421 571 392 l 571 392 q 607 368 623 336 l 623 336 q 683 421 805 421 l 805 421 q 878 421 930 383 q 982 345 982 292 l 982 292 q 982 264 961 243 q 940 221 908 221 l 908 221 q 886 221 862 228 q 837 234 825 234 l 825 234 q 802 234 784 221 q 766 208 766 190 l 766 190 q 766 154 837 154 l 837 154 q 852 155 897 157 l 897 157 q 933 158 958 141 l 958 141 q 987 120 987 82 l 987 82 q 987 40 951 13 q 915 -15 850 -15 l 850 -15 q 764 -15 693 1 l 693 1 l 684 50 q 749 31 817 31 l 817 31 q 909 31 909 79 l 909 79 q 909 117 829 117 l 829 117 q 688 117 688 188 l 688 188 q 688 224 712 247 q 735 270 774 270 l 774 270 q 793 270 825 266 q 857 262 867 262 l 867 262 q 882 262 893 275 q 904 287 904 301 l 904 301 q 904 331 873 353 q 841 375 794 375 l 794 375 q 713 375 670 339 l 670 339 q 639 313 639 287 l 639 287 l 639 0 l 561 0 l 561 259 q 561 308 528 340 l 528 340 q 497 369 454 369 l 454 369 q 444 369 422 365 l 422 365 q 498 294 498 189 z m 368 331 l 368 331 q 328 302 301 251 q 274 199 274 156 l 274 156 q 274 114 298 82 q 321 49 348 49 l 348 49 q 380 49 403 85 q 426 120 426 176 l 426 176 q 426 223 407 271 l 407 271 q 390 315 368 331 z"},"r":{"ha":1161,"x_min":72,"x_max":1159,"o":"m 454 369 l 454 369 q 444 369 422 365 l 422 365 q 498 294 498 189 l 498 189 q 498 105 459 48 q 420 -9 360 -9 l 360 -9 q 312 -9 275 35 q 238 78 238 140 l 238 140 q 238 199 266 257 q 293 315 338 351 l 338 351 q 323 363 284 363 l 284 363 q 214 363 164 307 q 114 251 114 182 l 114 182 q 114 77 205 6 l 205 6 l 184 -15 q 127 27 96 95 l 96 95 q 72 148 72 194 l 72 194 q 72 289 133 355 q 193 421 287 421 l 287 421 q 341 421 389 392 l 389 392 q 405 401 421 410 l 421 410 q 445 421 477 421 l 477 421 q 527 421 569 394 l 569 394 q 601 373 618 346 l 618 346 q 635 381 671 401 q 707 421 748 421 l 748 421 q 809 421 853 382 l 853 382 q 906 334 906 249 l 906 249 l 906 163 q 906 112 927 81 q 947 49 978 49 l 978 49 q 1032 49 1075 98 q 1117 147 1117 211 l 1117 211 q 1117 259 1084 314 q 1051 369 1003 399 l 1003 399 l 1028 421 q 1090 373 1125 310 q 1159 247 1159 186 l 1159 186 q 1159 115 1109 56 l 1109 56 q 1053 -9 968 -9 l 968 -9 q 914 -9 878 32 l 878 32 q 838 77 838 154 l 838 154 l 838 240 q 838 375 728 375 l 728 375 q 693 375 668 355 l 668 355 q 640 333 640 299 l 640 299 l 640 0 l 562 0 l 562 259 q 562 309 530 339 q 497 369 454 369 z m 368 331 l 368 331 q 328 302 301 251 q 274 199 274 156 l 274 156 q 274 114 298 82 q 321 49 348 49 l 348 49 q 380 49 403 85 q 426 120 426 176 l 426 176 q 426 223 407 271 l 407 271 q 390 315 368 331 z"},"s":{"ha":1162,"x_min":72,"x_max":1164,"o":"m 604 32 l 604 32 l 783 32 l 783 244 q 783 325 835 373 q 886 421 974 421 l 974 421 q 1060 421 1112 367 q 1164 312 1164 221 l 1164 221 l 1164 0 l 538 0 l 517 10 q 615 111 615 205 l 615 205 q 615 287 571 335 l 571 335 q 534 375 493 375 l 493 375 q 458 375 433 355 l 433 355 q 405 333 405 299 l 405 299 l 405 0 l 327 0 l 327 259 q 327 308 304 337 l 304 337 q 283 363 253 363 l 253 363 q 201 363 160 319 l 160 319 q 114 271 114 198 l 114 198 q 114 94 224 15 l 224 15 l 198 -9 q 143 35 109 91 l 109 91 q 72 152 72 207 l 72 207 q 72 307 135 368 l 135 368 q 188 421 254 421 l 254 421 q 349 421 387 353 l 387 353 q 404 384 439 403 q 473 421 513 421 l 513 421 q 587 421 640 359 q 693 297 693 207 l 693 207 q 693 163 670 115 l 670 115 q 645 64 604 32 z m 1134 32 l 1134 182 q 1134 369 992 369 l 992 369 q 861 369 861 226 l 861 226 l 861 32 l 1134 32 z"},"t":{"ha":1141,"x_min":72,"x_max":1137,"o":"m 643 272 l 643 272 l 643 158 q 643 93 661 66 q 678 39 716 39 l 716 39 q 747 39 776 60 q 804 81 804 112 l 804 112 l 804 416 l 882 416 l 882 157 q 882 51 956 51 l 956 51 q 1007 51 1049 96 l 1049 96 q 1095 145 1095 218 l 1095 218 q 1095 323 985 399 l 985 399 l 1011 423 q 1066 381 1100 325 l 1100 325 q 1137 265 1137 209 l 1137 209 q 1137 107 1087 46 l 1087 46 q 1041 -9 979 -9 l 979 -9 q 929 -9 884 12 q 839 32 822 63 l 822 63 q 776 -7 707 -7 l 707 -7 q 634 -7 603 23 l 603 23 q 564 62 564 167 l 564 167 l 564 273 q 564 375 493 375 l 493 375 q 458 375 433 355 l 433 355 q 405 333 405 299 l 405 299 l 405 0 l 327 0 l 327 259 q 327 308 304 337 l 304 337 q 283 363 253 363 l 253 363 q 201 363 160 319 l 160 319 q 114 271 114 198 l 114 198 q 114 94 224 15 l 224 15 l 198 -9 q 143 35 109 91 l 109 91 q 72 152 72 207 l 72 207 q 72 307 135 368 l 135 368 q 188 421 254 421 l 254 421 q 349 421 387 353 l 387 353 q 424 421 513 421 l 513 421 q 569 421 606 380 q 643 339 643 272 z"},"u":{"ha":1004,"x_min":64,"x_max":1006,"o":"m 479 375 l 479 375 q 430 375 408 346 l 408 346 q 385 314 385 240 l 385 240 l 385 154 q 385 77 345 32 l 345 32 q 309 -9 255 -9 l 255 -9 q 170 -9 114 56 l 114 56 q 64 115 64 186 l 64 186 q 64 247 99 310 q 133 373 195 421 l 195 421 l 220 399 q 172 369 139 314 q 106 259 106 211 l 106 211 q 106 147 149 98 q 191 49 245 49 l 245 49 q 276 49 297 81 q 317 112 317 163 l 317 163 l 317 249 q 317 336 369 382 l 369 382 q 414 421 485 421 l 485 421 q 583 421 628 330 l 628 330 q 629 333 629 333 l 629 333 q 628 333 628 333 q 627 332 625 331 l 625 331 q 627 334 647 362 l 647 362 q 689 421 800 421 l 800 421 q 1006 421 1006 171 l 1006 171 l 1006 0 q 1006 -1 569 -1 l 569 -1 l 569 249 q 569 375 479 375 z m 637 248 l 637 27 q 680 55 732 121 l 732 121 q 804 212 804 285 l 804 285 q 804 322 783 346 q 762 369 733 369 l 733 369 q 690 369 664 333 q 637 296 637 248 l 637 248 z m 723 32 l 958 32 l 958 173 q 958 389 806 389 l 806 389 l 806 387 q 872 343 872 270 l 872 270 q 872 215 847 171 l 847 171 q 815 116 723 32 l 723 32 z"},"v":{"ha":1080,"x_min":72,"x_max":1077,"o":"m 470 381 l 470 381 q 432 381 414 371 l 414 371 q 517 284 517 169 l 517 169 q 517 100 480 48 l 480 48 q 439 -9 374 -9 l 374 -9 q 322 -9 282 42 q 242 92 242 164 l 242 164 q 242 218 271 274 l 271 274 q 299 326 340 358 l 340 358 q 319 369 275 369 l 275 369 q 215 369 166 318 l 166 318 q 114 266 114 198 l 114 198 q 114 74 203 7 l 203 7 l 172 -9 q 72 72 72 211 l 72 211 q 72 297 130 359 q 187 421 275 421 l 275 421 q 334 421 383 393 l 383 393 q 432 421 499 421 l 499 421 q 568 421 619 384 l 619 384 q 645 361 671 338 l 671 338 q 732 421 847 421 l 847 421 q 1077 421 1077 203 l 1077 203 l 1077 0 l 636 0 l 636 224 q 636 270 586 323 l 586 323 q 531 381 470 381 z m 874 285 l 874 285 q 874 322 853 346 q 832 369 803 369 l 803 369 q 704 369 704 191 l 704 191 l 704 32 q 874 155 874 285 z m 793 32 l 1028 32 l 1028 173 q 1028 389 876 389 l 876 389 l 876 387 q 942 343 942 270 l 942 270 q 942 215 917 171 l 917 171 q 885 116 793 32 l 793 32 z m 272 163 l 272 163 q 272 112 303 78 l 303 78 q 329 49 361 49 l 361 49 q 399 49 424 85 q 449 120 449 170 l 449 170 q 449 272 367 343 l 367 343 q 272 267 272 163 z"},"w":{"ha":715,"x_min":72,"x_max":711,"o":"m 327 0 l 327 259 q 327 308 304 337 l 304 337 q 283 363 253 363 l 253 363 q 201 363 160 319 l 160 319 q 114 271 114 198 l 114 198 q 114 94 224 15 l 224 15 l 198 -9 q 143 35 109 91 l 109 91 q 72 152 72 207 l 72 207 q 72 307 135 368 l 135 368 q 188 421 254 421 l 254 421 q 349 421 387 353 l 387 353 q 436 421 533 421 l 533 421 q 595 421 642 386 l 642 386 q 686 353 686 313 l 686 313 q 686 245 625 213 l 625 213 q 663 204 687 178 q 711 152 711 120 l 711 120 q 711 70 667 32 l 667 32 q 620 -9 549 -9 l 549 -9 q 492 -9 472 0 l 472 0 l 460 54 q 501 31 530 31 l 530 31 q 570 31 602 55 q 633 79 633 113 l 633 113 q 633 193 533 193 l 533 193 l 475 193 l 475 225 q 535 225 572 244 q 608 263 608 299 l 608 299 q 608 329 582 352 q 556 375 516 375 l 516 375 q 474 375 443 358 l 443 358 q 405 337 405 301 l 405 301 l 405 0 l 327 0 z"},"x":{"ha":485,"x_min":72,"x_max":481,"o":"m 328 -302 l 306 -273 q 364 -221 364 -173 l 364 -173 q 364 -125 330 -95 l 330 -95 q 301 -68 263 -68 l 263 -68 q 215 -68 185 -95 q 155 -123 155 -163 l 155 -163 q 155 -233 221 -282 l 221 -282 l 207 -304 q 119 -246 119 -165 l 119 -165 q 119 -112 150 -71 l 150 -71 q 191 -16 274 -16 l 274 -16 q 333 -16 374 -50 l 374 -50 q 419 -88 419 -154 l 419 -154 q 419 -240 328 -302 l 328 -302 z m 403 185 l 403 185 q 403 252 365 298 q 326 343 263 343 l 263 343 q 199 343 157 302 q 114 260 114 190 l 114 190 q 114 78 216 16 l 216 16 l 200 -9 q 140 29 106 84 q 72 139 72 197 l 72 197 q 72 285 124 348 l 124 348 q 184 421 289 421 l 289 421 q 368 421 425 360 q 481 298 481 213 l 481 213 q 481 153 447 96 l 447 96 q 410 34 338 -9 l 338 -9 l 312 29 q 403 90 403 185 z"},"y":{"ha":946,"x_min":72,"x_max":943,"o":"m 470 375 l 470 375 q 431 375 416 368 l 416 368 q 517 285 517 169 l 517 169 q 517 100 480 48 l 480 48 q 439 -9 374 -9 l 374 -9 q 322 -9 282 42 q 242 92 242 164 l 242 164 q 242 218 271 274 l 271 274 q 299 326 340 358 l 340 358 q 319 369 275 369 l 275 369 q 215 369 166 318 l 166 318 q 114 266 114 198 l 114 198 q 114 74 203 7 l 203 7 l 172 -9 q 72 72 72 211 l 72 211 q 72 297 130 359 q 187 421 275 421 l 275 421 q 334 421 383 393 l 383 393 q 438 421 504 421 l 504 421 q 599 421 637 353 l 637 353 q 654 384 689 403 q 723 421 763 421 l 763 421 q 837 421 890 359 q 943 297 943 207 l 943 207 q 943 95 808 -9 l 808 -9 l 767 10 q 865 111 865 205 l 865 205 q 865 287 821 335 l 821 335 q 784 375 743 375 l 743 375 q 708 375 683 355 l 683 355 q 655 333 655 299 l 655 299 l 655 0 l 577 0 l 577 259 q 577 311 549 343 q 520 375 470 375 z m 361 49 l 361 49 q 399 49 424 85 q 449 120 449 170 l 449 170 q 449 272 367 343 l 367 343 q 272 267 272 163 l 272 163 q 272 112 303 78 l 303 78 q 329 49 361 49 z"},"z":{"ha":758,"x_min":72,"x_max":756,"o":"m 378 330 l 378 330 q 379 333 379 333 l 379 333 q 378 333 378 333 q 377 332 375 331 l 375 331 q 377 334 397 362 l 397 362 q 439 421 550 421 l 550 421 q 756 421 756 171 l 756 171 l 756 0 q 756 -1 319 -1 l 319 -1 l 319 249 q 319 301 298 332 q 277 363 242 363 l 242 363 q 192 363 155 319 l 155 319 q 114 271 114 198 l 114 198 q 114 84 219 13 l 219 13 l 198 -9 q 144 23 110 77 l 110 77 q 72 138 72 207 l 72 207 q 72 302 121 362 q 169 421 247 421 l 247 421 q 333 421 378 330 z m 387 248 l 387 27 q 430 55 482 121 l 482 121 q 554 212 554 285 l 554 285 q 554 322 533 346 q 512 369 483 369 l 483 369 q 440 369 414 333 q 387 296 387 248 l 387 248 z m 473 32 l 708 32 l 708 173 q 708 389 556 389 l 556 389 l 556 387 q 622 343 622 270 l 622 270 q 622 215 597 171 l 597 171 q 565 116 473 32 l 473 32 z"},"{":{"ha":540,"x_min":72,"x_max":536,"o":"m 184 32 l 332 32 q 458 32 458 113 l 458 113 q 458 193 351 193 l 351 193 l 351 225 q 376 225 402 244 l 402 244 q 433 266 433 299 l 433 299 q 433 375 293 375 l 293 375 q 138 375 112 269 l 112 269 l 116 266 q 151 318 205 318 l 205 318 q 251 318 280 282 q 309 245 309 199 l 309 199 q 309 149 276 112 q 242 75 198 75 l 198 75 q 143 75 108 118 q 72 160 72 226 l 72 226 q 72 316 134 369 q 196 421 298 421 l 298 421 q 400 421 459 386 l 459 386 q 511 356 511 313 l 511 313 q 511 245 450 213 l 450 213 q 536 193 536 106 l 536 106 q 536 0 382 0 l 382 0 l 194 0 q 130 0 130 -48 l 130 -48 q 130 -82 174 -82 l 174 -82 l 528 -82 l 528 -160 l 183 -160 q 82 -160 82 -60 l 82 -60 q 82 32 184 32 l 184 32 z m 134 203 l 134 203 q 134 166 150 144 q 166 121 192 121 l 192 121 q 214 121 231 144 q 247 167 247 202 l 247 202 q 247 234 230 256 q 213 278 189 278 l 189 278 q 166 278 150 257 q 134 236 134 203 z"},"|":{"ha":492,"x_min":69,"x_max":489,"o":"m 84 0 l 84 132 q 84 227 87 251 l 87 251 q 94 316 127 362 l 127 362 q 169 421 280 421 l 280 421 q 486 421 486 171 l 486 171 l 486 0 l 84 0 z m 397 -15 l 415 -1 q 448 -24 469 -59 q 489 -94 489 -127 l 489 -127 q 489 -174 457 -209 q 425 -245 376 -245 l 376 -245 q 287 -245 287 -127 l 287 -127 q 287 -28 208 -28 l 208 -28 q 156 -28 118 -69 l 118 -69 l 120 -71 q 134 -64 150 -64 l 150 -64 q 185 -64 210 -90 q 235 -117 235 -161 l 235 -161 q 235 -206 208 -230 l 208 -230 q 188 -249 163 -249 l 163 -249 q 126 -249 99 -221 l 99 -221 q 69 -190 69 -142 l 69 -142 q 69 -85 112 -43 q 155 -1 218 -1 l 218 -1 q 273 -1 304 -33 q 334 -65 334 -122 l 334 -122 q 334 -206 389 -206 l 389 -206 q 417 -206 438 -183 q 458 -160 458 -130 l 458 -130 q 458 -58 397 -15 l 397 -15 z m 203 32 l 438 32 l 438 173 q 438 389 286 389 l 286 389 l 286 387 q 352 343 352 270 l 352 270 q 352 215 327 171 l 327 171 q 295 116 203 32 l 203 32 z m 114 198 l 114 32 q 284 155 284 285 l 284 285 q 284 322 263 346 q 242 369 213 369 l 213 369 q 114 369 114 198 l 114 198 z m 135 -108 l 135 -108 q 112 -108 98 -117 l 98 -117 q 94 -126 94 -141 l 94 -141 q 94 -215 159 -215 l 159 -215 q 176 -215 188 -201 q 199 -188 199 -169 l 199 -169 q 199 -108 135 -108 z"},"}":{"ha":10,"x_min":-411,"x_max":-295,"o":"m -295 743 l -353 566 l -411 743 l -295 743 z"},"~":{"ha":801,"x_min":72,"x_max":795,"o":"m 795 0 l 337 0 l 337 21 q 428 89 428 188 l 428 188 q 428 266 379 319 l 379 319 q 332 369 270 369 l 270 369 q 200 369 156 315 q 111 260 102 181 l 102 181 l 105 178 q 128 215 146 229 l 146 229 q 168 246 204 246 l 204 246 q 250 246 283 204 q 315 162 315 112 l 315 112 q 315 56 285 24 q 254 -9 206 -9 l 206 -9 q 140 -9 104 46 l 104 46 q 72 93 72 164 l 72 164 q 72 264 128 339 l 128 339 q 189 421 284 421 l 284 421 q 379 421 445 352 l 445 352 q 506 288 506 204 l 506 204 q 506 112 428 32 l 428 32 l 717 32 l 709 414 l 787 414 l 795 0 z m 118 124 l 118 124 q 118 95 139 69 q 159 43 186 43 l 186 43 q 217 43 236 69 l 236 69 q 253 92 253 118 l 253 118 q 253 151 235 176 q 217 200 188 200 l 188 200 q 157 200 138 179 q 118 157 118 124 z"},"¡":{"ha":19,"x_min":-240,"x_max":13,"o":"m -237 623 l -164 623 q -168 611 -168 585 l -168 585 q -168 559 -148 540 q -128 521 -100 521 l -100 521 q -65 521 -41 548 q -17 575 -17 623 l -17 623 l 13 623 q 13 549 -22 509 q -57 469 -114 469 l -114 469 q -163 469 -200 500 l -200 500 q -240 534 -240 587 l -240 587 q -240 613 -237 623 l -237 623 z"},"¢":{"ha":310,"x_min":90,"x_max":302,"o":"m 302 105 l 302 105 q 302 61 272 27 q 242 -7 196 -7 l 196 -7 q 150 -7 120 29 q 90 65 90 112 l 90 112 q 90 162 121 194 q 151 226 196 226 l 196 226 q 244 226 273 192 q 302 158 302 105 z m 120 112 l 120 112 q 120 82 139 61 q 158 39 187 39 l 187 39 q 216 39 235 61 q 254 82 254 112 l 254 112 q 254 143 235 165 q 216 186 187 186 l 187 186 q 158 186 139 165 q 120 143 120 112 z"},"£":{"ha":259,"x_min":72,"x_max":255,"o":"m 166 421 l 166 421 q 200 421 228 392 q 255 362 255 321 l 255 321 q 255 278 230 246 q 204 214 164 214 l 164 214 q 126 214 99 241 q 72 267 72 314 l 72 314 q 72 353 97 385 l 97 385 q 125 421 166 421 z m 166 192 l 166 192 q 200 192 228 163 q 255 133 255 92 l 255 92 q 255 49 230 17 q 204 -15 164 -15 l 164 -15 q 126 -15 99 12 q 72 38 72 85 l 72 85 q 72 124 97 156 l 97 156 q 125 192 166 192 z m 155 246 l 155 246 q 176 246 192 266 q 207 286 207 317 l 207 317 q 207 350 190 371 l 190 371 q 175 389 157 389 l 157 389 q 134 389 118 367 q 102 344 102 314 l 102 314 q 102 285 118 266 q 133 246 155 246 z m 155 17 l 155 17 q 176 17 192 37 q 207 57 207 88 l 207 88 q 207 121 190 142 l 190 142 q 175 160 157 160 l 157 160 q 134 160 118 138 q 102 115 102 85 l 102 85 q 102 56 118 37 q 133 17 155 17 z"},"¤":{"ha":1,"x_min":0,"x_max":0,"o":""},"¥":{"ha":999,"x_min":72,"x_max":995,"o":"m 203 7 l 203 7 l 172 -9 q 72 72 72 211 l 72 211 q 72 297 130 359 q 187 421 275 421 l 275 421 q 341 421 381 399 l 381 399 q 428 421 497 421 l 497 421 q 542 421 584 402 l 584 402 q 630 381 651 345 l 651 345 q 700 421 784 421 l 784 421 q 872 421 935 349 l 935 349 q 995 280 995 189 l 995 189 q 995 105 956 48 q 917 -9 857 -9 l 857 -9 q 809 -9 772 35 q 735 78 735 140 l 735 140 q 735 204 776 252 q 817 300 886 310 l 886 310 q 849 375 777 375 l 777 375 q 740 375 707 355 l 707 355 q 670 332 670 299 l 670 299 l 670 0 l 592 0 l 592 256 q 592 307 551 343 l 551 343 q 513 375 468 375 l 468 375 q 461 375 451 375 l 451 375 q 441 374 438 374 l 438 374 l 438 372 q 500 343 500 281 l 500 281 q 500 227 443 194 l 443 194 q 515 172 515 109 l 515 109 q 515 68 485 33 l 485 33 q 449 -9 392 -9 l 392 -9 q 328 -9 286 45 q 244 98 244 176 l 244 176 q 244 294 332 364 l 332 364 q 309 369 282 369 l 282 369 q 218 369 166 318 q 114 267 114 198 l 114 198 q 114 74 203 7 z m 335 169 l 335 201 l 358 201 q 386 201 409 223 q 432 244 432 270 l 432 270 q 432 292 413 317 q 393 341 365 352 l 365 352 q 328 333 303 288 l 303 288 q 274 237 274 176 l 274 176 q 274 123 302 83 q 329 43 370 43 l 370 43 q 397 43 417 62 q 437 81 437 106 l 437 106 q 437 132 415 151 q 392 169 359 169 l 359 169 l 335 169 z m 845 49 l 845 49 q 877 49 900 85 q 923 120 923 176 l 923 176 q 923 233 900 281 l 900 281 q 844 274 808 241 q 772 208 771 156 l 771 156 q 770 114 794 82 q 818 49 845 49 z"},"¦":{"ha":1129,"x_min":72,"x_max":1125,"o":"m 670 0 l 592 0 l 592 256 q 592 307 551 343 l 551 343 q 513 375 468 375 l 468 375 q 461 375 451 375 l 451 375 q 441 374 438 374 l 438 374 l 438 372 q 500 343 500 281 l 500 281 q 500 227 443 194 l 443 194 q 515 172 515 109 l 515 109 q 515 68 485 33 l 485 33 q 449 -9 392 -9 l 392 -9 q 328 -9 286 45 q 244 98 244 176 l 244 176 q 244 294 332 364 l 332 364 q 309 369 282 369 l 282 369 q 218 369 166 318 q 114 267 114 198 l 114 198 q 114 74 203 7 l 203 7 l 172 -9 q 72 72 72 211 l 72 211 q 72 297 130 359 q 187 421 275 421 l 275 421 q 341 421 381 399 l 381 399 q 428 421 497 421 l 497 421 q 542 421 584 402 l 584 402 q 630 381 651 345 l 651 345 q 700 421 784 421 l 784 421 q 899 421 959 314 l 959 314 q 1034 298 1080 239 q 1125 179 1125 94 l 1125 94 q 1125 -12 1060 -80 q 995 -148 891 -148 l 891 -148 q 828 -148 778 -125 l 778 -125 l 794 -84 q 823 -96 860 -96 l 860 -96 q 951 -96 1013 -24 l 1013 -24 q 1070 44 1070 131 l 1070 131 q 1070 181 1043 225 q 1016 269 977 282 l 977 282 q 995 232 995 189 l 995 189 q 995 105 956 48 q 917 -9 857 -9 l 857 -9 q 809 -9 772 35 q 735 78 735 140 l 735 140 q 735 204 776 252 q 817 300 886 310 l 886 310 q 849 375 777 375 l 777 375 q 740 375 707 355 l 707 355 q 670 332 670 299 l 670 299 l 670 0 z m 335 169 l 335 201 l 358 201 q 386 201 409 223 q 432 244 432 270 l 432 270 q 432 292 413 317 q 393 341 365 352 l 365 352 q 328 333 303 288 l 303 288 q 274 237 274 176 l 274 176 q 274 123 302 83 q 329 43 370 43 l 370 43 q 397 43 417 62 q 437 81 437 106 l 437 106 q 437 132 415 151 q 392 169 359 169 l 359 169 l 335 169 z m 845 49 l 845 49 q 877 49 900 85 q 923 120 923 176 l 923 176 q 923 233 900 281 l 900 281 q 844 274 808 241 q 772 208 771 156 l 771 156 q 770 114 794 82 q 818 49 845 49 z"},"§":{"ha":749,"x_min":72,"x_max":745,"o":"m 455 67 l 377 67 l 377 282 q 377 317 344 343 q 311 369 261 369 l 261 369 q 209 369 169 341 l 169 341 q 124 310 112 253 l 112 253 l 116 251 q 151 303 205 303 l 205 303 q 251 303 280 267 q 309 230 309 184 l 309 184 q 309 134 276 97 q 242 60 198 60 l 198 60 q 144 60 108 103 q 72 145 72 208 l 72 208 q 72 300 129 359 l 129 359 q 190 421 294 421 l 294 421 q 393 421 438 347 l 438 347 q 452 375 487 398 q 521 421 562 421 l 562 421 q 634 421 690 357 q 745 293 745 214 l 745 214 q 745 117 701 59 q 657 0 591 0 l 591 0 l 194 0 q 130 0 130 -48 l 130 -48 q 130 -82 174 -82 l 174 -82 l 728 -82 l 728 -160 l 183 -160 q 82 -160 82 -60 l 82 -60 q 82 32 184 32 l 184 32 l 529 32 q 667 32 667 206 l 667 206 q 667 278 631 327 q 595 375 540 375 l 540 375 q 504 375 480 356 q 455 336 455 301 l 455 301 l 455 67 z m 192 106 l 192 106 q 214 106 231 129 q 247 152 247 187 l 247 187 q 247 219 230 241 q 213 263 189 263 l 189 263 q 166 263 150 242 q 134 221 134 188 l 134 188 q 134 151 150 129 q 166 106 192 106 z"},"¨":{"ha":1339,"x_min":72,"x_max":1335,"o":"m 805 179 l 775 179 q 772 200 772 234 l 772 234 q 772 310 807 361 l 807 361 q 848 421 924 421 l 924 421 q 963 421 1000 398 l 1000 398 q 1033 377 1043 352 l 1043 352 q 1056 378 1089 398 l 1089 398 q 1127 421 1173 421 l 1173 421 q 1245 421 1290 358 q 1335 294 1335 194 l 1335 194 q 1335 110 1288 54 l 1288 54 q 1230 -15 1114 -15 l 1114 -15 q 1029 -15 980 20 l 980 20 q 935 52 933 102 l 933 102 l 963 102 q 967 67 1003 46 q 1038 25 1096 25 l 1096 25 q 1257 25 1257 204 l 1257 204 q 1257 281 1224 328 q 1190 375 1135 375 l 1135 375 q 1107 375 1085 354 q 1062 332 1062 306 l 1062 306 l 1062 176 l 984 176 l 984 269 q 984 315 961 345 q 938 375 901 375 l 901 375 q 856 375 829 333 q 802 291 802 225 l 802 225 q 802 215 805 179 l 805 179 z m 455 67 l 377 67 l 377 282 q 377 317 344 343 q 311 369 261 369 l 261 369 q 209 369 169 341 l 169 341 q 124 310 112 253 l 112 253 l 116 251 q 151 303 205 303 l 205 303 q 251 303 280 267 q 309 230 309 184 l 309 184 q 309 134 276 97 q 242 60 198 60 l 198 60 q 144 60 108 103 q 72 145 72 208 l 72 208 q 72 300 129 359 l 129 359 q 190 421 294 421 l 294 421 q 393 421 438 347 l 438 347 q 452 375 487 398 q 521 421 562 421 l 562 421 q 634 421 690 357 q 745 293 745 214 l 745 214 q 745 117 701 59 q 657 0 591 0 l 591 0 l 194 0 q 130 0 130 -48 l 130 -48 q 130 -82 174 -82 l 174 -82 l 728 -82 l 728 -160 l 183 -160 q 82 -160 82 -60 l 82 -60 q 82 32 184 32 l 184 32 l 529 32 q 667 32 667 206 l 667 206 q 667 278 631 327 q 595 375 540 375 l 540 375 q 504 375 480 356 q 455 336 455 301 l 455 301 l 455 67 z m 192 106 l 192 106 q 214 106 231 129 q 247 152 247 187 l 247 187 q 247 219 230 241 q 213 263 189 263 l 189 263 q 166 263 150 242 q 134 221 134 188 l 134 188 q 134 151 150 129 q 166 106 192 106 z"},"©":{"ha":538,"x_min":72,"x_max":534,"o":"m 528 -82 l 528 -160 l 183 -160 q 82 -160 82 -60 l 82 -60 q 82 32 184 32 l 184 32 l 318 32 q 456 32 456 206 l 456 206 q 456 375 271 375 l 271 375 q 136 375 112 269 l 112 269 l 116 266 q 151 318 205 318 l 205 318 q 251 318 280 282 q 309 245 309 199 l 309 199 q 309 149 276 112 q 242 75 198 75 l 198 75 q 143 75 108 118 q 72 160 72 226 l 72 226 q 72 316 126 366 l 126 366 q 185 421 298 421 l 298 421 q 415 421 478 358 l 478 358 q 534 303 534 214 l 534 214 q 534 117 490 59 q 446 0 380 0 l 380 0 l 194 0 q 130 0 130 -48 l 130 -48 q 130 -82 174 -82 l 174 -82 l 528 -82 z m 189 278 l 189 278 q 166 278 150 257 q 134 236 134 203 l 134 203 q 134 166 150 144 q 166 121 192 121 l 192 121 q 214 121 231 144 q 247 167 247 202 l 247 202 q 247 234 230 256 q 213 278 189 278 z"},"ª":{"ha":1129,"x_min":72,"x_max":1125,"o":"m 595 179 l 565 179 q 562 200 562 234 l 562 234 q 562 310 597 361 l 597 361 q 638 421 714 421 l 714 421 q 753 421 790 398 l 790 398 q 823 377 833 352 l 833 352 q 846 378 879 398 l 879 398 q 917 421 963 421 l 963 421 q 1035 421 1080 358 q 1125 294 1125 194 l 1125 194 q 1125 110 1078 54 l 1078 54 q 1020 -15 904 -15 l 904 -15 q 819 -15 770 20 l 770 20 q 725 52 723 102 l 723 102 l 753 102 q 757 67 793 46 q 828 25 886 25 l 886 25 q 1047 25 1047 204 l 1047 204 q 1047 281 1014 328 q 980 375 925 375 l 925 375 q 897 375 875 354 q 852 332 852 306 l 852 306 l 852 176 l 774 176 l 774 269 q 774 315 751 345 q 728 375 691 375 l 691 375 q 646 375 619 333 q 592 291 592 225 l 592 225 q 592 215 595 179 l 595 179 z m 528 -82 l 528 -160 l 183 -160 q 82 -160 82 -60 l 82 -60 q 82 32 184 32 l 184 32 l 318 32 q 456 32 456 206 l 456 206 q 456 375 271 375 l 271 375 q 136 375 112 269 l 112 269 l 116 266 q 151 318 205 318 l 205 318 q 251 318 280 282 q 309 245 309 199 l 309 199 q 309 149 276 112 q 242 75 198 75 l 198 75 q 143 75 108 118 q 72 160 72 226 l 72 226 q 72 316 126 366 l 126 366 q 185 421 298 421 l 298 421 q 415 421 478 358 l 478 358 q 534 303 534 214 l 534 214 q 534 117 490 59 q 446 0 380 0 l 380 0 l 194 0 q 130 0 130 -48 l 130 -48 q 130 -82 174 -82 l 174 -82 l 528 -82 z m 189 278 l 189 278 q 166 278 150 257 q 134 236 134 203 l 134 203 q 134 166 150 144 q 166 121 192 121 l 192 121 q 214 121 231 144 q 247 167 247 202 l 247 202 q 247 234 230 256 q 213 278 189 278 z"},"«":{"ha":648,"x_min":84,"x_max":642,"o":"m 364 -170 l 364 -170 q 215 -170 143 -125 l 143 -125 q 84 -89 84 -30 l 84 -30 q 84 59 196 80 l 196 80 l 196 82 q 84 118 84 252 l 84 252 q 84 320 122 371 q 159 421 221 421 l 221 421 q 269 421 300 388 q 330 354 330 306 l 330 306 q 330 249 299 217 q 267 184 223 184 l 223 184 q 163 184 128 242 l 128 242 l 126 242 q 126 169 175 134 l 175 134 q 231 95 364 95 l 364 95 q 496 95 551 134 l 551 134 q 600 169 600 242 l 600 242 l 598 242 q 563 184 503 184 l 503 184 q 459 184 429 215 l 429 215 q 396 249 396 306 l 396 306 q 396 354 427 388 q 457 421 505 421 l 505 421 q 567 421 606 369 l 606 369 q 642 320 642 252 l 642 252 q 642 118 530 82 l 530 82 l 530 80 q 642 59 642 -30 l 642 -30 q 642 -89 584 -125 l 584 -125 q 512 -170 364 -170 z m 152 303 l 152 303 q 152 269 169 247 q 186 224 210 224 l 210 224 q 235 224 252 246 q 268 267 268 306 l 268 306 q 268 338 253 360 q 237 381 214 381 l 214 381 q 190 381 171 358 q 152 335 152 303 z m 458 306 l 458 306 q 458 267 475 246 q 491 224 516 224 l 516 224 q 540 224 557 247 q 574 269 574 303 l 574 303 q 574 335 555 358 q 536 381 512 381 l 512 381 q 489 381 474 360 q 458 338 458 306 z m 364 63 l 364 63 q 265 63 211 36 q 156 9 156 -31 l 156 -31 q 156 -72 209 -100 l 209 -100 q 266 -130 364 -130 l 364 -130 q 461 -130 518 -100 l 518 -100 q 570 -72 570 -31 l 570 -31 q 570 9 518 35 l 518 35 q 461 63 364 63 z"},"¬":{"ha":1256,"x_min":84,"x_max":1260,"o":"m 364 -170 l 364 -170 q 215 -170 143 -125 l 143 -125 q 84 -89 84 -30 l 84 -30 q 84 59 196 80 l 196 80 l 196 82 q 84 118 84 252 l 84 252 q 84 320 122 371 q 159 421 221 421 l 221 421 q 269 421 300 388 q 330 354 330 306 l 330 306 q 330 249 299 217 q 267 184 223 184 l 223 184 q 163 184 128 242 l 128 242 l 126 242 q 126 169 175 134 l 175 134 q 231 95 364 95 l 364 95 q 496 95 551 134 l 551 134 q 600 169 600 242 l 600 242 l 598 242 q 563 184 503 184 l 503 184 q 459 184 429 215 l 429 215 q 396 249 396 306 l 396 306 q 396 354 427 388 q 457 421 505 421 l 505 421 q 567 421 606 369 l 606 369 q 642 320 642 252 l 642 252 q 642 118 530 82 l 530 82 l 530 80 q 642 59 642 -30 l 642 -30 q 642 -89 584 -125 l 584 -125 q 512 -170 364 -170 z m 730 179 l 700 179 q 697 200 697 234 l 697 234 q 697 310 732 361 l 732 361 q 773 421 849 421 l 849 421 q 888 421 925 398 l 925 398 q 958 377 968 352 l 968 352 q 981 378 1014 398 l 1014 398 q 1052 421 1098 421 l 1098 421 q 1170 421 1215 358 q 1260 294 1260 194 l 1260 194 q 1260 110 1213 54 l 1213 54 q 1155 -15 1039 -15 l 1039 -15 q 954 -15 905 20 l 905 20 q 860 52 858 102 l 858 102 l 888 102 q 892 67 928 46 q 963 25 1021 25 l 1021 25 q 1182 25 1182 204 l 1182 204 q 1182 281 1149 328 q 1115 375 1060 375 l 1060 375 q 1032 375 1010 354 q 987 332 987 306 l 987 306 l 987 176 l 909 176 l 909 269 q 909 315 886 345 q 863 375 826 375 l 826 375 q 781 375 754 333 q 727 291 727 225 l 727 225 q 727 215 730 179 l 730 179 z m 458 306 l 458 306 q 458 267 475 246 q 491 224 516 224 l 516 224 q 540 224 557 247 q 574 269 574 303 l 574 303 q 574 335 555 358 q 536 381 512 381 l 512 381 q 489 381 474 360 q 458 338 458 306 z m 364 63 l 364 63 q 265 63 211 36 q 156 9 156 -31 l 156 -31 q 156 -72 209 -100 l 209 -100 q 266 -130 364 -130 l 364 -130 q 461 -130 518 -100 l 518 -100 q 570 -72 570 -31 l 570 -31 q 570 9 518 35 l 518 35 q 461 63 364 63 z m 152 303 l 152 303 q 152 269 169 247 q 186 224 210 224 l 210 224 q 235 224 252 246 q 268 267 268 306 l 268 306 q 268 338 253 360 q 237 381 214 381 l 214 381 q 190 381 171 358 q 152 335 152 303 z"},"®":{"ha":953,"x_min":72,"x_max":949,"o":"m 640 315 l 718 315 l 718 -66 q 718 -117 688 -149 q 657 -182 610 -182 l 610 -182 q 492 -182 479 0 l 479 0 l 249 0 l 249 7 q 316 49 316 123 l 316 123 q 316 161 292 190 l 292 190 q 265 221 222 221 l 222 221 q 175 221 145 190 q 114 159 114 116 l 114 116 q 114 62 162 14 l 162 14 l 134 -9 q 72 57 72 134 l 72 134 q 72 192 113 233 l 113 233 q 159 279 237 279 l 237 279 q 307 279 352 232 l 352 232 q 394 188 394 126 l 394 126 q 394 71 361 32 l 361 32 l 477 32 q 476 43 476 65 l 476 65 q 476 225 530 317 l 530 317 q 593 421 719 421 l 719 421 q 825 421 891 325 l 891 325 q 949 240 949 127 l 949 127 q 949 -57 805 -182 l 805 -182 l 758 -163 q 871 -60 871 113 l 871 113 q 871 222 823 296 q 774 369 697 369 l 697 369 q 613 369 560 284 q 506 198 506 64 l 506 64 l 506 32 l 640 32 l 640 315 z m 640 0 l 509 0 q 520 -124 582 -124 l 582 -124 q 608 -124 624 -105 q 640 -86 640 -57 l 640 -57 l 640 0 z"},"°":{"ha":1425,"x_min":72,"x_max":1424,"o":"m 286 421 l 286 421 q 380 421 445 352 l 445 352 q 506 287 506 204 l 506 204 q 506 86 389 -15 l 389 -15 l 343 6 q 428 80 428 188 l 428 188 q 428 266 379 319 l 379 319 q 332 369 270 369 l 270 369 q 200 369 156 315 q 111 260 102 181 l 102 181 l 105 178 q 128 215 146 229 l 146 229 q 168 246 204 246 l 204 246 q 250 246 283 204 q 315 162 315 112 l 315 112 q 315 56 285 24 q 254 -9 206 -9 l 206 -9 q 140 -9 104 46 l 104 46 q 72 93 72 164 l 72 164 q 72 265 128 339 l 128 339 q 190 421 286 421 z m 1115 315 l 1193 315 l 1193 -66 q 1193 -117 1163 -149 q 1132 -182 1085 -182 l 1085 -182 q 967 -182 954 0 l 954 0 l 724 0 l 724 7 q 791 49 791 123 l 791 123 q 791 161 767 190 l 767 190 q 740 221 697 221 l 697 221 q 650 221 620 190 q 589 159 589 116 l 589 116 q 589 62 637 14 l 637 14 l 609 -9 q 547 57 547 134 l 547 134 q 547 192 588 233 l 588 233 q 634 279 712 279 l 712 279 q 782 279 827 232 l 827 232 q 869 188 869 126 l 869 126 q 869 71 836 32 l 836 32 l 952 32 q 951 43 951 65 l 951 65 q 951 225 1005 317 l 1005 317 q 1068 421 1194 421 l 1194 421 q 1300 421 1366 325 l 1366 325 q 1424 240 1424 127 l 1424 127 q 1424 -57 1280 -182 l 1280 -182 l 1233 -163 q 1346 -60 1346 113 l 1346 113 q 1346 222 1298 296 q 1249 369 1172 369 l 1172 369 q 1088 369 1035 284 q 981 198 981 64 l 981 64 l 981 32 l 1115 32 l 1115 315 z m 118 124 l 118 124 q 118 95 139 69 q 159 43 186 43 l 186 43 q 217 43 236 69 l 236 69 q 253 92 253 118 l 253 118 q 253 151 235 176 q 217 200 188 200 l 188 200 q 157 200 138 179 q 118 157 118 124 z m 1115 0 l 984 0 q 995 -124 1057 -124 l 1057 -124 q 1083 -124 1099 -105 q 1115 -86 1115 -57 l 1115 -57 l 1115 0 z"},"±":{"ha":651,"x_min":72,"x_max":647,"o":"m 198 -1 l 198 -1 q 142 19 107 75 q 72 131 72 194 l 72 194 q 72 259 111 323 q 149 387 207 421 l 207 421 l 227 397 q 114 316 114 200 l 114 200 q 114 139 151 94 q 188 49 240 49 l 240 49 q 277 49 300 82 l 300 82 q 326 119 326 190 l 326 190 l 326 257 q 326 332 374 378 l 374 378 q 419 421 479 421 l 479 421 q 551 421 599 364 q 647 306 647 221 l 647 221 q 647 154 610 88 q 573 22 517 -9 l 517 -9 l 493 14 q 605 85 605 208 l 605 208 q 605 278 561 324 l 561 324 q 523 363 481 363 l 481 363 q 394 363 394 218 l 394 218 l 394 161 q 394 107 369 66 q 344 25 305 5 l 305 5 q 397 -20 397 -133 l 397 -133 q 397 -231 462 -231 l 462 -231 q 494 -231 519 -204 q 543 -177 543 -142 l 543 -142 q 543 -56 471 -7 l 471 -7 l 492 10 q 530 -17 555 -58 q 579 -99 579 -138 l 579 -138 q 579 -194 542 -235 q 504 -277 446 -277 l 446 -277 q 396 -277 369 -240 q 342 -203 342 -138 l 342 -138 q 342 -22 249 -22 l 249 -22 q 187 -22 143 -70 l 143 -70 l 145 -72 q 164 -64 180 -64 l 180 -64 q 222 -64 251 -95 q 280 -127 280 -179 l 280 -179 q 280 -231 249 -260 l 249 -260 q 225 -282 196 -282 l 196 -282 q 152 -282 120 -249 l 120 -249 q 85 -213 85 -156 l 85 -156 q 85 -104 116 -61 q 147 -19 198 -1 z m 163 -116 l 163 -116 q 135 -116 119 -127 l 119 -127 q 115 -138 115 -155 l 115 -155 q 115 -242 191 -242 l 191 -242 q 211 -242 225 -226 q 238 -210 238 -188 l 238 -188 q 238 -154 217 -135 q 196 -116 163 -116 z"},"²":{"ha":559,"x_min":72,"x_max":555,"o":"m 347 192 l 347 224 q 396 224 424 244 l 424 244 q 449 262 449 293 l 449 293 q 449 375 309 375 l 309 375 q 122 375 102 181 l 102 181 l 105 178 q 128 215 146 229 l 146 229 q 168 246 204 246 l 204 246 q 250 246 283 204 q 315 162 315 112 l 315 112 q 315 56 285 24 q 254 -9 206 -9 l 206 -9 q 140 -9 104 46 l 104 46 q 72 93 72 164 l 72 164 q 72 421 344 421 l 344 421 q 431 421 482 385 l 482 385 q 527 352 527 303 l 527 303 q 527 247 470 211 l 470 211 q 507 202 531 172 q 555 141 555 109 l 555 109 q 555 57 518 24 q 480 -9 422 -9 l 422 -9 q 393 -9 369 0 l 369 0 l 357 56 q 381 37 405 37 l 405 37 q 438 37 458 57 q 477 76 477 100 l 477 100 q 477 135 451 163 l 451 163 q 422 192 382 192 l 382 192 l 347 192 z m 118 124 l 118 124 q 118 95 139 69 q 159 43 186 43 l 186 43 q 217 43 236 69 l 236 69 q 253 92 253 118 l 253 118 q 253 151 235 176 q 217 200 188 200 l 188 200 q 157 200 138 179 q 118 157 118 124 z"},"³":{"ha":915,"x_min":72,"x_max":906,"o":"m 347 192 l 347 224 q 396 224 424 244 l 424 244 q 449 262 449 293 l 449 293 q 449 375 309 375 l 309 375 q 122 375 102 181 l 102 181 l 105 178 q 128 215 146 229 l 146 229 q 168 246 204 246 l 204 246 q 250 246 283 204 q 315 162 315 112 l 315 112 q 315 56 285 24 q 254 -9 206 -9 l 206 -9 q 140 -9 104 46 l 104 46 q 72 93 72 164 l 72 164 q 72 421 344 421 l 344 421 q 431 421 482 385 l 482 385 q 527 352 527 303 l 527 303 q 527 247 470 211 l 470 211 q 507 202 531 172 q 555 141 555 109 l 555 109 q 555 57 518 24 q 480 -9 422 -9 l 422 -9 q 393 -9 369 0 l 369 0 l 357 56 q 381 37 405 37 l 405 37 q 438 37 458 57 q 477 76 477 100 l 477 100 q 477 135 451 163 l 451 163 q 422 192 382 192 l 382 192 l 347 192 z m 587 153 l 617 153 q 637 49 714 49 l 714 49 q 767 49 801 95 q 834 141 834 213 l 834 213 q 834 278 801 327 q 768 375 723 375 l 723 375 q 635 375 617 243 l 617 243 l 587 243 q 590 319 620 365 l 620 365 q 657 421 728 421 l 728 421 q 811 421 861 357 l 861 357 q 906 297 906 211 l 906 211 q 906 119 863 58 l 863 58 q 815 -9 735 -9 l 735 -9 q 672 -9 631 31 l 631 31 q 587 75 587 153 l 587 153 z m 118 124 l 118 124 q 118 95 139 69 q 159 43 186 43 l 186 43 q 217 43 236 69 l 236 69 q 253 92 253 118 l 253 118 q 253 151 235 176 q 217 200 188 200 l 188 200 q 157 200 138 179 q 118 157 118 124 z"},"´":{"ha":1143,"x_min":72,"x_max":1150,"o":"m 347 192 l 347 224 q 396 224 424 244 l 424 244 q 449 262 449 293 l 449 293 q 449 375 309 375 l 309 375 q 122 375 102 181 l 102 181 l 105 178 q 128 215 146 229 l 146 229 q 168 246 204 246 l 204 246 q 250 246 283 204 q 315 162 315 112 l 315 112 q 315 56 285 24 q 254 -9 206 -9 l 206 -9 q 140 -9 104 46 l 104 46 q 72 93 72 164 l 72 164 q 72 421 344 421 l 344 421 q 431 421 482 385 l 482 385 q 527 352 527 303 l 527 303 q 527 247 470 211 l 470 211 q 507 202 531 172 q 555 141 555 109 l 555 109 q 555 57 518 24 q 480 -9 422 -9 l 422 -9 q 393 -9 369 0 l 369 0 l 357 56 q 381 37 405 37 l 405 37 q 438 37 458 57 q 477 76 477 100 l 477 100 q 477 135 451 163 l 451 163 q 422 192 382 192 l 382 192 l 347 192 z m 620 179 l 590 179 q 587 200 587 234 l 587 234 q 587 310 622 361 l 622 361 q 663 421 739 421 l 739 421 q 778 421 815 398 l 815 398 q 848 377 858 352 l 858 352 q 871 378 904 398 l 904 398 q 942 421 988 421 l 988 421 q 1060 421 1105 358 q 1150 294 1150 194 l 1150 194 q 1150 110 1103 54 l 1103 54 q 1045 -15 929 -15 l 929 -15 q 844 -15 795 20 l 795 20 q 750 52 748 102 l 748 102 l 778 102 q 782 67 818 46 q 853 25 911 25 l 911 25 q 1072 25 1072 204 l 1072 204 q 1072 281 1039 328 q 1005 375 950 375 l 950 375 q 922 375 900 354 q 877 332 877 306 l 877 306 l 877 176 l 799 176 l 799 269 q 799 315 776 345 q 753 375 716 375 l 716 375 q 671 375 644 333 q 617 291 617 225 l 617 225 q 617 215 620 179 l 620 179 z m 118 124 l 118 124 q 118 95 139 69 q 159 43 186 43 l 186 43 q 217 43 236 69 l 236 69 q 253 92 253 118 l 253 118 q 253 151 235 176 q 217 200 188 200 l 188 200 q 157 200 138 179 q 118 157 118 124 z"},"¶":{"ha":801,"x_min":72,"x_max":795,"o":"m 795 0 l 337 0 l 337 21 q 428 89 428 188 l 428 188 q 428 266 379 319 l 379 319 q 332 369 270 369 l 270 369 q 200 369 156 315 q 111 260 102 181 l 102 181 l 105 178 q 128 215 146 229 l 146 229 q 168 246 204 246 l 204 246 q 250 246 283 204 q 315 162 315 112 l 315 112 q 315 56 285 24 q 254 -9 206 -9 l 206 -9 q 140 -9 104 46 l 104 46 q 72 93 72 164 l 72 164 q 72 264 128 339 l 128 339 q 189 421 284 421 l 284 421 q 379 421 445 352 l 445 352 q 506 288 506 204 l 506 204 q 506 112 428 32 l 428 32 l 717 32 l 709 414 l 787 414 l 795 0 z m 118 124 l 118 124 q 118 95 139 69 q 159 43 186 43 l 186 43 q 217 43 236 69 l 236 69 q 253 92 253 118 l 253 118 q 253 151 235 176 q 217 200 188 200 l 188 200 q 157 200 138 179 q 118 157 118 124 z"},"¸":{"ha":1080,"x_min":69,"x_max":1074,"o":"m 478 151 l 245 151 l 245 158 q 278 177 297 210 l 297 210 q 314 239 314 267 l 314 267 q 314 304 285 334 q 256 363 217 363 l 217 363 q 173 363 140 332 q 106 301 106 263 l 106 263 q 106 211 159 166 l 159 166 l 131 141 q 69 209 70 280 l 70 280 q 71 346 117 384 q 162 421 237 421 l 237 421 q 301 421 347 375 q 392 329 392 269 l 392 269 q 392 220 359 183 l 359 183 l 478 183 q 478 316 532 371 l 532 371 q 581 421 663 421 l 663 421 q 775 421 828 352 l 828 352 q 855 317 864 259 l 864 259 q 869 226 870 151 l 870 151 l 556 151 l 556 32 l 996 32 l 988 414 l 1066 414 l 1074 0 l 478 0 l 478 151 z m 556 183 l 834 183 q 834 290 799 333 l 799 333 q 760 381 693 381 l 693 381 q 628 381 592 340 q 556 298 556 234 l 556 234 l 556 183 z"},"¹":{"ha":782,"x_min":72,"x_max":778,"o":"m 472 0 l 394 0 l 394 282 q 394 317 361 343 q 328 369 278 369 l 278 369 q 202 369 157 318 q 111 266 102 181 l 102 181 l 105 178 q 128 215 146 229 l 146 229 q 168 246 204 246 l 204 246 q 250 246 283 204 q 315 162 315 112 l 315 112 q 315 56 285 24 q 254 -9 206 -9 l 206 -9 q 140 -9 104 46 l 104 46 q 72 93 72 164 l 72 164 q 72 273 136 345 l 136 345 q 203 421 311 421 l 311 421 q 411 421 454 348 l 454 348 q 499 421 600 421 l 600 421 q 662 421 709 386 l 709 386 q 753 353 753 313 l 753 313 q 753 245 692 213 l 692 213 q 730 204 754 178 q 778 152 778 120 l 778 120 q 778 70 734 32 l 734 32 q 687 -9 616 -9 l 616 -9 q 559 -9 539 0 l 539 0 l 527 54 q 568 31 597 31 l 597 31 q 637 31 669 55 q 700 79 700 113 l 700 113 q 700 193 600 193 l 600 193 l 542 193 l 542 225 q 602 225 639 244 q 675 263 675 299 l 675 299 q 675 329 649 352 q 623 375 583 375 l 583 375 q 541 375 510 358 l 510 358 q 472 337 472 301 l 472 301 l 472 0 z m 118 124 l 118 124 q 118 95 139 69 q 159 43 186 43 l 186 43 q 217 43 236 69 l 236 69 q 253 92 253 118 l 253 118 q 253 151 235 176 q 217 200 188 200 l 188 200 q 157 200 138 179 q 118 157 118 124 z"},"º":{"ha":715,"x_min":68,"x_max":709,"o":"m 68 32 l 258 32 q 282 40 306 70 l 306 70 q 333 105 333 142 l 333 142 q 333 172 313 197 q 292 221 263 221 l 263 221 q 231 221 211 198 q 190 174 190 140 l 190 140 q 190 121 198 108 l 198 108 l 158 108 q 148 128 148 160 l 148 160 q 148 212 181 246 q 214 279 271 279 l 271 279 q 334 279 374 236 l 374 236 q 411 197 411 146 l 411 146 q 411 85 364 32 l 364 32 l 631 32 l 623 414 l 701 414 l 709 0 l 68 0 l 68 32 z"},"»":{"ha":950,"x_min":68,"x_max":946,"o":"m 654 0 l 68 0 l 68 32 l 258 32 q 282 40 306 70 l 306 70 q 333 105 333 142 l 333 142 q 333 172 313 197 q 292 221 263 221 l 263 221 q 231 221 211 198 q 190 174 190 140 l 190 140 q 190 121 198 108 l 198 108 l 158 108 q 148 128 148 160 l 148 160 q 148 212 181 246 q 214 279 271 279 l 271 279 q 334 279 374 236 l 374 236 q 411 197 411 146 l 411 146 q 411 85 364 32 l 364 32 l 578 32 q 520 114 520 198 l 520 198 q 520 291 580 356 q 640 421 735 421 l 735 421 q 823 421 886 349 l 886 349 q 946 280 946 189 l 946 189 q 946 105 907 48 q 868 -9 808 -9 l 808 -9 q 760 -9 723 35 q 686 78 686 140 l 686 140 q 686 263 791 348 l 791 348 q 773 363 732 363 l 732 363 q 662 363 612 309 q 562 254 562 182 l 562 182 q 562 131 590 81 q 618 30 655 7 l 655 7 l 654 0 z m 818 328 l 818 328 q 722 250 722 156 l 722 156 q 722 114 746 82 q 769 49 796 49 l 796 49 q 828 49 851 85 q 874 120 874 176 l 874 176 q 874 223 856 269 l 856 269 q 839 312 818 328 z"},"¼":{"ha":670,"x_min":72,"x_max":666,"o":"m 409 236 l 331 236 l 331 296 q 331 342 298 368 l 298 368 q 269 392 224 392 l 224 392 q 167 392 135 357 l 135 357 l 137 354 q 149 362 169 362 l 169 362 q 196 362 218 343 l 218 343 q 242 321 242 287 l 242 287 q 242 248 218 223 q 193 198 166 198 l 166 198 q 126 198 99 225 q 72 252 72 292 l 72 292 q 72 346 124 387 q 175 428 243 428 l 243 428 q 348 428 393 377 l 393 377 q 403 392 435 408 l 435 408 q 476 428 521 428 l 521 428 q 574 428 619 393 l 619 393 q 666 355 666 303 l 666 303 q 666 242 619 204 l 619 204 q 567 162 467 162 l 467 162 l 303 162 q 166 162 166 95 l 166 95 q 166 49 229 49 l 229 49 q 282 49 363 86 l 363 86 q 516 156 567 156 l 567 156 q 606 156 634 132 q 661 108 661 74 l 661 74 q 661 36 634 14 q 606 -9 569 -9 l 569 -9 q 531 -9 505 13 q 479 34 479 65 l 479 65 q 479 89 491 105 l 491 105 l 489 107 q 418 81 350 42 l 350 42 q 260 -9 199 -9 l 199 -9 q 152 -9 118 19 l 118 19 q 88 45 88 76 l 88 76 q 88 198 283 198 l 283 198 l 453 198 q 505 198 547 228 q 588 257 588 296 l 588 296 q 588 388 493 388 l 493 388 q 457 388 434 368 l 434 368 q 409 345 409 306 l 409 306 l 409 236 z m 147 330 l 147 330 q 130 330 119 316 q 108 302 108 282 l 108 282 q 108 261 119 248 q 130 234 147 234 l 147 234 q 164 234 176 248 q 187 261 187 282 l 187 282 q 187 302 176 316 q 165 330 147 330 z m 562 37 l 562 37 q 604 37 606 80 l 606 80 q 608 120 562 124 l 562 124 q 517 121 515 80 l 515 80 q 514 61 528 49 q 541 37 562 37 z"},"½":{"ha":1174,"x_min":72,"x_max":1170,"o":"m 837 414 l 915 414 l 915 155 q 915 49 989 49 l 989 49 q 1040 49 1082 94 l 1082 94 q 1128 143 1128 216 l 1128 216 q 1128 321 1018 397 l 1018 397 l 1044 421 q 1099 379 1133 323 l 1133 323 q 1170 263 1170 207 l 1170 207 q 1170 107 1108 45 l 1108 45 q 1054 -9 988 -9 l 988 -9 q 894 -9 855 61 l 855 61 q 809 -9 729 -9 l 729 -9 q 668 -9 628 40 q 587 89 585 163 l 585 163 l 583 249 q 582 305 551 340 q 520 375 470 375 l 470 375 q 431 375 416 368 l 416 368 q 517 285 517 169 l 517 169 q 517 100 480 48 l 480 48 q 439 -9 374 -9 l 374 -9 q 322 -9 282 42 q 242 92 242 164 l 242 164 q 242 218 271 274 l 271 274 q 299 326 340 358 l 340 358 q 319 369 275 369 l 275 369 q 215 369 166 318 l 166 318 q 114 266 114 198 l 114 198 q 114 74 203 7 l 203 7 l 172 -9 q 72 72 72 211 l 72 211 q 72 297 130 359 q 187 421 275 421 l 275 421 q 334 421 383 393 l 383 393 q 438 421 499 421 l 499 421 q 570 421 611 374 l 611 374 q 649 331 651 258 l 651 258 l 653 178 q 657 37 749 37 l 749 37 q 785 37 811 57 q 837 76 837 110 l 837 110 l 837 414 z m 361 49 l 361 49 q 399 49 424 85 q 449 120 449 170 l 449 170 q 449 272 367 343 l 367 343 q 272 267 272 163 l 272 163 q 272 112 303 78 l 303 78 q 329 49 361 49 z"},"¾":{"ha":1042,"x_min":72,"x_max":1038,"o":"m 394 0 l 394 282 q 394 317 361 343 q 328 369 278 369 l 278 369 q 202 369 157 318 q 111 266 102 181 l 102 181 l 105 178 q 128 215 146 229 l 146 229 q 168 246 204 246 l 204 246 q 250 246 283 204 q 315 162 315 112 l 315 112 q 315 56 285 24 q 254 -9 206 -9 l 206 -9 q 140 -9 104 46 l 104 46 q 72 93 72 164 l 72 164 q 72 273 136 345 l 136 345 q 203 421 311 421 l 311 421 q 411 421 454 348 l 454 348 q 470 379 506 400 q 542 421 580 421 l 580 421 q 639 421 688 393 l 688 393 q 743 421 804 421 l 804 421 q 904 421 971 355 q 1038 289 1038 193 l 1038 193 q 1038 143 1008 89 q 977 35 923 -9 l 923 -9 l 877 7 q 960 90 960 181 l 960 181 q 960 264 905 323 q 850 381 775 381 l 775 381 q 741 381 719 371 l 719 371 q 822 284 822 169 l 822 169 q 822 100 785 48 l 785 48 q 744 -9 679 -9 l 679 -9 q 627 -9 587 42 q 547 92 547 164 l 547 164 q 547 218 576 274 l 576 274 q 604 326 645 358 l 645 358 q 621 369 580 369 l 580 369 q 539 369 507 346 l 507 346 q 472 320 472 282 l 472 282 l 472 0 l 394 0 z m 118 124 l 118 124 q 118 95 139 69 q 159 43 186 43 l 186 43 q 217 43 236 69 l 236 69 q 253 92 253 118 l 253 118 q 253 151 235 176 q 217 200 188 200 l 188 200 q 157 200 138 179 q 118 157 118 124 z m 666 49 l 666 49 q 704 49 729 85 q 754 120 754 170 l 754 170 q 754 272 672 343 l 672 343 q 577 267 577 163 l 577 163 q 577 112 608 78 l 608 78 q 634 49 666 49 z"},"¿":{"ha":458,"x_min":72,"x_max":452,"o":"m 81 49 l 83 95 q 179 37 252 37 l 252 37 q 311 37 350 68 l 350 68 q 384 95 384 125 l 384 125 q 384 153 365 164 q 346 174 289 174 l 289 174 q 272 174 242 172 q 212 169 194 169 l 194 169 q 140 169 106 198 q 72 227 72 273 l 72 273 q 72 335 125 378 q 177 421 261 421 l 261 421 q 311 421 366 401 l 366 401 q 417 381 446 354 l 446 354 l 421 329 q 363 381 270 381 l 270 381 q 210 381 172 352 q 134 322 134 285 l 134 285 q 134 265 154 253 q 173 241 201 241 l 201 241 q 219 241 252 243 q 284 245 296 245 l 296 245 q 452 245 452 137 l 452 137 q 452 74 392 31 l 392 31 q 336 -9 262 -9 l 262 -9 q 174 -9 81 49 l 81 49 z"},"À":{"ha":502,"x_min":72,"x_max":498,"o":"m 277 421 l 277 421 q 374 421 436 358 q 498 295 498 204 l 498 204 q 498 116 436 54 q 373 -9 282 -9 l 282 -9 q 194 -9 133 50 q 72 108 72 197 l 72 197 q 72 295 131 358 q 190 421 277 421 z m 102 207 l 102 207 q 102 141 150 92 q 197 43 262 43 l 262 43 q 326 43 373 90 q 420 137 420 201 l 420 201 q 420 267 374 315 q 327 363 261 363 l 261 363 q 195 363 149 317 q 102 271 102 207 z"},"Á":{"ha":928,"x_min":72,"x_max":924,"o":"m 219 13 l 198 -9 q 144 23 110 77 l 110 77 q 72 138 72 207 l 72 207 q 72 301 122 361 q 171 421 247 421 l 247 421 q 308 421 347 380 l 347 380 q 388 336 388 258 l 388 258 l 388 172 q 388 37 503 37 l 503 37 q 539 37 565 57 q 591 76 591 110 l 591 110 l 591 414 l 669 414 l 669 155 q 669 49 743 49 l 743 49 q 794 49 836 94 l 836 94 q 882 143 882 216 l 882 216 q 882 321 772 397 l 772 397 l 798 421 q 853 379 887 323 l 887 323 q 924 263 924 207 l 924 207 q 924 107 862 45 l 862 45 q 808 -9 742 -9 l 742 -9 q 648 -9 609 61 l 609 61 q 563 -9 483 -9 l 483 -9 q 418 -9 373 31 l 373 31 q 320 77 320 163 l 320 163 l 320 249 q 320 301 299 332 q 277 363 242 363 l 242 363 q 192 363 155 319 l 155 319 q 114 271 114 198 l 114 198 q 114 84 219 13 l 219 13 z"},"Â":{"ha":969,"x_min":72,"x_max":965,"o":"m 586 113 l 586 414 l 664 414 l 664 151 q 664 100 704 67 l 704 67 q 741 37 789 37 l 789 37 q 861 37 900 95 l 900 95 q 935 148 935 236 l 935 236 l 936 234 l 934 236 q 913 200 895 186 l 895 186 q 873 168 837 168 l 837 168 q 791 168 759 210 q 726 252 726 302 l 726 302 q 726 358 757 390 q 787 421 835 421 l 835 421 q 901 421 935 364 l 935 364 q 965 314 965 231 l 965 231 q 965 122 910 57 q 855 -9 757 -9 l 757 -9 q 714 -9 675 8 l 675 8 q 630 28 610 63 l 610 63 q 565 -9 478 -9 l 478 -9 q 417 -9 373 31 l 373 31 q 320 78 320 163 l 320 163 l 320 249 q 320 301 299 332 q 277 363 242 363 l 242 363 q 192 363 155 319 l 155 319 q 114 271 114 198 l 114 198 q 114 84 219 13 l 219 13 l 198 -9 q 144 23 110 77 l 110 77 q 72 138 72 207 l 72 207 q 72 301 123 361 q 174 421 247 421 l 247 421 q 308 421 347 380 l 347 380 q 388 336 388 258 l 388 258 l 388 172 q 388 37 498 37 l 498 37 q 533 37 560 58 q 586 79 586 113 l 586 113 z m 923 289 l 923 289 q 923 319 903 347 q 882 375 855 375 l 855 375 q 824 375 806 354 q 788 332 788 306 l 788 306 q 788 267 806 241 q 824 214 853 214 l 853 214 q 883 214 903 236 q 923 258 923 289 z"},"Ã":{"ha":1036,"x_min":72,"x_max":1032,"o":"m 666 0 l 666 259 q 666 309 634 339 q 602 369 559 369 l 559 369 q 522 369 497 350 q 472 330 472 302 l 472 302 l 472 0 l 394 0 l 394 282 q 394 317 361 343 q 328 369 278 369 l 278 369 q 202 369 157 318 q 111 266 102 181 l 102 181 l 105 178 q 128 215 146 229 l 146 229 q 168 246 204 246 l 204 246 q 250 246 283 204 q 315 162 315 112 l 315 112 q 315 56 285 24 q 254 -9 206 -9 l 206 -9 q 140 -9 104 46 l 104 46 q 72 93 72 164 l 72 164 q 72 273 136 345 l 136 345 q 203 421 311 421 l 311 421 q 412 421 455 348 l 455 348 q 500 421 582 421 l 582 421 q 683 421 726 353 l 726 353 q 743 384 778 403 q 812 421 852 421 l 852 421 q 926 421 979 359 q 1032 297 1032 207 l 1032 207 q 1032 95 897 -9 l 897 -9 l 856 10 q 954 111 954 205 l 954 205 q 954 287 910 335 l 910 335 q 873 375 832 375 l 832 375 q 797 375 772 355 l 772 355 q 744 333 744 299 l 744 299 l 744 0 l 666 0 z m 118 124 l 118 124 q 118 95 139 69 q 159 43 186 43 l 186 43 q 217 43 236 69 l 236 69 q 253 92 253 118 l 253 118 q 253 151 235 176 q 217 200 188 200 l 188 200 q 157 200 138 179 q 118 157 118 124 z"},"Ä":{"ha":737,"x_min":72,"x_max":733,"o":"m 618 -9 l 572 7 q 655 90 655 181 l 655 181 q 655 264 600 323 q 545 381 470 381 l 470 381 q 433 381 414 371 l 414 371 q 517 284 517 169 l 517 169 q 517 100 480 48 l 480 48 q 439 -9 374 -9 l 374 -9 q 322 -9 282 42 q 242 92 242 164 l 242 164 q 242 218 271 274 l 271 274 q 299 326 340 358 l 340 358 q 319 369 275 369 l 275 369 q 215 369 166 318 l 166 318 q 114 266 114 198 l 114 198 q 114 74 203 7 l 203 7 l 172 -9 q 72 72 72 211 l 72 211 q 72 297 130 359 q 187 421 275 421 l 275 421 q 334 421 383 393 l 383 393 q 438 421 499 421 l 499 421 q 599 421 666 355 q 733 289 733 193 l 733 193 q 733 143 703 89 q 672 35 618 -9 l 618 -9 z m 361 49 l 361 49 q 399 49 424 85 q 449 120 449 170 l 449 170 q 449 272 367 343 l 367 343 q 272 267 272 163 l 272 163 q 272 112 303 78 l 303 78 q 329 49 361 49 z"},"Å":{"ha":704,"x_min":84,"x_max":698,"o":"m 317 32 l 317 244 q 317 325 369 373 q 420 421 508 421 l 508 421 q 594 421 646 367 q 698 312 698 221 l 698 221 l 698 0 l 84 0 l 84 414 l 162 414 l 162 32 l 317 32 z m 668 32 l 668 182 q 668 369 526 369 l 526 369 q 395 369 395 225 l 395 225 l 395 32 l 668 32 z"},"Æ":{"ha":466,"x_min":72,"x_max":462,"o":"m 135 0 l 98 -9 q 72 97 72 169 l 72 169 q 72 292 138 360 l 138 360 q 197 421 288 421 l 288 421 q 348 421 393 387 q 437 353 437 313 l 437 313 q 437 245 376 213 l 376 213 q 414 204 438 178 q 462 152 462 120 l 462 120 q 462 70 418 32 l 418 32 q 371 -9 300 -9 l 300 -9 q 236 -9 223 -2 l 223 -2 l 211 54 q 252 31 281 31 l 281 31 q 321 31 353 55 q 384 79 384 113 l 384 113 q 384 193 284 193 l 284 193 l 226 193 l 226 225 q 286 225 323 245 q 359 264 359 301 l 359 301 q 359 331 333 353 q 306 375 264 375 l 264 375 q 193 375 151 318 q 108 260 108 164 l 108 164 q 108 93 135 0 l 135 0 z"},"Ç":{"ha":697,"x_min":72,"x_max":693,"o":"m 360 414 l 438 414 l 438 155 q 438 49 512 49 l 512 49 q 563 49 605 94 l 605 94 q 651 143 651 216 l 651 216 q 651 321 541 397 l 541 397 l 567 421 q 622 379 656 323 l 656 323 q 693 263 693 207 l 693 207 q 693 107 631 45 l 631 45 q 577 -9 511 -9 l 511 -9 q 417 -9 378 61 l 378 61 q 332 -9 252 -9 l 252 -9 q 178 -9 125 53 q 72 114 72 203 l 72 203 q 72 264 100 311 l 100 311 q 131 363 207 421 l 207 421 l 248 402 q 150 298 150 205 l 150 205 q 150 125 195 76 l 195 76 q 231 37 272 37 l 272 37 q 308 37 334 57 q 360 76 360 110 l 360 110 l 360 414 z"},"È":{"ha":697,"x_min":72,"x_max":693,"o":"m 558 -9 l 517 10 q 615 111 615 205 l 615 205 q 615 287 571 335 l 571 335 q 534 375 493 375 l 493 375 q 458 375 433 355 l 433 355 q 405 333 405 299 l 405 299 l 405 0 l 327 0 l 327 259 q 327 308 304 337 l 304 337 q 283 363 253 363 l 253 363 q 201 363 160 319 l 160 319 q 114 271 114 198 l 114 198 q 114 94 224 15 l 224 15 l 198 -9 q 143 35 109 91 l 109 91 q 72 152 72 207 l 72 207 q 72 307 135 368 l 135 368 q 188 421 254 421 l 254 421 q 349 421 387 353 l 387 353 q 404 384 439 403 q 473 421 513 421 l 513 421 q 587 421 640 359 q 693 297 693 207 l 693 207 q 693 95 558 -9 l 558 -9 z"},"É":{"ha":692,"x_min":72,"x_max":686,"o":"m 361 32 l 608 32 l 600 414 l 678 414 l 686 0 l 249 0 l 249 7 q 316 49 316 123 l 316 123 q 316 161 292 190 l 292 190 q 265 221 222 221 l 222 221 q 175 221 145 190 q 114 159 114 116 l 114 116 q 114 62 162 14 l 162 14 l 134 -9 q 72 57 72 134 l 72 134 q 72 192 113 233 l 113 233 q 159 279 237 279 l 237 279 q 307 279 352 232 l 352 232 q 394 188 394 126 l 394 126 q 394 71 361 32 l 361 32 z"},"Ê":{"ha":500,"x_min":0,"x_max":0,"o":""},"Ë":{"ha":909,"x_min":72,"x_max":903,"o":"m 522 32 l 522 244 q 522 325 574 373 q 625 421 713 421 l 713 421 q 799 421 851 367 q 903 312 903 221 l 903 221 l 903 0 l 249 0 l 249 7 q 316 49 316 123 l 316 123 q 316 161 292 190 l 292 190 q 265 221 222 221 l 222 221 q 175 221 145 190 q 114 159 114 116 l 114 116 q 114 62 162 14 l 162 14 l 134 -9 q 72 57 72 134 l 72 134 q 72 192 113 233 l 113 233 q 159 279 237 279 l 237 279 q 307 279 352 232 l 352 232 q 394 188 394 126 l 394 126 q 394 71 361 32 l 361 32 l 522 32 z m 600 32 l 873 32 l 873 182 q 873 369 731 369 l 731 369 q 600 369 600 225 l 600 225 l 600 32 z"},"Ì":{"ha":987,"x_min":72,"x_max":981,"o":"m 584 0 l 584 23 q 684 106 684 206 l 684 206 q 684 278 648 327 q 612 375 557 375 l 557 375 q 521 375 497 356 q 472 336 472 301 l 472 301 l 472 0 l 394 0 l 394 282 q 394 317 361 343 q 328 369 278 369 l 278 369 q 202 369 157 318 q 111 266 102 181 l 102 181 l 105 178 q 128 215 146 229 l 146 229 q 168 246 204 246 l 204 246 q 250 246 283 204 q 315 162 315 112 l 315 112 q 315 56 285 24 q 254 -9 206 -9 l 206 -9 q 140 -9 104 46 l 104 46 q 72 93 72 164 l 72 164 q 72 273 136 345 l 136 345 q 203 421 311 421 l 311 421 q 410 421 455 347 l 455 347 q 469 375 504 398 q 538 421 579 421 l 579 421 q 654 421 708 359 q 762 296 762 214 l 762 214 q 762 118 670 36 l 670 36 l 672 32 l 903 32 l 895 414 l 973 414 l 981 0 l 584 0 z m 118 124 l 118 124 q 118 95 139 69 q 159 43 186 43 l 186 43 q 217 43 236 69 l 236 69 q 253 92 253 118 l 253 118 q 253 151 235 176 q 217 200 188 200 l 188 200 q 157 200 138 179 q 118 157 118 124 z"},"Í":{"ha":474,"x_min":72,"x_max":470,"o":"m 136 0 l 97 -9 q 72 104 72 170 l 72 170 q 72 296 135 362 l 135 362 q 191 421 288 421 l 288 421 q 361 421 413 383 q 465 345 465 292 l 465 292 q 465 264 444 243 q 423 221 391 221 l 391 221 q 369 221 345 228 q 320 234 308 234 l 308 234 q 285 234 267 221 q 249 208 249 190 l 249 190 q 249 154 320 154 l 320 154 q 335 155 380 157 l 380 157 q 416 158 441 141 l 441 141 q 470 120 470 82 l 470 82 q 470 40 434 13 q 398 -15 333 -15 l 333 -15 q 247 -15 176 1 l 176 1 l 167 50 q 232 31 300 31 l 300 31 q 392 31 392 79 l 392 79 q 392 117 312 117 l 312 117 q 171 117 171 188 l 171 188 q 171 224 195 247 q 218 270 257 270 l 257 270 q 276 270 308 266 q 340 262 350 262 l 350 262 q 365 262 376 275 q 387 287 387 301 l 387 301 q 387 331 356 353 q 324 375 277 375 l 277 375 q 108 375 108 163 l 108 163 q 108 99 136 0 l 136 0 z"},"Î":{"ha":492,"x_min":84,"x_max":486,"o":"m 84 0 l 84 132 q 84 227 87 251 l 87 251 q 94 316 127 362 l 127 362 q 169 421 280 421 l 280 421 q 486 421 486 171 l 486 171 l 486 0 l 84 0 z m 114 198 l 114 32 q 284 155 284 285 l 284 285 q 284 322 263 346 q 242 369 213 369 l 213 369 q 114 369 114 198 l 114 198 z m 203 32 l 438 32 l 438 173 q 438 389 286 389 l 286 389 l 286 387 q 352 343 352 270 l 352 270 q 352 215 327 171 l 327 171 q 295 116 203 32 l 203 32 z"},"Ï":{"ha":745,"x_min":72,"x_max":741,"o":"m 634 397 l 659 421 q 707 361 725 316 l 725 316 q 741 276 741 228 l 741 228 q 741 139 687 72 l 687 72 q 622 -9 509 -9 l 509 -9 q 454 -9 432 3 l 432 3 q 396 -9 341 -9 l 341 -9 q 231 -9 152 61 q 72 131 72 229 l 72 229 q 72 316 118 371 l 118 371 q 160 421 220 421 l 220 421 q 288 421 331 340 l 331 340 q 391 421 470 421 l 470 421 q 527 421 569 372 q 611 322 611 257 l 611 257 q 611 103 480 28 l 480 28 q 496 23 512 23 l 512 23 q 587 23 646 84 q 705 145 705 230 l 705 230 q 705 326 634 397 l 634 397 z m 198 363 l 198 363 q 159 363 131 323 q 102 283 102 228 l 102 228 q 102 137 184 74 l 184 74 q 251 23 332 23 l 332 23 q 368 23 387 28 l 387 28 q 351 47 316 106 l 316 106 q 277 172 277 238 l 277 238 q 277 296 252 331 l 252 331 q 230 363 198 363 z m 438 45 l 438 45 q 484 67 513 122 l 513 122 q 539 174 539 229 l 539 229 q 539 286 511 328 q 483 369 440 369 l 440 369 l 439 369 q 394 369 365 324 l 365 324 q 339 284 339 234 l 339 234 q 339 177 367 123 q 395 68 438 45 z"},"Ð":{"ha":733,"x_min":70,"x_max":729,"o":"m 350 0 l 350 0 q 310 17 285 66 l 285 66 q 256 -9 193 -9 l 193 -9 q 149 -9 113 22 l 113 22 q 70 60 70 126 l 70 126 q 70 179 103 209 q 136 239 198 239 l 198 239 l 262 239 q 262 313 296 365 l 296 365 q 333 421 394 421 l 394 421 q 455 421 495 370 l 495 370 q 532 321 540 239 l 540 239 l 602 239 q 655 239 690 209 l 690 209 q 729 175 729 111 l 729 111 q 729 74 709 43 q 689 12 657 -2 l 657 -2 q 729 -62 729 -138 l 729 -138 q 729 -194 692 -235 q 654 -277 596 -277 l 596 -277 q 546 -277 519 -240 q 492 -203 492 -138 l 492 -138 q 492 -22 399 -22 l 399 -22 q 337 -22 293 -70 l 293 -70 l 295 -72 q 314 -64 330 -64 l 330 -64 q 372 -64 401 -95 q 430 -127 430 -179 l 430 -179 q 430 -231 399 -260 l 399 -260 q 375 -282 346 -282 l 346 -282 q 302 -282 270 -249 l 270 -249 q 235 -213 235 -156 l 235 -156 q 235 -104 267 -61 q 298 -18 350 0 z m 475 207 l 292 207 q 286 123 315 77 l 315 77 q 339 37 379 37 l 379 37 q 426 37 453 85 q 479 132 475 207 l 475 207 z m 313 -116 l 313 -116 q 285 -116 269 -127 l 269 -127 q 265 -138 265 -155 l 265 -155 q 265 -242 341 -242 l 341 -242 q 361 -242 375 -226 q 388 -210 388 -188 l 388 -188 q 388 -154 367 -135 q 346 -116 313 -116 z m 624 -9 l 624 -9 l 620 -9 q 585 -9 561 8 l 561 8 l 556 53 q 577 38 593 38 l 593 38 q 619 38 640 60 q 661 81 661 122 l 661 122 q 661 207 580 207 l 580 207 l 543 207 q 546 54 454 5 l 454 5 q 547 -19 547 -133 l 547 -133 q 547 -231 612 -231 l 612 -231 q 644 -231 669 -204 q 693 -177 693 -142 l 693 -142 q 693 -58 624 -9 z m 262 207 l 230 207 q 138 207 138 131 l 138 131 q 138 95 157 66 q 175 37 203 37 l 203 37 q 231 37 247 62 q 262 87 262 127 l 262 127 l 262 207 z m 292 239 l 475 239 q 472 293 447 331 q 421 369 381 369 l 381 369 q 345 369 320 337 l 320 337 q 292 302 292 239 l 292 239 z"},"Ñ":{"ha":1,"x_min":0,"x_max":0,"o":""},"Ò":{"ha":734,"x_min":31,"x_max":704,"o":"m 290 392 l 368 634 l 445 392 l 704 392 l 495 236 l 576 -13 l 368 140 l 160 -13 l 242 236 l 31 392 l 290 392 z"},"Ó":{"ha":709,"x_min":31,"x_max":679,"o":"m 679 311 l 355 -13 l 31 311 l 355 634 l 679 311 z"},"Ô":{"ha":1,"x_min":0,"x_max":0,"o":""},"Õ":{"ha":697,"x_min":72,"x_max":691,"o":"m 216 16 l 200 -9 q 140 29 106 84 q 72 139 72 197 l 72 197 q 72 285 124 348 l 124 348 q 184 421 289 421 l 289 421 q 368 421 425 360 q 481 298 481 213 l 481 213 q 481 116 403 32 l 403 32 l 613 32 l 605 414 l 683 414 l 691 0 l 302 0 l 302 19 q 403 93 403 185 l 403 185 q 403 252 365 298 q 326 343 263 343 l 263 343 q 199 343 157 302 q 114 260 114 190 l 114 190 q 114 78 216 16 l 216 16 z"},"Ö":{"ha":738,"x_min":72,"x_max":734,"o":"m 394 221 l 394 221 l 394 161 q 394 88 350 40 q 306 -9 248 -9 l 248 -9 q 173 -9 121 56 l 121 56 q 72 116 72 194 l 72 194 q 72 259 111 323 q 149 387 207 421 l 207 421 l 227 397 q 114 316 114 200 l 114 200 q 114 139 151 94 q 188 49 240 49 l 240 49 q 277 49 300 82 l 300 82 q 326 119 326 190 l 326 190 l 326 257 q 326 333 376 378 l 376 378 q 423 421 493 421 l 493 421 q 609 421 675 347 l 675 347 q 734 282 734 189 l 734 189 q 734 105 695 48 q 656 -9 596 -9 l 596 -9 q 548 -9 511 35 q 474 78 474 140 l 474 140 q 474 264 587 354 l 587 354 q 556 381 505 381 l 505 381 q 453 381 424 339 q 394 296 394 221 z m 611 332 l 611 332 q 510 250 510 156 l 510 156 q 510 114 534 82 q 557 49 584 49 l 584 49 q 616 49 639 85 q 662 120 662 176 l 662 176 q 662 283 611 332 z"},"×":{"ha":890,"x_min":72,"x_max":884,"o":"m 619 287 l 619 202 q 681 219 756 288 q 830 356 848 414 l 848 414 l 876 414 l 884 0 l 249 0 l 249 7 q 316 49 316 123 l 316 123 q 316 161 292 190 l 292 190 q 265 221 222 221 l 222 221 q 175 221 145 190 q 114 159 114 116 l 114 116 q 114 62 162 14 l 162 14 l 134 -9 q 72 57 72 134 l 72 134 q 72 192 113 233 l 113 233 q 159 279 237 279 l 237 279 q 307 279 352 232 l 352 232 q 394 188 394 126 l 394 126 q 394 71 361 32 l 361 32 l 541 32 l 541 167 q 482 167 437 209 q 392 251 392 308 l 392 308 q 392 353 427 387 q 462 421 511 421 l 511 421 q 619 421 619 287 l 619 287 z m 619 173 l 619 32 l 805 32 l 799 293 q 767 254 712 218 q 656 181 619 173 l 619 173 z m 541 199 l 541 311 q 541 369 489 369 l 489 369 q 469 369 455 350 q 440 330 440 301 l 440 301 q 440 264 467 235 l 467 235 q 496 203 541 199 l 541 199 z"},"Ø":{"ha":928,"x_min":72,"x_max":924,"o":"m 405 0 l 327 0 l 327 259 q 327 308 304 337 l 304 337 q 283 363 253 363 l 253 363 q 201 363 160 319 l 160 319 q 114 271 114 198 l 114 198 q 114 94 224 15 l 224 15 l 198 -9 q 143 35 109 91 l 109 91 q 72 152 72 207 l 72 207 q 72 307 135 368 l 135 368 q 188 421 254 421 l 254 421 q 349 421 387 353 l 387 353 q 404 384 439 403 q 473 421 513 421 l 513 421 q 574 421 618 382 l 618 382 q 671 334 671 249 l 671 249 l 671 163 q 671 112 692 81 q 712 49 743 49 l 743 49 q 797 49 840 98 q 882 147 882 211 l 882 211 q 882 259 849 314 q 816 369 768 399 l 768 399 l 793 421 q 855 373 890 310 q 924 247 924 186 l 924 186 q 924 115 874 56 l 874 56 q 818 -9 733 -9 l 733 -9 q 679 -9 643 32 l 643 32 q 603 77 603 154 l 603 154 l 603 240 q 603 375 493 375 l 493 375 q 458 375 433 355 l 433 355 q 405 333 405 299 l 405 299 l 405 0 z"},"Ù":{"ha":927,"x_min":72,"x_max":923,"o":"m 361 32 l 590 32 q 560 61 539 108 q 517 155 517 200 l 517 200 q 517 286 573 351 l 573 351 q 632 421 722 421 l 722 421 q 807 421 865 360 q 923 299 923 213 l 923 213 q 923 153 889 96 l 889 96 q 852 34 780 -9 l 780 -9 l 754 29 q 845 90 845 185 l 845 185 q 845 252 807 298 q 768 343 705 343 l 705 343 q 641 343 600 302 q 559 260 559 190 l 559 190 q 559 129 595 76 q 631 23 683 7 l 683 7 l 683 0 l 249 0 l 249 7 q 316 49 316 123 l 316 123 q 316 161 292 190 l 292 190 q 265 221 222 221 l 222 221 q 175 221 145 190 q 114 159 114 116 l 114 116 q 114 62 162 14 l 162 14 l 134 -9 q 72 57 72 134 l 72 134 q 72 192 113 233 l 113 233 q 159 279 237 279 l 237 279 q 307 279 352 232 l 352 232 q 394 188 394 126 l 394 126 q 394 71 361 32 l 361 32 z"},"Ú":{"ha":935,"x_min":72,"x_max":931,"o":"m 114 190 l 114 190 q 114 78 216 16 l 216 16 l 200 -9 q 140 29 106 84 q 72 139 72 197 l 72 197 q 72 285 124 348 l 124 348 q 184 421 289 421 l 289 421 q 368 421 425 360 q 481 298 481 213 l 481 213 q 481 153 447 96 l 447 96 q 410 34 338 -9 l 338 -9 l 312 29 q 403 90 403 185 l 403 185 q 403 252 365 298 q 326 343 263 343 l 263 343 q 199 343 157 302 q 114 260 114 190 z m 564 190 l 564 190 q 564 78 666 16 l 666 16 l 650 -9 q 590 29 556 84 q 522 139 522 197 l 522 197 q 522 285 574 348 l 574 348 q 634 421 739 421 l 739 421 q 818 421 875 360 q 931 298 931 213 l 931 213 q 931 153 897 96 l 897 96 q 860 34 788 -9 l 788 -9 l 762 29 q 853 90 853 185 l 853 185 q 853 252 815 298 q 776 343 713 343 l 713 343 q 649 343 607 302 q 564 260 564 190 z"},"Û":{"ha":738,"x_min":72,"x_max":734,"o":"m 324 -18 l 345 -35 q 273 -84 273 -170 l 273 -170 q 273 -205 298 -232 q 322 -259 354 -259 l 354 -259 q 419 -259 419 -161 l 419 -161 q 419 -93 455 -55 q 491 -18 555 -18 l 555 -18 q 631 -18 681 -69 q 730 -120 730 -195 l 730 -195 q 730 -246 699 -280 q 667 -315 624 -315 l 624 -315 q 583 -315 557 -284 l 557 -284 q 533 -256 533 -216 l 533 -216 q 533 -134 616 -68 l 616 -68 q 596 -50 567 -50 l 567 -50 q 474 -50 474 -166 l 474 -166 q 474 -231 447 -268 q 420 -305 370 -305 l 370 -305 q 312 -305 275 -263 q 237 -222 237 -166 l 237 -166 q 237 -127 262 -86 q 286 -45 324 -18 l 324 -18 z m 394 221 l 394 221 l 394 161 q 394 88 350 40 q 306 -9 248 -9 l 248 -9 q 173 -9 121 56 l 121 56 q 72 116 72 194 l 72 194 q 72 259 111 323 q 149 387 207 421 l 207 421 l 227 397 q 114 316 114 200 l 114 200 q 114 139 151 94 q 188 49 240 49 l 240 49 q 277 49 300 82 l 300 82 q 326 119 326 190 l 326 190 l 326 257 q 326 333 376 378 l 376 378 q 423 421 493 421 l 493 421 q 609 421 675 347 l 675 347 q 734 282 734 189 l 734 189 q 734 105 695 48 q 656 -9 596 -9 l 596 -9 q 548 -9 511 35 q 474 78 474 140 l 474 140 q 474 264 587 354 l 587 354 q 556 381 505 381 l 505 381 q 453 381 424 339 q 394 296 394 221 z m 615 -275 l 615 -275 q 636 -275 656 -250 q 675 -226 675 -194 l 675 -194 q 675 -126 636 -88 l 636 -88 q 563 -137 563 -215 l 563 -215 q 563 -240 580 -257 q 596 -275 615 -275 z m 611 332 l 611 332 q 510 250 510 156 l 510 156 q 510 114 534 82 q 557 49 584 49 l 584 49 q 616 49 639 85 q 662 120 662 176 l 662 176 q 662 283 611 332 z"},"Ü":{"ha":686,"x_min":84,"x_max":680,"o":"m 84 0 l 84 183 q 84 316 138 371 l 138 371 q 187 421 269 421 l 269 421 q 381 421 434 352 l 434 352 q 461 317 470 259 l 470 259 q 475 226 476 151 l 476 151 l 162 151 l 162 32 l 602 32 l 594 414 l 672 414 l 680 0 l 84 0 z m 162 183 l 440 183 q 440 290 405 333 l 405 333 q 366 381 299 381 l 299 381 q 234 381 198 340 q 162 298 162 234 l 162 234 l 162 183 z"},"Ý":{"ha":477,"x_min":72,"x_max":483,"o":"m 111 49 l 135 73 q 180 25 217 25 l 217 25 q 273 25 273 88 l 273 88 q 273 101 268 119 l 268 119 q 178 119 123 167 l 123 167 q 72 212 72 275 l 72 275 q 72 358 138 428 l 138 428 l 173 395 q 140 347 140 291 l 140 291 q 140 236 178 195 q 215 153 260 151 l 260 151 q 219 214 219 286 l 219 286 q 219 343 252 382 q 285 421 343 421 l 343 421 q 398 421 441 379 q 483 337 483 281 l 483 281 q 483 230 448 190 l 448 190 q 409 144 337 125 l 337 125 q 345 104 345 81 l 345 81 q 345 40 316 13 q 287 -15 236 -15 l 236 -15 q 202 -15 167 3 q 132 21 111 49 l 111 49 z m 365 369 l 365 369 q 333 369 310 342 q 287 314 287 274 l 287 274 q 287 212 326 153 l 326 153 q 377 164 409 199 q 441 233 441 282 l 441 282 q 441 315 418 342 q 395 369 365 369 z"},"Þ":{"ha":395,"x_min":72,"x_max":391,"o":"m 72 153 l 102 153 q 122 49 199 49 l 199 49 q 252 49 286 95 q 319 141 319 213 l 319 213 q 319 278 286 327 q 253 375 208 375 l 208 375 q 120 375 102 243 l 102 243 l 72 243 q 75 319 105 365 l 105 365 q 142 421 213 421 l 213 421 q 296 421 346 357 l 346 357 q 391 297 391 211 l 391 211 q 391 119 348 58 l 348 58 q 300 -9 220 -9 l 220 -9 q 157 -9 116 31 l 116 31 q 72 75 72 153 l 72 153 z"},"ß":{"ha":207,"x_min":-81,"x_max":193,"o":"m 115 0 l 115 433 q 115 527 34 527 l 34 527 q -1 527 -24 507 q -47 486 -51 456 l -51 456 l -81 456 q -76 508 -36 544 q 3 579 58 579 l 58 579 q 116 579 151 551 l 151 551 q 193 517 193 453 l 193 453 l 193 0 l 115 0 z"},"à":{"ha":313,"x_min":24,"x_max":299,"o":"m 221 0 l 221 433 q 221 543 139 543 l 139 543 q 128 543 113 538 l 113 538 l 113 536 q 181 520 181 457 l 181 457 q 181 428 159 406 q 136 383 106 383 l 106 383 q 71 383 48 407 q 24 430 24 464 l 24 464 q 24 510 65 545 q 105 579 164 579 l 164 579 q 222 579 257 551 l 257 551 q 299 517 299 453 l 299 453 l 299 0 l 221 0 z m 100 415 l 100 415 q 122 415 137 429 q 151 443 151 463 l 151 463 q 151 486 130 503 q 109 519 79 519 l 79 519 q 54 498 54 463 l 54 463 q 54 442 67 429 q 80 415 100 415 z"},"á":{"ha":259,"x_min":41,"x_max":253,"o":"m 72 357 l 78 421 q 215 390 215 228 l 215 228 q 215 142 161 2 l 161 2 q 205 -6 229 -39 q 253 -72 253 -119 l 253 -119 q 253 -163 223 -197 q 193 -231 147 -231 l 147 -231 q 101 -231 71 -195 q 41 -159 41 -112 l 41 -112 q 41 -67 66 -36 q 90 -6 129 2 l 129 2 q 179 113 179 186 l 179 186 q 179 322 72 357 l 72 357 z m 71 -112 l 71 -112 q 71 -142 90 -163 q 109 -185 138 -185 l 138 -185 q 167 -185 186 -163 q 205 -142 205 -112 l 205 -112 q 205 -81 186 -59 q 167 -38 138 -38 l 138 -38 q 109 -38 90 -59 q 71 -81 71 -112 z"},"â":{"ha":259,"x_min":41,"x_max":253,"o":"m 72 357 l 78 421 q 215 390 215 228 l 215 228 q 215 142 161 2 l 161 2 q 205 -6 229 -39 q 253 -72 253 -119 l 253 -119 q 253 -163 223 -197 q 193 -231 147 -231 l 147 -231 q 101 -231 71 -195 q 41 -159 41 -112 l 41 -112 q 41 -67 66 -36 q 90 -6 129 2 l 129 2 q 179 113 179 186 l 179 186 q 179 322 72 357 l 72 357 z m 76 -83 l 76 -83 q 102 -115 135 -115 l 135 -115 q 171 -115 199 -81 l 199 -81 q 177 -38 138 -38 l 138 -38 q 93 -38 76 -83 z m 136 -141 l 136 -141 q 107 -141 71 -109 l 71 -109 q 71 -140 90 -162 q 109 -185 138 -185 l 138 -185 q 167 -185 186 -164 q 205 -144 205 -110 l 205 -110 q 166 -141 136 -141 z"},"ã":{"ha":296,"x_min":-3,"x_max":285,"o":"m 127 -226 l 127 -226 q 65 -226 31 -195 q -3 -164 -3 -118 l -3 -118 q -3 -66 29 -33 q 60 -1 107 -1 l 107 -1 q 149 -1 179 -36 q 209 -71 209 -113 l 209 -113 q 209 -162 171 -191 l 171 -191 l 172 -194 q 210 -183 233 -149 q 255 -116 255 -79 l 255 -79 q 255 -17 163 64 l 163 64 q 75 142 75 354 l 75 354 q 75 386 81 414 l 81 414 l 157 414 q 153 382 153 330 l 153 330 q 153 234 167 185 q 180 135 222 69 l 222 69 q 285 -29 285 -82 l 285 -82 q 285 -146 235 -188 l 235 -188 q 189 -226 127 -226 z m 45 -121 l 45 -121 q 45 -151 64 -172 q 83 -194 112 -194 l 112 -194 q 141 -194 160 -172 q 179 -151 179 -121 l 179 -121 q 179 -90 160 -68 q 141 -47 112 -47 l 112 -47 q 83 -47 64 -68 q 45 -90 45 -121 z"},"ä":{"ha":10,"x_min":-280,"x_max":-53,"o":"m -107 -65 l -107 -65 l -107 -1 l -53 0 l -53 -113 q -53 -148 -90 -174 l -90 -174 q -123 -197 -157 -197 l -157 -197 q -207 -197 -241 -177 l -241 -177 q -280 -154 -280 -113 l -280 -113 q -280 -77 -243 -59 l -243 -59 q -214 -45 -178 -45 l -178 -45 q -138 -45 -107 -65 z m -253 -113 l -253 -113 q -253 -134 -229 -147 l -229 -147 q -209 -159 -187 -159 l -187 -159 q -134 -159 -108 -131 l -108 -131 q -108 -101 -109 -98 l -109 -98 q -114 -89 -135 -81 q -156 -73 -171 -73 l -171 -73 q -253 -73 -253 -113 z"},"å":{"ha":1,"x_min":0,"x_max":0,"o":""},"æ":{"ha":510,"x_min":72,"x_max":506,"o":"m 286 421 l 286 421 q 380 421 445 352 l 445 352 q 506 287 506 204 l 506 204 q 506 86 389 -15 l 389 -15 l 343 6 q 428 80 428 188 l 428 188 q 428 266 379 319 l 379 319 q 332 369 270 369 l 270 369 q 200 369 156 315 q 111 260 102 181 l 102 181 l 105 178 q 128 215 146 229 l 146 229 q 168 246 204 246 l 204 246 q 250 246 283 204 q 315 162 315 112 l 315 112 q 315 56 285 24 q 254 -9 206 -9 l 206 -9 q 140 -9 104 46 l 104 46 q 72 93 72 164 l 72 164 q 72 265 128 339 l 128 339 q 190 421 286 421 z m 118 124 l 118 124 q 118 95 139 69 q 159 43 186 43 l 186 43 q 217 43 236 69 l 236 69 q 253 92 253 118 l 253 118 q 253 151 235 176 q 217 200 188 200 l 188 200 q 157 200 138 179 q 118 157 118 124 z"},"ç":{"ha":453,"x_min":72,"x_max":449,"o":"m 282 23 l 282 23 q 300 23 313 30 l 313 30 q 272 56 272 102 l 272 102 q 272 133 299 157 q 325 181 366 181 l 366 181 q 399 181 424 159 q 449 136 449 103 l 449 103 q 449 58 405 25 l 405 25 q 358 -9 286 -9 l 286 -9 q 191 -9 132 53 q 72 115 72 209 l 72 209 q 72 299 132 360 q 192 421 286 421 l 286 421 q 358 421 405 387 l 405 387 q 449 354 449 309 l 449 309 q 449 272 425 249 q 400 225 366 225 l 366 225 q 325 225 299 249 q 272 273 272 304 l 272 304 q 272 347 313 382 l 313 382 q 300 389 282 389 l 282 389 q 227 389 184 337 q 140 285 140 209 l 140 209 q 140 129 184 74 l 184 74 q 226 23 282 23 z m 367 149 l 367 149 q 348 149 334 135 q 320 120 320 100 l 320 100 q 320 87 333 67 q 345 46 361 37 l 361 37 q 388 43 404 65 l 404 65 q 419 84 419 105 l 419 105 q 419 121 403 135 q 386 149 367 149 z m 419 307 l 419 307 q 419 328 404 349 q 388 369 361 375 l 361 375 q 345 366 333 346 q 320 325 320 312 l 320 312 q 320 288 334 273 q 347 257 367 257 l 367 257 q 386 257 403 272 q 419 287 419 307 z"},"è":{"ha":984,"x_min":72,"x_max":986,"o":"m 286 421 l 286 421 q 380 421 445 352 l 445 352 q 506 287 506 204 l 506 204 q 506 86 389 -15 l 389 -15 l 343 6 q 428 80 428 188 l 428 188 q 428 266 379 319 l 379 319 q 332 369 270 369 l 270 369 q 200 369 156 315 q 111 260 102 181 l 102 181 l 105 178 q 128 215 146 229 l 146 229 q 168 246 204 246 l 204 246 q 250 246 283 204 q 315 162 315 112 l 315 112 q 315 56 285 24 q 254 -9 206 -9 l 206 -9 q 140 -9 104 46 l 104 46 q 72 93 72 164 l 72 164 q 72 265 128 339 l 128 339 q 190 421 286 421 z m 766 421 l 766 421 q 860 421 925 352 l 925 352 q 986 287 986 204 l 986 204 q 986 86 869 -15 l 869 -15 l 823 6 q 908 80 908 188 l 908 188 q 908 266 859 319 l 859 319 q 812 369 750 369 l 750 369 q 680 369 636 315 q 591 260 582 181 l 582 181 l 585 178 q 608 215 626 229 l 626 229 q 648 246 684 246 l 684 246 q 730 246 763 204 q 795 162 795 112 l 795 112 q 795 56 765 24 q 734 -9 686 -9 l 686 -9 q 620 -9 584 46 l 584 46 q 552 93 552 164 l 552 164 q 552 265 608 339 l 608 339 q 670 421 766 421 z m 118 124 l 118 124 q 118 95 139 69 q 159 43 186 43 l 186 43 q 217 43 236 69 l 236 69 q 253 92 253 118 l 253 118 q 253 151 235 176 q 217 200 188 200 l 188 200 q 157 200 138 179 q 118 157 118 124 z m 598 124 l 598 124 q 598 95 619 69 q 639 43 666 43 l 666 43 q 697 43 716 69 l 716 69 q 733 92 733 118 l 733 118 q 733 151 715 176 q 697 200 668 200 l 668 200 q 637 200 618 179 q 598 157 598 124 z"},"é":{"ha":1,"x_min":0,"x_max":0,"o":""},"ê":{"ha":492,"x_min":68,"x_max":544,"o":"m 68 232 l 500 232 l 544 186 l 112 186 l 68 232 z"},"ë":{"ha":352,"x_min":68,"x_max":352,"o":"m 68 232 l 308 232 l 352 186 l 112 186 l 68 232 z"},"ì":{"ha":639,"x_min":72,"x_max":635,"o":"m 105 179 l 75 179 q 72 200 72 234 l 72 234 q 72 310 107 361 l 107 361 q 148 421 224 421 l 224 421 q 263 421 300 398 l 300 398 q 333 377 343 352 l 343 352 q 356 378 389 398 l 389 398 q 427 421 473 421 l 473 421 q 545 421 590 358 q 635 294 635 194 l 635 194 q 635 110 588 54 l 588 54 q 530 -15 414 -15 l 414 -15 q 329 -15 280 20 l 280 20 q 235 52 233 102 l 233 102 l 263 102 q 267 67 303 46 q 338 25 396 25 l 396 25 q 557 25 557 204 l 557 204 q 557 281 524 328 q 490 375 435 375 l 435 375 q 407 375 385 354 q 362 332 362 306 l 362 306 l 362 176 l 284 176 l 284 269 q 284 315 261 345 q 238 375 201 375 l 201 375 q 156 375 129 333 q 102 291 102 225 l 102 225 q 102 215 105 179 l 105 179 z"},"í":{"ha":19,"x_min":-240,"x_max":13,"o":"m -237 623 l -164 623 q -168 611 -168 585 l -168 585 q -168 559 -148 540 q -128 521 -100 521 l -100 521 q -65 521 -41 548 q -17 575 -17 623 l -17 623 l 13 623 q 13 549 -22 509 q -57 469 -114 469 l -114 469 q -163 469 -200 500 l -200 500 q -240 534 -240 587 l -240 587 q -240 613 -237 623 l -237 623 z"},"î":{"ha":10,"x_min":-536,"x_max":-3,"o":"m -82 0 l -4 0 l -3 -226 l -536 -226 l -536 -221 l -82 0 z m -390 -194 l -78 -194 l -79 -38 l -390 -190 l -390 -194 z"},"ï":{"ha":10,"x_min":-495,"x_max":-1,"o":"m -109 -7 l -88 10 q -50 -17 -25 -58 q -1 -99 -1 -138 l -1 -138 q -1 -194 -38 -235 q -76 -277 -134 -277 l -134 -277 q -184 -277 -211 -240 q -238 -203 -238 -138 l -238 -138 q -238 -22 -331 -22 l -331 -22 q -393 -22 -437 -70 l -437 -70 l -435 -72 q -416 -64 -400 -64 l -400 -64 q -358 -64 -329 -95 q -300 -127 -300 -179 l -300 -179 q -300 -231 -331 -260 l -331 -260 q -355 -282 -384 -282 l -384 -282 q -428 -282 -460 -249 l -460 -249 q -495 -213 -495 -156 l -495 -156 q -495 -89 -444 -39 q -394 10 -319 10 l -319 10 q -255 10 -219 -27 q -183 -65 -183 -133 l -183 -133 q -183 -231 -118 -231 l -118 -231 q -86 -231 -61 -204 q -37 -177 -37 -142 l -37 -142 q -37 -56 -109 -7 l -109 -7 z m -417 -116 l -417 -116 q -445 -116 -461 -127 l -461 -127 q -465 -138 -465 -155 l -465 -155 q -465 -242 -389 -242 l -389 -242 q -369 -242 -355 -226 q -342 -210 -342 -188 l -342 -188 q -342 -154 -363 -135 q -384 -116 -417 -116 z"},"ð":{"ha":10,"x_min":-495,"x_max":-1,"o":"m -109 -7 l -88 10 q -50 -17 -25 -58 q -1 -99 -1 -138 l -1 -138 q -1 -194 -38 -235 q -76 -277 -134 -277 l -134 -277 q -184 -277 -211 -240 q -238 -203 -238 -138 l -238 -138 q -238 -22 -331 -22 l -331 -22 q -393 -22 -437 -70 l -437 -70 l -435 -72 q -416 -64 -400 -64 l -400 -64 q -358 -64 -329 -95 q -300 -127 -300 -179 l -300 -179 q -300 -231 -331 -260 l -331 -260 q -355 -282 -384 -282 l -384 -282 q -428 -282 -460 -249 l -460 -249 q -495 -213 -495 -156 l -495 -156 q -495 -89 -444 -39 q -394 10 -319 10 l -319 10 q -255 10 -219 -27 q -183 -65 -183 -133 l -183 -133 q -183 -231 -118 -231 l -118 -231 q -86 -231 -61 -204 q -37 -177 -37 -142 l -37 -142 q -37 -56 -109 -7 l -109 -7 z m -417 -116 l -417 -116 q -445 -116 -461 -127 l -461 -127 q -465 -138 -465 -155 l -465 -155 q -465 -242 -389 -242 l -389 -242 q -369 -242 -355 -226 q -342 -210 -342 -188 l -342 -188 q -342 -154 -363 -135 q -384 -116 -417 -116 z"},"ñ":{"ha":10,"x_min":-369,"x_max":-31,"o":"m -90 -206 l -113 -197 q -71 -157 -71 -109 l -71 -109 q -71 -66 -99 -36 q -127 -6 -165 -6 l -165 -6 q -184 -6 -194 -11 l -194 -11 q -141 -57 -141 -115 l -141 -115 q -141 -150 -160 -177 l -160 -177 q -182 -206 -215 -206 l -215 -206 q -241 -206 -261 -180 q -282 -154 -282 -117 l -282 -117 q -282 -58 -233 -17 l -233 -17 q -242 -13 -265 -13 l -265 -13 q -296 -13 -322 -39 q -348 -66 -348 -100 l -348 -100 q -348 -164 -303 -197 l -303 -197 l -318 -206 q -369 -164 -369 -93 l -369 -93 q -369 -49 -340 -17 q -311 15 -265 15 l -265 15 q -236 15 -210 0 l -210 0 q -180 15 -151 15 l -151 15 q -100 15 -65 -19 q -31 -53 -31 -102 l -31 -102 q -31 -158 -90 -206 l -90 -206 z m -221 -177 l -221 -177 q -202 -177 -189 -158 q -177 -140 -177 -114 l -177 -114 q -177 -62 -218 -25 l -218 -25 q -267 -65 -267 -117 l -267 -117 q -267 -144 -252 -160 q -238 -177 -221 -177 z"},"ò":{"ha":207,"x_min":-81,"x_max":193,"o":"m 115 0 l 115 433 q 115 527 34 527 l 34 527 q -1 527 -24 507 q -47 486 -51 456 l -51 456 l -81 456 q -76 508 -36 544 q 3 579 58 579 l 58 579 q 116 579 151 551 l 151 551 q 193 517 193 453 l 193 453 l 193 0 l 115 0 z"},"ó":{"ha":259,"x_min":41,"x_max":253,"o":"m 72 357 l 78 421 q 215 390 215 228 l 215 228 q 215 142 161 2 l 161 2 q 205 -6 229 -39 q 253 -72 253 -119 l 253 -119 q 253 -163 223 -197 q 193 -231 147 -231 l 147 -231 q 101 -231 71 -195 q 41 -159 41 -112 l 41 -112 q 41 -67 66 -36 q 90 -6 129 2 l 129 2 q 179 113 179 186 l 179 186 q 179 322 72 357 l 72 357 z m 71 -112 l 71 -112 q 71 -142 90 -163 q 109 -185 138 -185 l 138 -185 q 167 -185 186 -163 q 205 -142 205 -112 l 205 -112 q 205 -81 186 -59 q 167 -38 138 -38 l 138 -38 q 109 -38 90 -59 q 71 -81 71 -112 z"},"ô":{"ha":259,"x_min":41,"x_max":253,"o":"m 72 357 l 78 421 q 215 390 215 228 l 215 228 q 215 142 161 2 l 161 2 q 253 -15 253 -122 l 253 -122 q 253 -164 220 -197 q 187 -231 144 -231 l 144 -231 q 81 -231 41 -156 l 41 -156 l 63 -145 q 92 -191 140 -191 l 140 -191 q 167 -191 186 -168 q 205 -145 205 -110 l 205 -110 l 203 -110 q 183 -144 139 -144 l 139 -144 q 106 -144 83 -122 q 59 -101 59 -76 l 59 -76 q 59 -16 129 3 l 129 3 q 179 113 179 186 l 179 186 q 179 322 72 357 l 72 357 z m 95 -73 l 95 -73 q 95 -89 109 -100 q 122 -112 144 -112 l 144 -112 q 183 -112 199 -82 l 199 -82 q 189 -38 146 -38 l 146 -38 q 95 -38 95 -73 z"},"õ":{"ha":259,"x_min":41,"x_max":253,"o":"m 253 -119 l 253 -119 q 253 -163 223 -197 q 193 -231 147 -231 l 147 -231 q 101 -231 71 -195 q 41 -159 41 -112 l 41 -112 q 41 -65 71 -31 q 100 3 144 3 l 144 3 q 196 3 226 -36 l 226 -36 q 253 -70 253 -119 z m 76 -83 l 76 -83 q 102 -115 135 -115 l 135 -115 q 171 -115 199 -81 l 199 -81 q 177 -38 138 -38 l 138 -38 q 93 -38 76 -83 z m 136 -141 l 136 -141 q 107 -141 71 -109 l 71 -109 q 71 -140 90 -162 q 109 -185 138 -185 l 138 -185 q 167 -185 186 -164 q 205 -144 205 -110 l 205 -110 q 166 -141 136 -141 z"},"ö":{"ha":259,"x_min":41,"x_max":253,"o":"m 253 -119 l 253 -119 q 253 -163 223 -197 q 193 -231 147 -231 l 147 -231 q 101 -231 71 -195 q 41 -159 41 -112 l 41 -112 q 41 -64 71 -30 q 100 3 145 3 l 145 3 q 195 3 226 -36 l 226 -36 q 253 -70 253 -119 z m 71 -112 l 71 -112 q 71 -142 90 -163 q 109 -185 138 -185 l 138 -185 q 167 -185 186 -163 q 205 -142 205 -112 l 205 -112 q 205 -81 186 -59 q 167 -38 138 -38 l 138 -38 q 109 -38 90 -59 q 71 -81 71 -112 z"},"÷":{"ha":233,"x_min":-1,"x_max":231,"o":"m 115 602 l 115 602 q 163 602 197 568 q 231 534 231 486 l 231 486 q 231 438 198 404 q 164 370 116 370 l 116 370 q 68 370 34 404 q -1 438 -1 486 l -1 486 q -1 534 33 568 q 67 602 115 602 z m 31 486 l 31 486 q 31 452 56 427 q 81 402 116 402 l 116 402 q 150 402 175 427 q 199 451 199 486 l 199 486 q 199 521 175 546 q 150 570 115 570 l 115 570 q 81 570 56 546 q 31 521 31 486 z"},"ø":{"ha":502,"x_min":72,"x_max":498,"o":"m 205 6 l 184 -15 q 127 27 96 95 l 96 95 q 72 148 72 194 l 72 194 q 72 289 133 355 q 193 421 287 421 l 287 421 q 375 421 438 349 l 438 349 q 498 280 498 189 l 498 189 q 498 105 459 48 q 420 -9 360 -9 l 360 -9 q 312 -9 275 35 q 238 78 238 140 l 238 140 q 238 263 343 348 l 343 348 q 325 363 284 363 l 284 363 q 214 363 164 307 q 114 251 114 182 l 114 182 q 114 77 205 6 l 205 6 z m 370 328 l 370 328 q 274 250 274 156 l 274 156 q 274 114 298 82 q 321 49 348 49 l 348 49 q 380 49 403 85 q 426 120 426 176 l 426 176 q 426 223 408 269 l 408 269 q 391 312 370 328 z"},"ù":{"ha":485,"x_min":72,"x_max":481,"o":"m 114 190 l 114 190 q 114 78 216 16 l 216 16 l 200 -9 q 140 29 106 84 q 72 139 72 197 l 72 197 q 72 285 124 348 l 124 348 q 184 421 289 421 l 289 421 q 368 421 425 360 q 481 298 481 213 l 481 213 q 481 153 447 96 l 447 96 q 410 34 338 -9 l 338 -9 l 312 29 q 403 90 403 185 l 403 185 q 403 252 365 298 q 326 343 263 343 l 263 343 q 199 343 157 302 q 114 260 114 190 z"},"ú":{"ha":1,"x_min":0,"x_max":0,"o":""},"û":{"ha":1,"x_min":0,"x_max":0,"o":""},"ü":{"ha":1,"x_min":0,"x_max":0,"o":""},"ý":{"ha":30,"x_min":-1,"x_max":1,"o":"m 0 25 l -1 26 l 1 25 l 0 25 z"},"þ":{"ha":60,"x_min":-1,"x_max":1,"o":"m 0 25 l -1 26 l 1 25 l 0 25 z"},"ÿ":{"ha":1,"x_min":0,"x_max":0,"o":""},"Œ":{"ha":697,"x_min":72,"x_max":693,"o":"m 160 -218 l 608 0 l 302 0 l 302 19 q 403 93 403 185 l 403 185 q 403 252 365 298 q 326 343 263 343 l 263 343 q 199 343 157 302 q 114 260 114 190 l 114 190 q 114 78 216 16 l 216 16 l 200 -9 q 140 29 106 84 q 72 139 72 197 l 72 197 q 72 285 124 348 l 124 348 q 184 421 289 421 l 289 421 q 368 421 425 360 q 481 298 481 213 l 481 213 q 481 116 403 32 l 403 32 l 613 32 l 605 414 l 683 414 l 693 -223 l 160 -223 l 160 -218 z m 306 -191 l 618 -191 l 617 -35 l 306 -187 l 306 -191 z"},"œ":{"ha":483,"x_min":31,"x_max":453,"o":"m 156 487 l 156 623 l 328 623 l 328 487 l 453 487 l 453 317 l 328 317 l 328 0 l 156 0 l 156 317 l 31 317 l 31 487 l 156 487 z m 306 600 l 178 600 l 178 464 l 53 464 l 53 337 l 178 337 l 178 22 l 306 22 l 306 337 l 430 337 l 430 464 l 306 464 l 306 600 z m 206 436 l 206 571 l 279 571 l 279 436 l 402 436 l 402 365 l 279 365 l 279 49 l 206 49 l 206 365 l 81 365 l 81 436 l 206 436 z"},"Š":{"ha":928,"x_min":72,"x_max":924,"o":"m 390 0 l 390 0 l 327 0 l 327 259 q 327 308 304 337 l 304 337 q 283 363 253 363 l 253 363 q 201 363 160 319 l 160 319 q 114 271 114 198 l 114 198 q 114 94 224 15 l 224 15 l 198 -9 q 143 35 109 91 l 109 91 q 72 152 72 207 l 72 207 q 72 307 135 368 l 135 368 q 188 421 254 421 l 254 421 q 349 421 387 353 l 387 353 q 404 384 439 403 q 473 421 513 421 l 513 421 q 574 421 618 382 l 618 382 q 671 334 671 249 l 671 249 l 671 163 q 671 112 692 81 q 712 49 743 49 l 743 49 q 797 49 840 98 q 882 147 882 211 l 882 211 q 882 259 849 314 q 816 369 768 399 l 768 399 l 793 421 q 855 373 890 310 q 924 247 924 186 l 924 186 q 924 115 874 56 l 874 56 q 818 -9 733 -9 l 733 -9 q 714 -9 700 -4 l 700 -4 q 769 -66 769 -138 l 769 -138 q 769 -194 732 -235 q 694 -277 636 -277 l 636 -277 q 586 -277 559 -240 q 532 -203 532 -138 l 532 -138 q 532 -22 439 -22 l 439 -22 q 377 -22 333 -70 l 333 -70 l 335 -72 q 354 -64 370 -64 l 370 -64 q 412 -64 441 -95 q 470 -127 470 -179 l 470 -179 q 470 -231 439 -260 l 439 -260 q 415 -282 386 -282 l 386 -282 q 342 -282 310 -249 l 310 -249 q 275 -213 275 -156 l 275 -156 q 275 -104 307 -61 q 338 -18 390 0 z m 661 -7 l 676 5 q 603 47 603 154 l 603 154 l 603 240 q 603 375 493 375 l 493 375 q 458 375 433 355 l 433 355 q 405 333 405 299 l 405 299 l 405 4 q 428 10 451 10 l 451 10 q 515 10 551 -27 q 587 -65 587 -133 l 587 -133 q 587 -231 652 -231 l 652 -231 q 684 -231 709 -204 q 733 -177 733 -142 l 733 -142 q 733 -56 661 -7 l 661 -7 z m 353 -116 l 353 -116 q 325 -116 309 -127 l 309 -127 q 305 -138 305 -155 l 305 -155 q 305 -242 381 -242 l 381 -242 q 401 -242 415 -226 q 428 -210 428 -188 l 428 -188 q 428 -154 407 -135 q 386 -116 353 -116 z"},"š":{"ha":417,"x_min":31,"x_max":386,"o":"m 147 712 l 386 311 l 147 -89 l 147 40 l 31 40 l 31 582 l 147 582 l 147 712 z"},"Ÿ":{"ha":647,"x_min":31,"x_max":616,"o":"m 505 125 l 505 125 l 144 125 q 133 125 132 127 l 132 127 q 127 135 127 180 l 127 180 l 177 313 q 185 334 207 358 l 207 358 q 216 368 225 377 l 225 377 q 228 382 228 400 l 228 400 q 228 411 225 418 l 225 418 q 184 416 179 388 l 179 388 q 144 377 77 377 l 77 377 q 49 377 35 381 l 35 381 q 39 426 48 443 l 48 443 q 61 467 98 479 l 98 479 q 187 509 324 509 l 324 509 q 442 509 537 482 l 537 482 q 581 470 596 447 l 596 447 q 608 429 613 381 l 613 381 q 597 377 565 377 l 565 377 q 506 377 468 388 l 468 388 q 464 416 422 418 l 422 418 q 420 412 420 399 l 420 399 q 420 383 422 380 q 423 377 436 363 l 436 363 q 445 353 454 344 q 462 334 467 320 l 467 320 l 520 180 q 520 141 516 128 l 516 128 q 515 125 505 125 z m 574 339 l 574 339 l 534 341 q 504 342 497 345 l 497 345 q 477 350 474 369 l 474 369 l 563 363 l 616 365 q 608 348 601 343 q 593 338 574 339 z m 31 365 l 31 365 l 84 363 l 173 369 q 169 341 113 341 l 113 341 l 73 341 q 53 341 46 345 q 39 348 31 365 z m 241 422 l 241 422 l 256 388 l 262 388 l 324 391 l 391 388 l 406 422 q 370 430 323 430 l 323 430 q 277 430 241 422 z m 410 274 l 410 274 q 410 310 386 336 q 361 362 325 362 l 325 362 q 289 362 264 337 q 238 312 238 276 l 238 276 q 238 240 263 213 q 287 186 323 186 l 323 186 q 360 186 385 212 q 410 237 410 274 z"},"ƒ":{"ha":692,"x_min":72,"x_max":689,"o":"m 310 0 l 310 0 l 249 0 l 249 7 q 316 49 316 123 l 316 123 q 316 161 292 190 l 292 190 q 265 221 222 221 l 222 221 q 175 221 145 190 q 114 159 114 116 l 114 116 q 114 62 162 14 l 162 14 l 134 -9 q 72 57 72 134 l 72 134 q 72 192 113 233 l 113 233 q 159 279 237 279 l 237 279 q 307 279 352 232 l 352 232 q 394 188 394 126 l 394 126 q 394 71 361 32 l 361 32 l 608 32 l 600 414 l 678 414 l 686 0 l 615 0 q 689 -61 689 -138 l 689 -138 q 689 -194 652 -235 q 614 -277 556 -277 l 556 -277 q 506 -277 479 -240 q 452 -203 452 -138 l 452 -138 q 452 -22 359 -22 l 359 -22 q 297 -22 253 -70 l 253 -70 l 255 -72 q 274 -64 290 -64 l 290 -64 q 332 -64 361 -95 q 390 -127 390 -179 l 390 -179 q 390 -231 359 -260 l 359 -260 q 335 -282 306 -282 l 306 -282 q 262 -282 230 -249 l 230 -249 q 195 -213 195 -156 l 195 -156 q 195 -104 227 -61 q 258 -18 310 0 z m 581 -7 l 590 0 l 429 0 q 507 -30 507 -133 l 507 -133 q 507 -231 572 -231 l 572 -231 q 604 -231 629 -204 q 653 -177 653 -142 l 653 -142 q 653 -56 581 -7 l 581 -7 z m 273 -116 l 273 -116 q 245 -116 229 -127 l 229 -127 q 225 -138 225 -155 l 225 -155 q 225 -242 301 -242 l 301 -242 q 321 -242 335 -226 q 348 -210 348 -188 l 348 -188 q 348 -154 327 -135 q 306 -116 273 -116 z"},"ˆ":{"ha":686,"x_min":84,"x_max":682,"o":"m 303 0 l 303 0 l 84 0 l 84 183 q 84 316 138 371 l 138 371 q 187 421 269 421 l 269 421 q 381 421 434 352 l 434 352 q 461 317 470 259 l 470 259 q 475 226 476 151 l 476 151 l 162 151 l 162 32 l 602 32 l 594 414 l 672 414 l 680 0 l 608 0 q 682 -61 682 -138 l 682 -138 q 682 -194 645 -235 q 607 -277 549 -277 l 549 -277 q 499 -277 472 -240 q 445 -203 445 -138 l 445 -138 q 445 -22 352 -22 l 352 -22 q 290 -22 246 -70 l 246 -70 l 248 -72 q 267 -64 283 -64 l 283 -64 q 325 -64 354 -95 q 383 -127 383 -179 l 383 -179 q 383 -231 352 -260 l 352 -260 q 328 -282 299 -282 l 299 -282 q 255 -282 223 -249 l 223 -249 q 188 -213 188 -156 l 188 -156 q 188 -104 220 -61 q 251 -18 303 0 z m 162 183 l 440 183 q 440 290 405 333 l 405 333 q 366 381 299 381 l 299 381 q 234 381 198 340 q 162 298 162 234 l 162 234 l 162 183 z m 574 -7 l 583 0 l 422 0 q 500 -30 500 -133 l 500 -133 q 500 -231 565 -231 l 565 -231 q 597 -231 622 -204 q 646 -177 646 -142 l 646 -142 q 646 -56 574 -7 l 574 -7 z m 266 -116 l 266 -116 q 238 -116 222 -127 l 222 -127 q 218 -138 218 -155 l 218 -155 q 218 -242 294 -242 l 294 -242 q 314 -242 328 -226 q 341 -210 341 -188 l 341 -188 q 341 -154 320 -135 q 299 -116 266 -116 z"},"¯":{"ha":944,"x_min":72,"x_max":940,"o":"m 506 32 l 640 32 l 640 315 l 718 315 l 718 -66 q 718 -117 688 -149 q 657 -182 610 -182 l 610 -182 q 492 -182 479 0 l 479 0 l 249 0 l 249 7 q 316 49 316 123 l 316 123 q 316 161 292 190 l 292 190 q 265 221 222 221 l 222 221 q 175 221 145 190 q 114 159 114 116 l 114 116 q 114 62 162 14 l 162 14 l 134 -9 q 72 57 72 134 l 72 134 q 72 192 113 233 l 113 233 q 159 279 237 279 l 237 279 q 307 279 352 232 l 352 232 q 394 188 394 126 l 394 126 q 394 71 361 32 l 361 32 l 477 32 q 476 43 476 65 l 476 65 q 476 225 530 317 l 530 317 q 593 421 719 421 l 719 421 q 803 421 854 381 l 854 381 q 913 335 913 241 l 913 241 q 913 208 896 177 q 879 146 855 135 l 855 135 q 940 111 940 -22 l 940 -22 q 940 -90 909 -132 l 909 -132 q 875 -176 815 -176 l 815 -176 q 789 -176 766 -167 l 766 -167 l 756 -108 q 776 -118 797 -118 l 797 -118 q 825 -118 841 -88 q 856 -59 856 -12 l 856 -12 q 856 40 833 77 q 809 114 774 114 l 774 114 l 753 114 l 753 154 l 766 154 q 796 154 816 182 q 835 210 835 247 l 835 247 q 835 301 799 335 q 762 369 697 369 l 697 369 q 613 369 560 284 q 506 198 506 64 l 506 64 l 506 32 z m 640 0 l 509 0 q 520 -124 582 -124 l 582 -124 q 608 -124 624 -105 q 640 -86 640 -57 l 640 -57 l 640 0 z"},"˜":{"ha":686,"x_min":31,"x_max":654,"o":"m 31 623 l 556 623 l 556 529 l 654 529 l 654 0 l 128 0 l 128 95 l 31 95 l 31 623 z m 531 121 l 531 596 l 58 596 l 58 121 l 531 121 z"},"µ":{"ha":733,"x_min":70,"x_max":729,"o":"m 540 239 l 602 239 q 655 239 690 209 l 690 209 q 729 175 729 111 l 729 111 q 729 63 697 27 q 665 -9 620 -9 l 620 -9 q 585 -9 561 8 l 561 8 l 556 53 q 577 38 593 38 l 593 38 q 619 38 640 60 q 661 81 661 122 l 661 122 q 661 207 580 207 l 580 207 l 543 207 q 545 101 497 42 l 497 42 q 457 -9 399 -9 l 399 -9 q 323 -9 285 66 l 285 66 q 256 -9 193 -9 l 193 -9 q 149 -9 113 22 l 113 22 q 70 60 70 126 l 70 126 q 70 179 103 209 q 136 239 198 239 l 198 239 l 262 239 q 262 313 296 365 l 296 365 q 333 421 394 421 l 394 421 q 455 421 495 370 l 495 370 q 532 321 540 239 l 540 239 z m 475 207 l 292 207 q 286 123 315 77 l 315 77 q 339 37 379 37 l 379 37 q 426 37 453 85 q 479 132 475 207 l 475 207 z m 292 239 l 475 239 q 472 293 447 331 q 421 369 381 369 l 381 369 q 345 369 320 337 l 320 337 q 292 302 292 239 l 292 239 z m 262 207 l 230 207 q 138 207 138 131 l 138 131 q 138 95 157 66 q 175 37 203 37 l 203 37 q 231 37 247 62 q 262 87 262 127 l 262 127 l 262 207 z"},"–":{"ha":492,"x_min":68,"x_max":544,"o":"m 68 232 l 500 232 l 544 186 l 112 186 l 68 232 z"},"—":{"ha":352,"x_min":68,"x_max":352,"o":"m 68 232 l 308 232 l 352 186 l 112 186 l 68 232 z"},"‘":{"ha":1,"x_min":0,"x_max":0,"o":""},"’":{"ha":1,"x_min":0,"x_max":0,"o":""},"‚":{"ha":715,"x_min":68,"x_max":710,"o":"m 701 414 l 710 -226 l 177 -226 l 177 -221 l 629 0 l 68 0 l 68 32 l 258 32 q 282 40 306 70 l 306 70 q 333 105 333 142 l 333 142 q 333 172 313 197 q 292 221 263 221 l 263 221 q 231 221 211 198 q 190 174 190 140 l 190 140 q 190 121 198 108 l 198 108 l 158 108 q 148 128 148 160 l 148 160 q 148 212 181 246 q 214 279 271 279 l 271 279 q 334 279 374 236 l 374 236 q 411 197 411 146 l 411 146 q 411 85 364 32 l 364 32 l 631 32 l 623 414 l 701 414 z m 323 -194 l 635 -194 l 634 -38 l 323 -190 l 323 -194 z"},"“":{"ha":1,"x_min":0,"x_max":0,"o":""},"”":{"ha":1,"x_min":0,"x_max":0,"o":""},"„":{"ha":987,"x_min":72,"x_max":983,"o":"m 450 -221 l 902 0 l 584 0 l 584 23 q 684 106 684 206 l 684 206 q 684 278 648 327 q 612 375 557 375 l 557 375 q 521 375 497 356 q 472 336 472 301 l 472 301 l 472 0 l 394 0 l 394 282 q 394 317 361 343 q 328 369 278 369 l 278 369 q 202 369 157 318 q 111 266 102 181 l 102 181 l 105 178 q 128 215 146 229 l 146 229 q 168 246 204 246 l 204 246 q 250 246 283 204 q 315 162 315 112 l 315 112 q 315 56 285 24 q 254 -9 206 -9 l 206 -9 q 140 -9 104 46 l 104 46 q 72 93 72 164 l 72 164 q 72 273 136 345 l 136 345 q 203 421 311 421 l 311 421 q 410 421 455 347 l 455 347 q 469 375 504 398 q 538 421 579 421 l 579 421 q 654 421 708 359 q 762 296 762 214 l 762 214 q 762 118 670 36 l 670 36 l 672 32 l 903 32 l 895 414 l 973 414 l 981 1 l 982 1 l 983 -226 l 450 -226 l 450 -221 z m 118 124 l 118 124 q 118 95 139 69 q 159 43 186 43 l 186 43 q 217 43 236 69 l 236 69 q 253 92 253 118 l 253 118 q 253 151 235 176 q 217 200 188 200 l 188 200 q 157 200 138 179 q 118 157 118 124 z m 596 -194 l 908 -194 l 907 -38 l 596 -190 l 596 -194 z"},"†":{"ha":987,"x_min":72,"x_max":989,"o":"m 610 0 l 610 0 l 584 0 l 584 23 q 684 106 684 206 l 684 206 q 684 278 648 327 q 612 375 557 375 l 557 375 q 521 375 497 356 q 472 336 472 301 l 472 301 l 472 0 l 394 0 l 394 282 q 394 317 361 343 q 328 369 278 369 l 278 369 q 202 369 157 318 q 111 266 102 181 l 102 181 l 105 178 q 128 215 146 229 l 146 229 q 168 246 204 246 l 204 246 q 250 246 283 204 q 315 162 315 112 l 315 112 q 315 56 285 24 q 254 -9 206 -9 l 206 -9 q 140 -9 104 46 l 104 46 q 72 93 72 164 l 72 164 q 72 273 136 345 l 136 345 q 203 421 311 421 l 311 421 q 410 421 455 347 l 455 347 q 469 375 504 398 q 538 421 579 421 l 579 421 q 654 421 708 359 q 762 296 762 214 l 762 214 q 762 118 670 36 l 670 36 l 672 32 l 903 32 l 895 414 l 973 414 l 981 0 l 915 0 q 989 -61 989 -138 l 989 -138 q 989 -194 952 -235 q 914 -277 856 -277 l 856 -277 q 806 -277 779 -240 q 752 -203 752 -138 l 752 -138 q 752 -22 659 -22 l 659 -22 q 597 -22 553 -70 l 553 -70 l 555 -72 q 574 -64 590 -64 l 590 -64 q 632 -64 661 -95 q 690 -127 690 -179 l 690 -179 q 690 -231 659 -260 l 659 -260 q 635 -282 606 -282 l 606 -282 q 562 -282 530 -249 l 530 -249 q 495 -213 495 -156 l 495 -156 q 495 -104 527 -61 q 558 -18 610 0 z m 118 124 l 118 124 q 118 95 139 69 q 159 43 186 43 l 186 43 q 217 43 236 69 l 236 69 q 253 92 253 118 l 253 118 q 253 151 235 176 q 217 200 188 200 l 188 200 q 157 200 138 179 q 118 157 118 124 z m 881 -7 l 890 0 l 729 0 q 807 -30 807 -133 l 807 -133 q 807 -231 872 -231 l 872 -231 q 904 -231 929 -204 q 953 -177 953 -142 l 953 -142 q 953 -56 881 -7 l 881 -7 z m 573 -116 l 573 -116 q 545 -116 529 -127 l 529 -127 q 525 -138 525 -155 l 525 -155 q 525 -242 601 -242 l 601 -242 q 621 -242 635 -226 q 648 -210 648 -188 l 648 -188 q 648 -154 627 -135 q 606 -116 573 -116 z"},"‡":{"ha":745,"x_min":72,"x_max":741,"o":"m 184 -181 l 541 -7 q 521 -9 509 -9 l 509 -9 q 454 -9 432 3 l 432 3 q 396 -9 341 -9 l 341 -9 q 231 -9 152 61 q 72 131 72 229 l 72 229 q 72 316 118 371 l 118 371 q 160 421 220 421 l 220 421 q 288 421 331 340 l 331 340 q 391 421 470 421 l 470 421 q 527 421 569 372 q 611 322 611 257 l 611 257 q 611 103 480 28 l 480 28 q 496 23 512 23 l 512 23 q 587 23 646 84 q 705 145 705 230 l 705 230 q 705 326 634 397 l 634 397 l 659 421 q 707 361 725 316 l 725 316 q 741 276 741 228 l 741 228 q 741 110 655 40 l 655 40 l 716 40 l 717 -186 l 184 -186 l 184 -181 z m 330 -154 l 642 -154 l 641 2 l 330 -150 l 330 -154 z m 438 45 l 438 45 q 484 67 513 122 l 513 122 q 539 174 539 229 l 539 229 q 539 286 511 328 q 483 369 440 369 l 440 369 l 439 369 q 394 369 365 324 l 365 324 q 339 284 339 234 l 339 234 q 339 177 367 123 q 395 68 438 45 z m 198 363 l 198 363 q 159 363 131 323 q 102 283 102 228 l 102 228 q 102 137 184 74 l 184 74 q 251 23 332 23 l 332 23 q 368 23 387 28 l 387 28 q 351 47 316 106 l 316 106 q 277 172 277 238 l 277 238 q 277 296 252 331 l 252 331 q 230 363 198 363 z"},"•":{"ha":1,"x_min":0,"x_max":0,"o":""},"…":{"ha":927,"x_min":72,"x_max":923,"o":"m 807 9 l 807 9 q 845 -18 869 -59 q 892 -100 892 -138 l 892 -138 q 892 -194 855 -235 q 817 -277 759 -277 l 759 -277 q 709 -277 682 -240 q 655 -203 655 -138 l 655 -138 q 655 -22 562 -22 l 562 -22 q 500 -22 456 -70 l 456 -70 l 458 -72 q 477 -64 493 -64 l 493 -64 q 535 -64 564 -95 q 593 -127 593 -179 l 593 -179 q 593 -231 562 -260 l 562 -260 q 538 -282 509 -282 l 509 -282 q 465 -282 433 -249 l 433 -249 q 398 -213 398 -156 l 398 -156 q 398 -104 430 -61 q 461 -18 513 0 l 513 0 l 249 0 l 249 7 q 316 49 316 123 l 316 123 q 316 161 292 190 l 292 190 q 265 221 222 221 l 222 221 q 175 221 145 190 q 114 159 114 116 l 114 116 q 114 62 162 14 l 162 14 l 134 -9 q 72 57 72 134 l 72 134 q 72 192 113 233 l 113 233 q 159 279 237 279 l 237 279 q 307 279 352 232 l 352 232 q 394 188 394 126 l 394 126 q 394 71 361 32 l 361 32 l 590 32 q 560 61 539 108 q 517 155 517 200 l 517 200 q 517 286 573 351 l 573 351 q 632 421 722 421 l 722 421 q 807 421 865 360 q 923 299 923 213 l 923 213 q 923 91 807 9 z m 476 -116 l 476 -116 q 448 -116 432 -127 l 432 -127 q 428 -138 428 -155 l 428 -155 q 428 -242 504 -242 l 504 -242 q 524 -242 538 -226 q 551 -210 551 -188 l 551 -188 q 551 -154 530 -135 q 509 -116 476 -116 z m 683 0 l 632 0 q 710 -30 710 -133 l 710 -133 q 710 -231 775 -231 l 775 -231 q 807 -231 832 -204 q 856 -177 856 -142 l 856 -142 q 856 -56 784 -7 l 784 -7 l 780 -9 l 754 29 q 845 90 845 185 l 845 185 q 845 252 807 298 q 768 343 705 343 l 705 343 q 641 343 600 302 q 559 260 559 190 l 559 190 q 559 129 595 76 q 631 23 683 7 l 683 7 l 683 0 z"},"‰":{"ha":738,"x_min":72,"x_max":734,"o":"m 254 -9 l 254 -9 l 248 -9 q 173 -9 121 56 l 121 56 q 72 116 72 194 l 72 194 q 72 259 111 323 q 149 387 207 421 l 207 421 l 227 397 q 114 316 114 200 l 114 200 q 114 139 151 94 q 188 49 240 49 l 240 49 q 277 49 300 82 l 300 82 q 326 119 326 190 l 326 190 l 326 257 q 326 333 376 378 l 376 378 q 423 421 493 421 l 493 421 q 609 421 675 347 l 675 347 q 734 282 734 189 l 734 189 q 734 105 695 48 q 656 -9 596 -9 l 596 -9 l 590 -9 q 654 -68 654 -138 l 654 -138 q 654 -194 617 -235 q 579 -277 521 -277 l 521 -277 q 471 -277 444 -240 q 417 -203 417 -138 l 417 -138 q 417 -22 324 -22 l 324 -22 q 262 -22 218 -70 l 218 -70 l 220 -72 q 239 -64 255 -64 l 255 -64 q 297 -64 326 -95 q 355 -127 355 -179 l 355 -179 q 355 -231 324 -260 l 324 -260 q 300 -282 271 -282 l 271 -282 q 227 -282 195 -249 l 195 -249 q 160 -213 160 -156 l 160 -156 q 160 -109 186 -69 q 211 -30 254 -9 z m 611 332 l 611 332 q 510 250 510 156 l 510 156 q 510 114 534 82 q 557 49 584 49 l 584 49 q 616 49 639 85 q 662 120 662 176 l 662 176 q 662 283 611 332 z m 546 -7 l 555 0 q 520 16 497 54 q 474 92 474 140 l 474 140 q 474 264 587 354 l 587 354 q 556 381 505 381 l 505 381 q 453 381 424 339 q 394 296 394 221 l 394 221 l 394 161 q 394 54 312 9 l 312 9 q 316 9 324 10 l 324 10 q 332 10 336 10 l 336 10 q 400 10 436 -27 q 472 -65 472 -133 l 472 -133 q 472 -231 537 -231 l 537 -231 q 569 -231 594 -204 q 618 -177 618 -142 l 618 -142 q 618 -56 546 -7 l 546 -7 z m 238 -116 l 238 -116 q 210 -116 194 -127 l 194 -127 q 190 -138 190 -155 l 190 -155 q 190 -242 266 -242 l 266 -242 q 286 -242 300 -226 q 313 -210 313 -188 l 313 -188 q 313 -154 292 -135 q 271 -116 238 -116 z"},"‹":{"ha":733,"x_min":70,"x_max":729,"o":"m 593 -65 l 593 -5 q 572 0 561 8 l 561 8 l 556 53 q 577 38 593 38 l 593 38 q 619 38 640 60 q 661 81 661 122 l 661 122 q 661 207 580 207 l 580 207 l 543 207 q 545 101 497 42 l 497 42 q 457 -9 399 -9 l 399 -9 q 323 -9 285 66 l 285 66 q 256 -9 193 -9 l 193 -9 q 149 -9 113 22 l 113 22 q 70 60 70 126 l 70 126 q 70 179 103 209 q 136 239 198 239 l 198 239 l 262 239 q 262 313 296 365 l 296 365 q 333 421 394 421 l 394 421 q 455 421 495 370 l 495 370 q 532 321 540 239 l 540 239 l 602 239 q 655 239 690 209 l 690 209 q 729 175 729 111 l 729 111 q 729 71 706 38 q 683 5 647 -5 l 647 -5 l 647 -113 q 647 -148 610 -174 l 610 -174 q 577 -197 543 -197 l 543 -197 q 493 -197 459 -177 l 459 -177 q 420 -154 420 -113 l 420 -113 q 420 -77 458 -59 l 458 -59 q 486 -45 522 -45 l 522 -45 q 562 -45 593 -65 l 593 -65 z m 262 207 l 230 207 q 138 207 138 131 l 138 131 q 138 95 157 66 q 175 37 203 37 l 203 37 q 231 37 247 62 q 262 87 262 127 l 262 127 l 262 207 z m 447 -113 l 447 -113 q 447 -134 471 -147 l 471 -147 q 491 -159 513 -159 l 513 -159 q 566 -159 592 -131 l 592 -131 q 592 -101 591 -98 l 591 -98 q 586 -89 565 -81 q 544 -73 529 -73 l 529 -73 q 447 -73 447 -113 z m 292 239 l 475 239 q 472 293 447 331 q 421 369 381 369 l 381 369 q 345 369 320 337 l 320 337 q 292 302 292 239 l 292 239 z m 475 207 l 292 207 q 286 123 315 77 l 315 77 q 339 37 379 37 l 379 37 q 426 37 453 85 q 479 132 475 207 l 475 207 z"},"›":{"ha":741,"x_min":31,"x_max":710,"o":"m 281 416 l 372 634 l 463 416 l 710 397 l 521 231 l 584 -13 l 372 125 l 164 -13 l 220 231 l 31 397 l 281 416 z m 428 370 l 372 605 l 316 370 q 343 384 373 384 l 373 384 q 402 384 428 370 l 428 370 z m 472 247 l 680 387 l 431 368 q 477 331 477 282 l 477 282 q 477 267 472 247 l 472 247 z m 375 179 l 565 13 l 471 246 q 443 185 375 179 l 375 179 z m 276 246 l 184 13 l 372 179 q 310 179 276 246 l 276 246 z m 314 368 l 60 387 l 275 247 q 270 277 270 283 l 270 283 q 270 332 314 368 l 314 368 z"},"™":{"ha":732,"x_min":46,"x_max":691,"o":"m 423 215 l 121 139 l 46 154 l 369 246 l 48 445 l 125 442 l 427 266 l 464 274 q 486 279 486 312 l 486 312 q 486 319 484 341 l 484 341 q 482 359 483 369 l 483 369 q 486 405 518 426 l 518 426 q 547 445 587 445 l 587 445 q 654 445 679 398 l 679 398 q 691 376 691 353 l 691 353 q 691 311 652 298 l 652 298 l 471 238 l 616 158 q 658 135 658 92 l 658 92 q 658 63 637 48 q 616 33 585 33 l 585 33 q 544 33 510 55 l 510 55 q 458 88 458 148 l 458 148 q 458 174 470 199 l 470 199 l 423 215 z m 573 411 l 573 411 q 546 410 531 387 l 531 387 q 517 368 517 342 l 517 342 q 517 320 528 307 l 528 307 l 640 340 q 649 343 649 356 l 649 356 q 649 376 630 393 l 630 393 q 608 413 573 411 z m 587 140 l 508 182 q 488 172 488 150 l 488 150 q 488 112 536 82 l 536 82 q 562 65 583 65 l 583 65 q 617 65 617 97 l 617 97 q 617 124 587 140 l 587 140 z"},"­":{"ha":1133,"x_min":72,"x_max":1132,"o":"m 641 32 l 641 0 l 249 0 l 249 7 q 316 49 316 123 l 316 123 q 316 161 292 190 l 292 190 q 265 221 222 221 l 222 221 q 175 221 145 190 q 114 159 114 116 l 114 116 q 114 62 162 14 l 162 14 l 134 -9 q 72 57 72 134 l 72 134 q 72 192 113 233 l 113 233 q 159 279 237 279 l 237 279 q 307 279 352 232 l 352 232 q 394 188 394 126 l 394 126 q 394 71 361 32 l 361 32 l 594 32 q 511 120 511 207 l 511 207 q 511 307 574 368 l 574 368 q 627 421 693 421 l 693 421 q 788 421 826 353 l 826 353 q 843 384 878 403 q 912 421 952 421 l 952 421 q 1026 421 1079 359 q 1132 297 1132 207 l 1132 207 q 1132 95 997 -9 l 997 -9 l 956 10 q 1054 111 1054 205 l 1054 205 q 1054 287 1010 335 l 1010 335 q 973 375 932 375 l 932 375 q 897 375 872 355 l 872 355 q 844 333 844 299 l 844 299 l 844 0 l 766 0 l 766 259 q 766 308 743 337 l 743 337 q 722 363 692 363 l 692 363 q 640 363 599 319 l 599 319 q 553 271 553 198 l 553 198 q 553 103 641 32 l 641 32 l 641 32 z"},"·":{"ha":651,"x_min":72,"x_max":647,"o":"m 517 -9 l 493 14 q 605 85 605 208 l 605 208 q 605 278 561 324 l 561 324 q 523 363 481 363 l 481 363 q 394 363 394 218 l 394 218 l 394 161 q 394 88 350 40 q 306 -9 248 -9 l 248 -9 q 173 -9 121 56 l 121 56 q 72 116 72 194 l 72 194 q 72 259 111 323 q 149 387 207 421 l 207 421 l 227 397 q 114 316 114 200 l 114 200 q 114 139 151 94 q 188 49 240 49 l 240 49 q 277 49 300 82 l 300 82 q 326 119 326 190 l 326 190 l 326 257 q 326 332 374 378 l 374 378 q 419 421 479 421 l 479 421 q 551 421 599 364 q 647 306 647 221 l 647 221 q 647 154 610 88 q 573 22 517 -9 l 517 -9 z"},"":{"ha":2,"x_min":0,"x_max":0,"o":""},"":{"ha":2,"x_min":0,"x_max":0,"o":""},"":{"ha":2,"x_min":0,"x_max":0,"o":""},"":{"ha":2,"x_min":0,"x_max":0,"o":""},"":{"ha":2,"x_min":0,"x_max":0,"o":""},"":{"ha":2,"x_min":0,"x_max":0,"o":""},"":{"ha":2,"x_min":0,"x_max":0,"o":""},"":{"ha":2,"x_min":0,"x_max":0,"o":""}," ":{"ha":1,"x_min":0,"x_max":0,"o":""}}}
